SplineFontDB: 3.0
FontName: Experiment-Latin-Italic
FullName: Experiment-Latin
FamilyName: Experiment-Latin
Weight: Italic
Copyright: Copyright (c) 2015, Pathum Egodawatta
UComments: "2015-9-29: Created with FontForge (http://fontforge.org)"
Version: 0.001
ItalicAngle: -10
UnderlinePosition: 100
UnderlineWidth: 49
Ascent: 1000
Descent: 0
InvalidEm: 0
LayerCount: 5
Layer: 0 0 "Back" 1
Layer: 1 0 "Fore" 0
Layer: 2 0 "Back 2" 1
Layer: 3 0 "Back-w" 1
Layer: 4 0 "Back 3" 1
PreferredKerning: 4
XUID: [1021 779 -1439063335 14876943]
FSType: 0
OS2Version: 0
OS2_WeightWidthSlopeOnly: 0
OS2_UseTypoMetrics: 1
CreationTime: 1443542790
ModificationTime: 1461932970
PfmFamily: 17
TTFWeight: 400
TTFWidth: 5
LineGap: 122
VLineGap: 0
OS2TypoAscent: 129
OS2TypoAOffset: 1
OS2TypoDescent: 0
OS2TypoDOffset: 1
OS2TypoLinegap: 122
OS2WinAscent: 129
OS2WinAOffset: 1
OS2WinDescent: -161
OS2WinDOffset: 1
HheadAscent: 29
HheadAOffset: 1
HheadDescent: 183
HheadDOffset: 1
OS2CapHeight: 0
OS2XHeight: 0
OS2Vendor: 'PfEd'
Lookup: 258 0 0 "'kern' Horizontal Kerning in Latin lookup 0" { "'kern' Horizontal Kerning in Latin lookup 0-1" [150,15,0] } ['kern' ('DFLT' <'dflt' > 'latn' <'dflt' > ) ]
MarkAttachClasses: 1
DEI: 91125
KernClass2: 3 2 "'kern' Horizontal Kerning in Latin lookup 0-1"
 11 a n i d l m
 0 
 1 g
 0 {} 0 {} 0 {} -53 {} 0 {} 0 {}
LangName: 1033
Encoding: Adobe-Latin-2
UnicodeInterp: none
NameList: Adobe Glyph List
DisplaySize: -72
AntiAlias: 1
FitToEm: 1
WinInfo: 32 8 2
BeginPrivate: 0
EndPrivate
Grid
-1000 824 m 0
 2000 824 l 1024
-1000 784 m 0
 2000 784 l 1024
-1000 571.5 m 0
 2000 571.5 l 1024
-1000 594 m 0
 2000 594 l 1024
-1000 531 m 0
 2000 531 l 1024
-1000 -278 m 0
 2000 -278 l 1024
-1000 870.174804688 m 0
 2000 870.174804688 l 1024
-1000 849 m 0
 2000 849 l 1024
-1000 68 m 0
 2000 68 l 1024
2000 766 m 1024
-1000 1143 m 0
 2000 1143 l 1024
-1000 499 m 0
 2000 499 l 1024
-1000 612 m 0
 2000 612 l 1024
EndSplineSet
AnchorClass2: "thn_ubufibi" "" 
BeginChars: 257 228

StartChar: a
Encoding: 105 97 1
AltUni2: 0000aa.ffffffff.0
GlifName: uni0061
Width: 633
VWidth: 153
Flags: W
HStem: -15 88<168.332 249.981> 591 20G<554.403 568.566>
LayerCount: 5
Back
SplineSet
54.54296875 125 m 0
 42.3515625 366 236.012695312 539.211914062 393.866210938 587 c 0
 499.569335938 619 618.274414062 606 618.274414062 606 c 1
 569.639648438 462 l 1
 569.639648438 462 454.533203125 559.744140625 333.284179688 514 c 0
 250.144255829 482.633443299 156.5390625 332.93359375 171.713867188 165 c 0
 176.697375462 109.849474426 203.962890625 65 246.2578125 65 c 0
 348.548828125 65 441.30859375 268 464.538085938 329 c 1
 475.485351562 289 l 1
 475.485351562 289 383.209960938 -19 203.209960938 -19 c 0
 112.209960938 -19 59.314453125 30.685546875 54.54296875 125 c 0
617.615234375 603 m 1
 595.861328125 525 504.830078125 232 529.310546875 101 c 0
 536.303710938 63.578125 614.260742188 74 657.141601562 79 c 1
 661.265625 40 l 1
 638.854492188 32 512.564453125 -28 457.73828125 -10 c 0
 416.20703125 4 414.083984375 43 418.487304688 102 c 1
 424.475585938 156.63671875 494.46875 390.32421875 492.083007812 597 c 1
 617.615234375 603 l 1
EndSplineSet
Fore
SplineSet
39.3681640625 130 m 0
 36.1767578125 340.685546875 173.368164062 513 353.931640625 581 c 0
 441.741210938 614.069335938 554.403320312 611 554.403320312 611 c 1
 568.56640625 591 l 1
 552.8671875 536 520.075195312 426 497.458984375 305 c 0
 490.720703125 268.950195312 485.021484375 223 483.827148438 185 c 0
 480.244140625 71 524.893554688 51 617.893554688 68 c 1
 612.893554688 29 l 1
 574.913085938 9.619140625 528.043945312 -13.3212890625 468.53125 -14.0595703125 c 0
 394.893554688 -14.990234375 383.234375 24.2353515625 398.458984375 102 c 0
 407.458984375 147 417.458984375 199 432.458984375 246 c 1
 431.458984375 253 415.975585938 241 415.40625 249 c 1
 434.888671875 346 468.142578125 481 470.965820312 597 c 1
 515.500976562 576 l 1
 514.6171875 574 539.270507812 574 552.54296875 578 c 1
 522.916015625 472 l 1
 517.016601562 484.977539062 432.509765625 564.036132812 328.510742188 520 c 0
 250.981445312 487.171875 170.881835938 380.627929688 148.368164062 223 c 0
 138.513671875 154.002929688 152.646484375 73 210.306640625 73 c 0
 324.125976562 73 406.303710938 247 427.12109375 308 c 1
 448.458984375 268 l 1
 448.458984375 268 346.555664062 -15 172.206054688 -15 c 4
 87.3681640625 -15 40.6435546875 45.7958984375 39.3681640625 130 c 0
EndSplineSet
Layer: 2
Layer: 3
SplineSet
48 130 m 0
 44.80859375 340.685546875 206 523 394 581 c 0
 499.804153805 613.641707025 593 611 593 611 c 1
 611 591 l 1
 594 536 551 426 529 305 c 0
 522 269 517 223 517 185 c 0
 517 71 566 51 659 68 c 1
 654 29 l 1
 616.01953125 9.619140625 569.150390625 -13.3212890625 506 -14.0595703125 c 0
 426.434570312 -14.990234375 414.447265625 24.2353515625 430 102 c 0
 439 147 449 199 464 246 c 1
 463 253 446 241 445 249 c 1
 465 346 493 481 492 597 c 1
 547 576 l 1
 546 574 576 574 592 578 c 1
 560 472 l 1
 552.324915726 484.977440359 451.590820312 562.073242188 333 508 c 4
 252.23046875 471.171875 177.860351562 344.786132812 166 206 c 0
 160.450195312 141.05859375 177 73 235 73 c 0
 337 73 434 247 457 308 c 1
 471 268 l 1
 471 268 392 -15 192 -15 c 0
 101 -15 49.2755000346 45.7959215231 48 130 c 0
EndSplineSet
Layer: 4
SplineSet
57.32421875 231 m 4
 80.32421875 404 250.110351562 622 563.827148438 599 c 5
 512.653320312 471 l 5
 512.653320312 471 442.1015625 555 345.92578125 527 c 4
 249.749023438 499 184.32421875 373 168.32421875 266 c 4
 152.66796875 162.4140625 177.615234375 78 251.885742188 79 c 4
 360.948242188 80.46875 443.87109375 278 454.782226562 332 c 5
 465.469726562 276 l 5
 431.469726562 172 381.51953125 -18 209.5 -18 c 4
 70.32421875 -18 40.32421875 100 57.32421875 231 c 4
367.43359375 783 m 5
 364.107421875 824 l 5
 495.708007812 824 625.924804688 871 627.8046875 871 c 5
 640.815429688 849 l 5
 629.580078125 809.430664062 613.766601562 762.083007812 596.665039062 682 c 4
 561.366210938 510.98828125 517.534179688 323.15234375 517.939453125 171 c 4
 518.178710938 80.8701171875 577.700195312 45 666.700195312 57 c 5
 661.700195312 18 l 5
 624.700195312 1 565.700195312 -25 504.595703125 -24 c 4
 448.206054688 -23.0478515625 428.858398438 14 427.454101562 59 c 4
 425.088867188 102 444.92578125 200 457.643554688 247 c 5
 442.8046875 266 l 5
 452.75390625 318 507.564453125 612 510.111328125 675 c 4
 512.943359375 765 483.994140625 783 367.43359375 783 c 5
EndSplineSet
EndChar

StartChar: n
Encoding: 78 110 2
GlifName: uni006E_
Width: 744
VWidth: 79
Flags: W
HStem: 531 40<59.8672 159.471> 593 20G<319.192 334.03>
VStem: 536.474 107.946<406.761 508.377>
LayerCount: 5
Back
Fore
SplineSet
59.8671875 531 m 1
 55.8671875 571 l 1
 190.907226562 571 318.251953125 613 320.131835938 613 c 1
 334.030273438 594 l 1
 323.341796875 561 306.875 515 285.443359375 444 c 0
 271.21875 396.875 249.53125 337 236.212890625 289 c 1
 252.212890625 295 l 1
 237.212890625 198 229.907226562 125 231.3828125 -2 c 1
 190.375976562 -2.1259765625 116.220703125 -9.1298828125 82.22265625 -17.33984375 c 1
 70.8671875 -2 l 1
 106.709960938 76 164.379882812 196 183.212890625 288 c 0
 219.938476562 467.397460938 211.1640625 531 59.8671875 531 c 1
210.212890625 208 m 1
 276.170898438 456 447.03125 613 564.510742188 611 c 0
 620.900390625 610 646.026367188 586 644.419921875 523 c 0
 642.728515625 432.140625 573.5703125 261.576171875 565.110351562 152 c 0
 557.852539062 57.9833984375 602.494140625 42.97265625 702.602539062 68 c 1
 698.602539062 32 l 1
 658.602539062 7 575.602539062 -26 512.2109375 -24 c 0
 460.54296875 -22.3583984375 435.448242188 6 444.458007812 58 c 0
 455.443359375 119 532.385742188 277 536.473632812 442 c 0
 538.924804688 496 522.866210938 516.54296875 485.454101562 513 c 0
 397.492386268 504.669926832 254.212890625 305 239.212890625 205 c 1
 210.212890625 208 l 1
EndSplineSet
Layer: 2
Layer: 3
SplineSet
58 531 m 1
 54 571 l 1
 190 571 325 613 327 613 c 1
 342 594 l 1
 331 561 314 515 292 444 c 0
 277.397849288 396.874877246 255 337 238 289 c 1
 254 295 l 1
 239 198 232 125 235 -2 c 1
 192.163085938 -1.1259765625 127.69140625 -7.1298828125 81 -17.33984375 c 1
 69 -2 l 1
 106 76 166 196 185 288 c 0
 222.049413448 467.397159853 212 531 58 531 c 1
212 208 m 1
 282 456 462 613 587 611 c 0
 647 610 674 586 673 523 c 0
 672.223421929 432.140365705 596.0625 261.576171875 588.295898438 152 c 0
 581.6328125 57.9833984375 627.892136699 42.9730341747 728 68 c 1
 724 32 l 1
 684 7 601 -26 534 -24 c 0
 479.015625 -22.3583984375 452 6 461 58 c 0
 472 119 548 261 555 426 c 0
 557 480 546.997566979 512.542579075 504 513 c 0
 410 514 256 305 241 205 c 1
 212 208 l 1
EndSplineSet
Layer: 4
EndChar

StartChar: d
Encoding: 68 100 3
GlifName: uni0064
Width: 700
VWidth: 79
Flags: W
HStem: -18 97<198.552 300.104> 783 41<367.434 483.203> 851 20G<626.865 639.633>
VStem: 454.782 10.6875<278 312.678>
LayerCount: 5
Back
SplineSet
57.83984375 231 m 0
 76.791015625 373.767578125 163.440429688 510.470703125 364.19921875 585 c 4
 442.974042011 614.244210012 538.610351562 614 585.96484375 599 c 1
 533.448242188 491 l 1
 533.448242188 491 457.092773438 555.46875 355.1484375 527 c 0
 253.233398438 498.540039062 199.166015625 370 180.716796875 270 c 0
 161.708984375 166.971679688 193.40625 81.611328125 262.098632812 83 c 0
 377.954101562 85.3427734375 481.501953125 346 492.0234375 400 c 1
 504.793945312 350 l 1
 469.74609375 246 388.81640625 -18 205.81640625 -18 c 0
 90.81640625 -18 40.451171875 100 57.83984375 231 c 0
429.459960938 800 m 1
 552.107421875 808 696.986328125 850 696.986328125 850 c 1
 625.36328125 682 543.723632812 259 547.673828125 162 c 0
 551.028320312 79.6328125 591.04296875 65 681.159179688 77 c 1
 686.400390625 33 l 1
 629.81640625 7 541.34765625 -27 485.463867188 -15 c 0
 434.403320312 -4 433.921875 67 439.564453125 99 c 0
 462.020507812 226.325195312 520.862304688 554.19921875 539.771484375 702 c 0
 546.05859375 749 485.3515625 742 413.174804688 741 c 1
 429.459960938 800 l 1
EndSplineSet
Fore
SplineSet
57.32421875 231 m 4
 80.32421875 404 250.110351562 622 563.827148438 599 c 5
 512.653320312 471 l 5
 512.653320312 471 442.1015625 555 345.92578125 527 c 4
 249.749023438 499 184.32421875 373 168.32421875 266 c 4
 152.66796875 162.4140625 177.615234375 78 251.885742188 79 c 4
 360.948242188 80.46875 443.87109375 278 454.782226562 332 c 5
 465.469726562 276 l 5
 431.469726562 172 381.51953125 -18 209.5 -18 c 4
 70.32421875 -18 40.32421875 100 57.32421875 231 c 4
367.43359375 783 m 5
 364.107421875 824 l 5
 495.708007812 824 625.924804688 871 627.8046875 871 c 5
 640.815429688 849 l 5
 629.580078125 809.430664062 613.766601562 762.083007812 596.665039062 682 c 4
 561.366210938 510.98828125 517.534179688 323.15234375 517.939453125 171 c 4
 518.178710938 80.8701171875 577.700195312 45 666.700195312 57 c 5
 661.700195312 18 l 5
 624.700195312 1 565.700195312 -25 504.595703125 -24 c 4
 448.206054688 -23.0478515625 428.858398438 14 427.454101562 59 c 4
 425.088867188 102 444.92578125 200 457.643554688 247 c 5
 442.8046875 266 l 5
 452.75390625 318 507.564453125 612 510.111328125 675 c 4
 512.943359375 765 483.994140625 783 367.43359375 783 c 5
EndSplineSet
Layer: 2
Layer: 3
SplineSet
58 231 m 0
 81 404 252 622 586 599 c 1
 533 471 l 1
 533 471 457 555 355 527 c 0
 253 499 185 373 169 266 c 0
 153.510742188 162.4140625 181 78 260 79 c 0
 376.007946451 80.4684550184 462 278 473 332 c 5
 485 276 l 5
 450 172 399 -18 216 -18 c 0
 71 -18 41 100 58 231 c 0
375 783 m 1
 371 824 l 1
 511 824 649 871 651 871 c 1
 665.088867188 849 l 1
 653.581054688 809.430664062 637.290663545 762.083073261 620 682 c 0
 584.372556561 510.988271493 539.856521471 323.152177931 542 171 c 0
 543.269724669 80.8701614377 605 45 694 57 c 1
 689 18 l 1
 652 1 593 -25 530 -24 c 0
 469.999203438 -23.0476064038 449 14 447 59 c 0
 444 102 464 200 477 247 c 5
 461 266 l 5
 471 318 526 612 528 675 c 0
 530 765 499 783 375 783 c 1
EndSplineSet
Layer: 4
EndChar

StartChar: h
Encoding: 72 104 4
GlifName: uni0068
Width: 706
VWidth: 79
Flags: W
HStem: 513 98<467.882 511.899> 786 43<63.4873 174.73> 851 20G<336.994 350.301>
VStem: 520.497 111.946<415.376 506.24>
LayerCount: 5
Back
SplineSet
76.6787109375 822 m 1
 212.458007812 825.5390625 350.953125 875 352.970703125 875 c 1
 338.958984375 820.265625 264.52734375 498.028320312 245.654296875 351 c 0
 242.551757812 326.828125 252.56640625 302.497070312 242.958984375 279 c 0
 207.794921875 193 214.396484375 110 216.763671875 10 c 5
 171.763671875 10 106.763671875 4 61.763671875 -10 c 5
 98.154296875 84 146.732421875 255.90625 162.415039062 348 c 0
 178.762695312 444 215.861328125 697.469726562 210.698242188 726 c 0
 203.331054688 766.709960938 144.569335938 759 62.921875 761 c 1
 76.6787109375 822 l 1
189.81640625 213 m 1
 280.806640625 481 442.944335938 613.430664062 569.67578125 611 c 0
 629.337890625 609.85546875 656.90625 586.135742188 656.103515625 523 c 0
 654.619140625 406.188476562 541.84375 171.954101562 584.572265625 90 c 0
 602.171875 56.2421875 669.522460938 63 712.403320312 68 c 1
 716.52734375 29 l 1
 697.201171875 22.1015625 583.19140625 -23.4658203125 519.763671875 -24.3388671875 c 0
 464.798828125 -25.09375 443.021484375 4.7734375 446.512695312 58 c 0
 450.517578125 119.057617188 531.604492188 270.501953125 538.291992188 426 c 0
 540.109375 480.306640625 529.749023438 512.590820312 486.763671875 512.791992188 c 0
 371.327148438 513.331054688 252.6171875 284.228515625 207.291992188 177 c 9
 189.81640625 213 l 1
EndSplineSet
Fore
SplineSet
55.2236328125 -5 m 1
 94.3115234375 95.029296875 147.586914062 262.831054688 170.004882812 360 c 0
 196.579101562 474.55859375 213.254882812 619.930664062 215.669921875 678 c 0
 218.346679688 751 181.590820312 787 63.4873046875 786 c 1
 62.4873046875 829 l 1
 198.911132812 829 335.983398438 871 338.004882812 871 c 1
 350.916015625 850 l 1
 340.59765625 810.3515625 323.961914062 761.412109375 307.004882812 682 c 0
 292.004882812 610 241.004882812 347 232.004882812 291 c 0
 217.004882812 196 214.631835938 125 216.129882812 0 c 1
 175.864257812 0 117.526367188 -10.400390625 72.9375 -18.833984375 c 1
 66.7568359375 -13.98828125 60.822265625 -9.318359375 55.2236328125 -5 c 1
188.004882812 208 m 1
 259.004882812 456 432.235351562 613 551.59375 611 c 0
 607.983398438 610 634.049804688 586 632.443359375 523 c 0
 630.516601562 429.739257812 555.573242188 276.310546875 548.755859375 165 c 0
 543.075195312 66 612.5859375 52 691.088867188 67 c 1
 687.088867188 32 l 1
 651.161132812 6.716796875 561.842773438 -24.9248046875 500.685546875 -25 c 0
 450.390625 -25.0595703125 426.03515625 5 434.8125 57 c 0
 444.9296875 118.166015625 512.720703125 260.551757812 520.497070312 426 c 0
 522.948242188 480 512.95703125 513 472.537109375 513 c 0
 373.84765625 514 234.004882812 291 219.004882812 184 c 9
 188.004882812 208 l 1
EndSplineSet
Layer: 2
Layer: 3
SplineSet
53 -5 m 1
 93.4571428571 95.029154519 148.244892189 262.831166667 171 360 c 0
 197.574468085 474.559006211 214.085106383 619.930434783 216 678 c 0
 218.025974026 751 178.519480519 787 60 786 c 1
 59 829 l 1
 196.472924188 829 336.97833935 871 339 871 c 1
 352.823242188 850 l 1
 342.291992188 810.3515625 325.145507812 761.412109375 308 682 c 0
 293 610 242 347 233 291 c 0
 218 196 216 125 219 0 c 1
 176.85903039 0 118.52154454 -10.4000920047 72 -18.833984375 c 1
 65.3708267731 -13.988069712 59.004955129 -9.31882196208 53 -5 c 1
189 208 m 1
 260 456 442 613 569 611 c 0
 629 610 657 586 656 523 c 0
 655 429.739495798 577 276.31092437 571 165 c 0
 566.070921986 66 637.497070312 52 716 67 c 1
 712 32 l 1
 676.072314946 6.716796875 586.753535354 -24.9245283019 522 -25 c 0
 468.496072403 -25.0598404308 442.246575342 5 451 57 c 0
 461.073684211 118.16576087 531.589473684 260.551630435 538 426 c 0
 540 480 529 513 486 513 c 0
 381 514 235 291 220 184 c 9
 189 208 l 1
EndSplineSet
Layer: 4
EndChar

StartChar: e
Encoding: 69 101 5
GlifName: uni0065
Width: 591
VWidth: 153
Flags: HW
LayerCount: 5
Back
SplineSet
57.0458984375 230 m 0
 86.1884765625 469 262.823242188 596.091796875 391.110351562 611 c 0
 511.579101562 625 605.309570312 560.364257812 581.2734375 428 c 0
 563.515625 330.211914062 452.454101562 278.8671875 335.727539062 262 c 0
 266.34765625 251.974609375 205.39453125 252.940429688 147.919921875 256 c 1
 156.383789062 304 l 1
 156.383789062 304 272.87109375 296.783203125 353.727539062 320 c 0
 413.443359375 337.146484375 467.727539062 387 468.727539062 451 c 24
 469.727539062 523 427.239257812 558.233398438 357.293945312 551 c 0
 282.594726562 543.275390625 210.190429688 462 185.739257812 349 c 0
 164.119140625 249.08203125 154.481445312 83 288.073242188 58 c 4
 387.72265625 39 519.712890625 127 521.712890625 127 c 5
 539.717773438 93 l 5
 517.720703125 66 410.370117188 -23.6279296875 283.024414062 -26 c 4
 175.671875 -28 32.0751953125 26 57.0458984375 230 c 0
EndSplineSet
Fore
SplineSet
61.1806640625 225 m 0
 100.180664062 464 266.67578125 587.198242188 386.303710938 609 c 0
 516.716792775 631.757894737 598.801497796 543.51404194 553.598632812 421 c 4
 513.630308543 309.185662122 395.564936471 273.146044701 292.732421875 258 c 0
 227.99911484 248.435865056 188.296875 252 132.180664062 255 c 1
 140.180664062 300 l 1
 140.180664062 300 253.283203125 297 329.666015625 320 c 0
 386.24609375 337 447.53515625 387 458.551757812 451 c 0
 470.768554688 521.966796875 421.126953125 565.014648438 355.842773438 553 c 0
 285.205078125 540 216.747070312 473 182.180664062 370 c 0
 149.237304688 273.052734375 119.286132812 79.6396484375 254.795898438 54 c 0
 351.337890625 35.7333984375 426.129882812 87.0888671875 467.598632812 119 c 1
 481.598632812 85 l 1
 459.598632812 58 367.598632812 -24 238.065429688 -26 c 0
 118.6640625 -27.8681640625 28.0810546875 22.15625 61.1806640625 225 c 0
EndSplineSet
Layer: 2
Layer: 3
SplineSet
62 230 m 0
 91 469 268.981548626 587.19832551 396 609 c 0
 530 632 610.122070312 551.817382812 566 428 c 0
 526.64453125 317.557617188 418 279 311 262 c 0
 242.142771937 251.060066569 200 253 143 256 c 1
 151 304 l 1
 151 304 258 297 339 320 c 0
 399 337 453 387 464 451 c 0
 476.197265625 521.966796875 430.315429688 568.014648438 361 556 c 0
 286 543 232 477 197 374 c 0
 164.056640625 277.052734375 137.105169791 85.6394468554 291 60 c 0
 394.110451224 42.8214181671 471.53125 85.0888671875 513 117 c 5
 535 83 l 1
 513 56 424 -24 288 -26 c 4
 160.997985119 -27.8676766894 37 26 62 230 c 0
EndSplineSet
Layer: 4
EndChar

StartChar: i
Encoding: 73 105 6
GlifName: uni0069
Width: 433
VWidth: 79
Flags: W
HStem: 530 41<45.3076 167.151> 592 20G<313.321 330.312> 701 151<260.935 345.502>
VStem: 233.34 139.003<727.683 825.317>
LayerCount: 5
Back
SplineSet
256.887695312 782 m 0
 264.29296875 824 303.23046875 852 344.23046875 852 c 0
 394.23046875 852 412.353515625 813 404.948242188 771 c 0
 397.541992188 729 358.60546875 701 317.60546875 701 c 0
 276.60546875 701 249.482421875 740 256.887695312 782 c 0
93.9150390625 555 m 1
 230.280273438 558.499023438 367.254882812 608 370.20703125 608 c 1
 355.478515625 547.962890625 283.796875 315.663085938 271.4453125 171.267578125 c 4
 261.208984375 51.6044921875 320.774414062 58.1220703125 422.639648438 70 c 5
 426.763671875 31 l 5
 407.383789062 24.08203125 282.845703125 -24.521484375 213 -23.55859375 c 4
 153.331054688 -22.736328125 130.047851562 16.830078125 140.318359375 61 c 4
 157.32421875 134.138671875 227.180664062 279.380859375 226.317382812 417 c 0
 225.9375 477.512695312 185.119140625 491.0703125 80.158203125 494 c 1
 93.9150390625 555 l 1
EndSplineSet
Fore
SplineSet
45.3076171875 530 m 1
 45.3076171875 571 l 1
 180.357421875 572 312.380859375 612 314.260742188 612 c 1
 330.311523438 594 l 1
 296.287109375 493.678710938 222.166015625 263.12109375 226.3671875 123 c 0
 228.795898438 42.05078125 316.114257812 54 385.114257812 70 c 1
 381.114257812 31 l 1
 331.114257812 4 258.114257812 -24 191.922851562 -23 c 0
 135.533203125 -22 113.94921875 16.3330078125 120.431640625 61 c 0
 127.206054688 107.682617188 153.07421875 176.879882812 175.473632812 288 c 4
 219.609375 506.95703125 196.84375 531 45.3076171875 530 c 1
233.33984375 782 m 0
 240.364257812 824 277.3203125 852 315.860351562 852 c 0
 362.860351562 852 379.3671875 813 372.342773438 771 c 0
 365.319335938 729 328.362304688 701 289.822265625 701 c 0
 251.282226562 701 226.315429688 740 233.33984375 782 c 0
EndSplineSet
Layer: 2
Layer: 3
SplineSet
43 530 m 1
 43 571 l 1
 179 572 319 612 321 612 c 1
 338.27734375 594 l 1
 303.210486111 493.678793395 226.952982395 263.121235379 233 123 c 0
 236.493418375 42.0506576428 326 54 395 70 c 1
 391 31 l 1
 341 4 268 -24 198 -23 c 0
 138 -22 114.606445312 16.3330078125 121 61 c 0
 127.681640625 107.682617188 154.421875 176.879882812 177 288 c 4
 221.489257812 506.95703125 197 531 43 530 c 1
233 782 m 0
 240 824 279 852 320 852 c 0
 370 852 388 813 381 771 c 0
 374 729 335 701 294 701 c 0
 253 701 226 740 233 782 c 0
EndSplineSet
Layer: 4
EndChar

StartChar: s
Encoding: 83 115 7
GlifName: uni0073
Width: 489
VWidth: 153
Flags: W
HStem: -18 52<146.128 270.789> 592 20G<455.253 468.253>
LayerCount: 5
Back
SplineSet
55.234375 -12 m 1
 62.4052734375 23 70.5146484375 97 80.09375 157 c 1
 94.6572265625 122.356445312 150.151367188 24.654296875 242.34765625 22 c 0
 316.731445312 19.8583984375 348.107421875 60.16015625 356.216796875 110 c 0
 378.157535853 244.846767156 147.591796875 237.981445312 151.646484375 391 c 0
 155.2578125 527.295898438 269.913085938 593.915039062 408 608.802734375 c 0
 450.291992188 613.362304688 489.0703125 607.392578125 528.26953125 603 c 1
 518.569335938 565 500.049804688 474 495.0546875 440 c 1
 457 494 410.700195312 561.184570312 333.861328125 554 c 0
 267.8515625 547.828125 253.279296875 481 261.16796875 436 c 0
 284.551757812 302.610351562 529.41015625 295.657226562 466 107.602539062 c 0
 439.58203125 29.25390625 334.84375 -25 225.591796875 -25 c 0
 112.591796875 -25 55.234375 -12 55.234375 -12 c 1
EndSplineSet
Fore
SplineSet
24.177734375 9 m 1
 31.177734375 42 44.177734375 110 49.177734375 167 c 1
 67.177734375 130 124.187455942 37.2852527057 212.291015625 34 c 0
 270.248046875 31.8388671875 300.798620124 71.9990362192 298.252929688 126 c 0
 292.554629968 246.876314069 110.26953125 297.030273438 133.177734375 442 c 0
 147.412109375 532.081054688 220.177734375 595 351.545898438 609 c 0
 400.252929688 614 455.252929688 612 455.252929688 612 c 1
 468.252929688 594 l 1
 459.252929688 553 447.252929688 499 440.252929688 445 c 1
 398.77734375 519.728515625 347.471679688 546.287109375 298.24609375 546.6875 c 0
 251.809570312 547.065429688 222.401367188 520.7734375 222.125 487 c 0
 220.57421875 390.680664062 396.071289062 290.90625 410.252929688 170 c 0
 423.41744008 57.7653420582 347.252929688 -9 202.208007812 -18 c 0
 124.324835711 -22.8326307454 55.177734375 -11 39.177734375 -7 c 1
 24.177734375 9 l 1
EndSplineSet
Layer: 2
Layer: 3
SplineSet
25 9 m 1
 32 42 45 110 50 167 c 1
 68 130 135.016601562 37.46484375 228 34 c 0
 285.995117188 31.8388671875 307.351217769 79.990472225 307 126 c 0
 306 257 111.09228129 297.030413216 134 442 c 0
 148.234375 532.081054688 221 598 359 612 c 0
 409 617 464 615 464 615 c 1
 477 597 l 1
 468 556 456 502 449 448 c 1
 407.524414062 522.728515625 355.372070312 549.287109375 303 549.6875 c 0
 253.594726562 550.065429688 223.223632812 520.7734375 222.947265625 487 c 0
 222.159179688 390.680664062 417.818359375 294.90625 419 170 c 0
 420.069335938 57.0009765625 336 -17 186 -23 c 0
 105.064453125 -26.2373046875 56 -11 40 -7 c 1
 25 9 l 1
EndSplineSet
Layer: 4
EndChar

StartChar: o
Encoding: 121 111 8
AltUni2: 0000ba.ffffffff.0
GlifName: o
Width: 570
VWidth: 153
Flags: W
VStem: 28.3232 105.167<110.867 328.95>
LayerCount: 5
Back
SplineSet
35.8115234375 246 m 4
 8.5048828125 90.1376953125 76.791015625 -25 234.26171875 -28 c 4
 456.552734375 -32.2353515625 572.991210938 148.540039062 611.565429688 324 c 4
 668.065429688 581 482.70703125 613.396484375 418.876953125 613 c 4
 236.072265625 611.864257812 72.603515625 456 35.8115234375 246 c 4
167.5078125 358 m 4
 201.48046875 495 295.149414062 546.818359375 360.473632812 546 c 4
 472.599609375 544.595703125 531.6640625 415 498.981445312 258 c 4
 472.05859375 128 399.711914062 48.5078125 300.194335938 46 c 4
 183.893554688 43.0693359375 127.688476562 197.421875 167.5078125 358 c 4
EndSplineSet
Fore
SplineSet
28.3232421875 190 m 0
 25.478515625 70.2822265625 81.8359375 -24.1748046875 215.290039062 -25 c 0
 415.954725513 -26.2407828362 531.915039062 164.005859375 545.522460938 367 c 4
 556.8515625 536.006835938 492.3984375 613 372.435546875 613 c 0
 186.754882812 613 34.0751953125 432.09765625 28.3232421875 190 c 0
300.48828125 548.783203125 m 0
 409.473632812 573.995117188 451.458193905 472.484661567 443.393554688 331 c 4
 434.6484375 177.577148438 374.884765625 44.146484375 265.584960938 34.134765625 c 0
 173.71993722 25.7200499441 132.777611042 113.386102936 133.490234375 246 c 0
 134.4609375 426.640625 223.784179688 531.0390625 300.48828125 548.783203125 c 0
EndSplineSet
Layer: 2
Layer: 3
SplineSet
34.6044921875 190 m 0
 31.760139984 70.2822298715 94.1171875 -24.1748046875 237 -25 c 4
 468.610351562 -26.337890625 582.571289062 164.005859375 596.178710938 367 c 0
 607.5078125 536.006835938 535.0546875 613 416 613 c 0
 226.548828125 613 40.3564453125 432.09765625 34.6044921875 190 c 0
319 541.783203125 m 4
 450.662405313 566.994974537 483.122072845 446.208501225 473.049804688 305 c 0
 464.305309516 181.576725668 407.520396848 65.4646910884 321 47.134765625 c 0
 210.632867281 24.6508179561 148.930729247 123.41616602 149.771484375 256 c 0
 150.741814167 410.640592266 226.336253721 524.039207154 319 541.783203125 c 4
EndSplineSet
Layer: 4
EndChar

StartChar: b
Encoding: 66 98 9
GlifName: b
Width: 642
VWidth: 79
Flags: W
HStem: 525 89<375.729 460.562> 784 40<44.5713 153.731>
LayerCount: 5
Back
SplineSet
625.9453125 374.72265625 m 0
 603.743164062 159.009765625 440.651367188 -50.982421875 75.8671875 -17.64453125 c 1
 148.474609375 111.239257812 l 1
 148.474609375 111.239257812 230.543945312 51.0732421875 310.965820312 51.93359375 c 0
 442.525390625 53.3408203125 485.989257812 219.526367188 503.275390625 331.59765625 c 0
 519.24609375 435.140625 503.258789062 520.069335938 434.5703125 521.655273438 c 0
 334.612304688 523.962890625 231.581054688 326.372070312 212.65234375 222.0859375 c 1
 193.686523438 262.369140625 l 5
 216.552734375 366.780273438 314.9296875 609.474609375 477.859375 614.266601562 c 0
 592.809570312 617.647460938 639.474609375 506.176757812 625.9453125 374.72265625 c 0
99.3173828125 800 m 1
 181.96484375 798 356.84375 850 356.84375 850 c 1
 285.220703125 682 215.416992188 258.759765625 207.53125 162 c 0
 200.787109375 79.2470703125 196.872070312 36.232421875 281.016601562 25 c 1
 356.2578125 33 l 1
 326.893554688 6.607421875 139.06640625 -27.11328125 75.3212890625 -15 c 1
 114.703125 160.403320312 172.900390625 493.077148438 199.62890625 702 c 0
 205.916015625 749 155.208984375 742 83.0322265625 741 c 1
 99.3173828125 800 l 1
EndSplineSet
Fore
SplineSet
44.5712890625 784 m 1
 160.088867188 784 187.158203125 766 184.315429688 675 c 0
 181.768554688 612 146.485351562 381 136.485351562 330 c 0
 118.602539062 239 86.0908203125 98 58.787109375 5 c 1
 77.4853515625 -14 l 1
 428.895507812 -35 578.895507812 159 600.895507812 375 c 0
 614.895507812 506 575.895507812 617 454.953125 614 c 0
 305.448242188 610.18359375 199.485351562 404 179.485351562 296 c 1
 195.485351562 256 l 1
 214.372070312 353 313.172851562 526.61328125 406.219726562 525 c 0
 463.909179688 524 498.349609375 477.850585938 502.895507812 411 c 0
 510.103515625 304.99609375 448.70703125 104.940429688 335.0859375 77 c 0
 213.802734375 47.17578125 117.485351562 151 117.485351562 151 c 1
 76.4853515625 -12 l 1
 120.485351562 -7 142.485351562 0 184.317382812 0 c 1
 178.119140625 125 194.291015625 232 201.485351562 305 c 1
 199.485351562 357 l 1
 210.485351562 396 224.485351562 441 238.349609375 487 c 0
 272.344726562 634.598632812 301.8984375 748.90625 330.689453125 850 c 1
 315.731445312 871 l 1
 313.8515625 871 140.571289062 824 39.5712890625 824 c 1
 44.5712890625 784 l 1
EndSplineSet
Layer: 2
Layer: 3
SplineSet
61 784 m 1
 177 784 206 766 204 675 c 0
 202 612 167 381 157 330 c 0
 139 239 106 98 78 5 c 1
 98 -14 l 1
 463 -38 610 159 632 375 c 0
 646 506 613 617 488 614 c 0
 328.995480202 610.183891525 220 404 200 296 c 5
 216 256 l 5
 235 353 335 524 434 522 c 0
 489 521 524.400390625 481.004882812 525 408 c 0
 525.86240418 302.998779726 475.250976562 97.1279296875 356 67 c 0
 237.949336283 37.1753210033 138 151 138 151 c 1
 97 -12 l 1
 141 -7 163 0 207 0 c 1
 199 125 215 232 222 305 c 5
 220 357 l 5
 231 396 245 441 259 487 c 0
 293.50390625 634.598632812 323.658203125 748.90625 353.1484375 850 c 1
 337 871 l 1
 335 871 157 824 56 824 c 1
 61 784 l 1
EndSplineSet
Layer: 4
EndChar

StartChar: period
Encoding: 14 46 10
GlifName: period
Width: 203
VWidth: 79
Flags: W
HStem: -27 140<68.1052 159.415>
VStem: 43.96 134<-8.5 88.648>
LayerCount: 5
Back
SplineSet
461 429 m 1053
547.62890625 606.931640625 m 5,0,1
 560.979304676 545.140392989 555.783202328 486.432928999 547.3359375 427.185546875 c 5,11,12
 461 429 l 5,0,0
 453.53125 451.228515625 446.063476562 473.458007812 435 490.4765625 c 5,0,0
 306.106445312 489.979492188 258.503299742 424.487976481 246 397 c 5,15,-1
 241 444 l 5,16,17
 284.417257879 513.413357003 404.184570312 607.883789062 501 609.767578125 c 4,0,0
 529.2578125 610.317382812 547.62890625 606.931640625 547.62890625 606.931640625 c 5,0,1
52 63 m 5,22,23
 63.8515625 61.5966796875 74.8759765625 60.8740234375 85.05859375 60.8740234375 c 4,24,25
 140.174804688 60.8740234375 170.624023438 82.0439453125 174 131 c 5,26,-1
 288 150 l 5,27,28
 287.791992188 146.228515625 287.69140625 142.60546875 287.69140625 139.124023438 c 4,29,30
 287.69140625 62.9560546875 356.818359375 48.7841796875 404.6640625 48.7841796875 c 4,31,32
 407.716796875 48.7841796875 410.525390625 48.8828125 413 49 c 5,33,-1
 423 1 l 5,34,-1
 60 1 l 5,35,-1
 52 63 l 5,22,23
49 595 m 5,50,51
 64.4892578125 593.95703125 80.77734375 593.513671875 97.2822265625 593.513671875 c 4,52,53
 191.596679688 593.513671875 293 608 293 608 c 5,54,55
 293 608 276 486 270 460 c 5,56,57
 293 468 l 5,60,61
 290.176757812 402.124023438 286.036132812 348.6171875 286.036132812 279 c 4,64,65
 286.036132812 192.529296875 286.936523438 99.921875 300 0 c 5,66,-1
 165 0 l 5,67,68
 175.778320312 143.716796875 181.91015625 285.884765625 181.91015625 377.525390625 c 4,69,70
 181.91015625 413.413085938 180.969726562 441.552734375 179 459 c 4,71,72
 174 504 138 532 56 534 c 5,73,-1
 49 595 l 5,50,51
EndSplineSet
Fore
SplineSet
43.9599609375 43 m 4
 51.9599609375 87 82.9599609375 113 114.959960938 113 c 4
 165.959960938 113 185.959960938 78 177.959960938 34 c 0
 169.959960938 -10 140.959960938 -27 98.9599609375 -27 c 4
 66.9599609375 -27 35.9599609375 -1 43.9599609375 43 c 4
EndSplineSet
Layer: 2
Layer: 3
SplineSet
35 51 m 0
 43 95 83 123 125 123 c 0
 176 123 196 88 188 44 c 0
 180 0 140 -29 98 -29 c 0
 56 -29 27 7 35 51 c 0
EndSplineSet
Layer: 4
EndChar

StartChar: t
Encoding: 84 116 11
GlifName: t
Width: 390
VWidth: 79
Flags: HW
HStem: -27 86<174.43 241.363> 509 67<244.851 321.791> 516 63<47.2842 121.825 287.959 359.185>
VStem: 37.2842 332.9
LayerCount: 5
Back
Fore
SplineSet
37.2841796875 515 m 1xb0
 47.2841796875 578 l 1
 93.2841796875 578 114.284179688 576 153.284179688 578 c 1xb0
 177.1171875 619 209.34375 733 221.036132812 772 c 1
 263.420898438 780 301.094726562 787 302.03515625 787 c 1
 296.422851562 768.083007812 267.004882812 668.017578125 244.850585938 575 c 1
 390.184570312 575 l 1
 389.184570312 537 l 1
 330.969726562 535.788085938 271.754882812 518.154296875 233.540039062 500 c 1xd0
 204.241210938 388.235351562 164.609375 201.584960938 160.758789062 139 c 0
 156.732421875 76.015625 184.825195312 62.2822265625 227.184570312 58 c 0
 255.387695312 55.3330078125 283.208984375 56 320.184570312 65 c 1
 317.184570312 28 l 1
 281.184570312 3.6982421875 195.184570312 -28 134.552734375 -28 c 0
 78.7412109375 -28 46.794921875 1.966796875 48.2841796875 57 c 0
 49.8544921875 115 118.245117188 289 133.284179688 434 c 0
 138.66796875 486.3359375 119.284179688 527 37.2841796875 515 c 1xb0
EndSplineSet
Layer: 2
Layer: 3
SplineSet
35 516 m 5
 45 579 l 5
 91 579 112 577 151 579 c 5
 175 620 208 734 220 773 c 1
 265 781 305 788 306 788 c 1
 300.2421875 769.083007812 270.073242188 669.017578125 247.551757812 576 c 5
 376 576 l 5
 365 519 l 5
 237.336914062 509 l 5
 207.42578125 397.235351562 166.391424887 202.584856186 163 140 c 0
 159.424644763 77.0160514009 189.465594951 63.2822265625 233 59 c 0
 261.203536804 56.3330078125 289.024096386 57 326 66 c 1
 323 29 l 1
 287 4.69811320755 201 -27 137 -27 c 0
 77.6259765625 -27 44.5102209793 2.96685355756 46 58 c 0
 47.5700934579 116 116.083984375 290 131 435 c 4
 136.383789062 487.3359375 117 528 35 516 c 5
EndSplineSet
Layer: 4
EndChar

StartChar: p
Encoding: 80 112 12
GlifName: p
Width: 696
VWidth: 79
Flags: W
HStem: -299 21G<12.8105 74.7261> -262 39<218.449 316.555> 530 41<25.3477 134.226> 594 20G<290.92 311.044>
VStem: 563.141 106.989<313.608 508.03>
LayerCount: 5
Back
SplineSet
27 -302 m 5
 13.1494140625 -290 l 5
 31.869140625 -212.661132812 128.450879894 174.352434668 151 288 c 4
 188 476 195 532 42 530 c 5
 42 571 l 5
 178 572 290 606 312 614 c 5
 322.588867188 594 l 5
 310.197265625 560.294921875 292 514 274 464 c 4
 256.635877567 415.766326574 245 386 229 343 c 5
 237 341 244 340 252 338 c 5
 245 322 234 308 230 289 c 4
 216 222 151 30 158 -110 c 4
 162 -189 213 -213 320 -216 c 5
 320 -255 l 5
 199 -262 101 -281 27 -302 c 5
136 -3 m 5
 176 127 l 5
 176 127 229 67 320 68 c 4
 485 69 556 238 554 408 c 4
 553 487 531 538 472 537 c 4
 351 535 226 283 214 231 c 5
 168 199 l 5
 208 317 328 618 528 618 c 4
 629 618 672 535 671 432 c 4
 669 223 491 -38 136 -3 c 5
EndSplineSet
Fore
SplineSet
25.703125 -299 m 1
 12.810546875 -287 l 1
 21.2666015625 -251.484375 56.91796875 -153.663085938 84.1396484375 -44 c 0
 116.12890625 84.8642578125 148.400390625 226.541992188 160.513671875 288 c 0
 197.282226562 476 175.654296875 532 25.34765625 530 c 1
 20.34765625 571 l 1
 155.397460938 572 280.538085938 606 301.301757812 614 c 1
 311.043945312 594 l 1
 299.0390625 560.294921875 277.624023438 518 264.174804688 464 c 0
 251.828125 414.428710938 239.358398438 366 223.86328125 323 c 1
 231.362304688 321 248.483398438 340 255.982421875 338 c 1
 249.233398438 322 238.745117188 308 234.784179688 289 c 0
 220.915039062 222 164.360351562 -12.2822265625 164.086914062 -102 c 0
 163.79296875 -198.157226562 223.938476562 -220 324.487304688 -223 c 1
 316.5546875 -262 l 1
 202.825195312 -261 123.749023438 -272 25.703125 -299 c 1
133.334960938 -3 m 1
 182.309570312 127 l 1
 182.309570312 127 231.495117188 70 317.045898438 71 c 0
 472.15625 72 563.383789062 254.98828125 563.140625 425 c 4
 563.036132812 498 532.209960938 541 473.887695312 537 c 4
 360.28515625 529.208984375 230.959960938 283 219.129882812 231 c 1
 176.551757812 199 l 1
 215.400390625 317 333.384765625 618 521.384765625 618 c 4
 628.129882812 618 671.129882812 535 670.129882812 432 c 4
 668.129882812 223 467.129882812 -38 133.334960938 -3 c 1
EndSplineSet
Layer: 2
Layer: 3
SplineSet
11 -299 m 1
 -2.8505859375 -287 l 1
 5.74609375 -251.484375 45.7622240963 -153.663400152 73.4885678175 -44.0000044098 c 0
 106.069603603 84.8646975855 138.805905226 226.541762342 151 288 c 0
 188 476 175 532 22 530 c 1
 17 571 l 1
 153 572 290 606 312 614 c 1
 322.588867188 594 l 1
 310.197265625 560.294921875 289 514 271 464 c 4
 253.635742188 415.766601562 234 366 218 323 c 1
 226 321 244 340 252 338 c 1
 245 322 234 308 230 289 c 0
 216 222 155.282000122 -12.2819061671 156 -102 c 0
 156.76953125 -198.157226562 221 -220 328 -223 c 1
 320 -262 l 1
 199 -261 115 -272 11 -299 c 1
136 -3 m 1
 176 127 l 1
 176 127 229 67 320 68 c 0
 485 69 566 251 564 421 c 0
 563 500 534 541 472 537 c 0
 351.234544108 529.208680265 226 283 214 231 c 1
 168 199 l 1
 208 317 328 618 528 618 c 0
 639 618 682 535 681 432 c 0
 679 223 491 -38 136 -3 c 1
EndSplineSet
Layer: 4
EndChar

StartChar: v
Encoding: 86 118 13
GlifName: v
Width: 649
VWidth: 79
Flags: W
HStem: 530 42<32.0742 142.669> 592 20G<252.614 310.811>
VStem: 214.461 73.5244<58.8773 448.721>
LayerCount: 5
Back
SplineSet
9 530 m 5
 9 572 l 5
 92 577 154 581 248 612 c 5
 267.939453125 594 l 5
 272.549804688 529.66796875 282.875410826 411.3103774 305 297 c 4
 319 224 343 104 366 51 c 4
 373 34 337 78 337 78 c 5
 423 182 522 325 546 472 c 4
 555 525 527 545 449 544 c 5
 453 576 l 5
 486 600 555 617 584 616 c 4
 649 615 660 583 657 556 c 4
 638 377 517 204 352 -4 c 5
 322 -7 271 -12 235 -22 c 5
 238.421875 79.18359375 236.702148438 181.313476562 219.098632812 269 c 4
 170.328125 511.93359375 116.949629402 531.087474732 9 530 c 5
EndSplineSet
Fore
SplineSet
32.07421875 530 m 1
 27.07421875 572 l 5
 110.07421875 577 208.26953125 581 296.958007812 612 c 1
 310.810546875 594 l 1
 305.063476562 529.66796875 292.357421875 411.90234375 287.985351562 297 c 0
 285.172851562 223.083984375 291.583007812 104 312.642578125 51 c 0
 319.04296875 34 285.66796875 78 285.66796875 78 c 1
 367.608398438 182 510.677734375 325 534.677734375 472 c 0
 543.677734375 525 516.208984375 545 442.877929688 544 c 1
 446.9765625 576 l 1
 478.250976562 600 543.677734375 617 572.677734375 616 c 0
 637.677734375 615 648.677734375 583 645.677734375 556 c 0
 626.677734375 377 456.201171875 204 298.900390625 -4 c 1
 270.668945312 -7 222.67578125 -12 188.73046875 -22 c 1
 205.237304688 79.18359375 210.594726562 179.830078125 214.4609375 269 c 0
 225.022460938 512.509765625 140.013671875 531.087890625 32.07421875 530 c 1
EndSplineSet
Layer: 2
Layer: 3
SplineSet
29 530 m 1
 24 572 l 5
 107 577 209 581 303 612 c 1
 317.939453125 594 l 1
 312.549804688 529.66796875 300.358398438 411.90234375 297 297 c 0
 294.83984375 223.083984375 303 104 326 51 c 0
 333 34 297 78 297 78 c 1
 383 182 532 325 556 472 c 0
 565 525 537 545 459 544 c 1
 463 576 l 1
 496 600 565 617 594 616 c 0
 659 615 670 583 667 556 c 0
 648 377 477 204 312 -4 c 1
 282 -7 231 -12 195 -22 c 1
 211.421875 79.18359375 215.98828125 179.830078125 219.098632812 269 c 0
 227.592773438 512.509765625 136.94921875 531.087890625 29 530 c 1
EndSplineSet
Layer: 4
EndChar

StartChar: m
Encoding: 77 109 14
GlifName: m
Width: 1059
VWidth: 79
Flags: W
HStem: 513 98<463.688 504.716 793.139 834.208> 531 40<59.8672 159.531>
VStem: 513.313 43.9971<283.637 351.365> 842.313 111.946<412.84 506.24>
LayerCount: 5
Back
SplineSet
65.7568359375 555 m 1x30
 201.536132812 558.5390625 340.03125 608 342.048828125 608 c 1
 328.037109375 553.265625 293.60546875 498.028320312 274.732421875 351 c 0
 271.629882812 326.828125 271.64453125 302.497070312 262.037109375 279 c 0
 226.874023438 193 243.474609375 93 245.841796875 -7 c 1
 200.841796875 -7 125.841796875 -15 80.841796875 -20 c 1
 117.232421875 74 159.271484375 196 175.493164062 288 c 0
 181.840820312 324 195.939453125 430.469726562 190.776367188 459 c 0
 183.409179688 499.709960938 133.647460938 492 52 494 c 1
 65.7568359375 555 l 1x30
580.89453125 213 m 1
 671.884765625 481 834.022460938 613.430664062 960.75390625 611 c 0xb0
 1020.41601562 609.85546875 1047.984375 586.135742188 1047.18261719 523 c 0
 1045.69726562 406.188476562 932.922851562 171.954101562 975.650390625 90 c 0
 993.25 56.2421875 1060.60058594 63 1103.48144531 68 c 1
 1107.60546875 29 l 1
 1088.27929688 22.1015625 974.26953125 -23.4658203125 910.841796875 -24.3388671875 c 0
 855.876953125 -25.09375 834.099609375 4.7734375 837.590820312 58 c 0
 841.595703125 119.057617188 922.682617188 270.501953125 929.370117188 426 c 0
 931.1875 480.306640625 920.827148438 512.590820312 877.841796875 512.791992188 c 0
 762.405273438 513.331054688 643.696289062 284.228515625 598.370117188 177 c 9
 580.89453125 213 l 1
220.89453125 213 m 1
 311.884765625 481 474.022460938 613.430664062 600.75390625 611 c 0
 660.416015625 609.85546875 697.590820312 585.27734375 687.182617188 523 c 0
 664.84765625 389.3671875 619.436523438 213.7109375 643.481445312 0 c 1
 579.727539062 0.9287109375 528.603515625 -2.08984375 467.841796875 -11.3388671875 c 1
 514.061523438 108.877929688 560.661132812 223.49609375 569.370117188 426 c 0
 571.1875 480.306640625 560.827148438 512.590820312 517.841796875 512.791992188 c 0
 402.405273438 513.331054688 283.696289062 284.228515625 238.370117188 177 c 9
 220.89453125 213 l 1
EndSplineSet
Fore
SplineSet
527.86328125 202 m 1xb0
 602.138671875 470 756.872070312 613 874.350585938 611 c 0
 930.740234375 610 955.866210938 586 954.259765625 523 c 0
 952.205078125 406 831.356445312 190 882.938476562 90 c 0
 901.205078125 56 952.205078125 54 1008.20507812 68 c 1
 1004.20507812 32 l 1
 964.205078125 7 881.205078125 -26 817.8125 -24 c 0
 766.14453125 -22.3583984375 741.049804688 6 750.060546875 58 c 0
 761.045898438 119 833.98828125 261 842.313476562 426 c 0
 844.764648438 480 835.713867188 513 795.293945312 513 c 0
 697.544921875 514 571.189453125 299 556.032226562 199 c 1
 527.86328125 202 l 1xb0
59.8671875 531 m 1x70
 55.8671875 571 l 1
 190.907226562 571 322.591796875 613 324.471679688 613 c 1
 338.37109375 594 l 1
 327.681640625 561 311.21484375 515 289.784179688 444 c 0
 275.55859375 396.875 254.212890625 335 237.212890625 287 c 1
 252.212890625 295 l 1
 237.212890625 198 230.008789062 125 231.485351562 -2 c 5
 190.375976562 -2.1259765625 126.220703125 -10.1298828125 82.22265625 -17.33984375 c 5
 70.8671875 -2 l 1
 106.709960938 76 164.379882812 196 183.212890625 288 c 0
 220.262695312 467.397460938 211.1640625 531 59.8671875 531 c 1x70
209.212890625 208 m 1
 282.212890625 451 425.051757812 613 544.411132812 611 c 0
 600.799804688 610 626.866210938 586 625.259765625 523 c 0
 624.942382812 493 616.186523438 465 610.260742188 438 c 1
 597.6171875 398 563.892578125 320 556.931640625 284 c 5
 552.833007812 252 558.568359375 261 557.310546875 231 c 0
 554.194335938 203 555.754882812 84 563.305664062 -2 c 1
 506.89453125 -3 454.223632812 -6 409.990234375 -11 c 1
 421.1875 70 504.98828125 261 513.313476562 426 c 0
 515.764648438 480 505.774414062 513 465.353515625 513 c 0xb0
 364.784179688 514 253.212890625 291 237.212890625 184 c 1
 209.212890625 208 l 1
EndSplineSet
Layer: 2
Layer: 3
SplineSet
548 202 m 1
 624 470 787 613 912 611 c 0
 972 610 999 586 998 523 c 0
 997 406 871 190 927 90 c 0
 946 56 997 54 1053 68 c 1
 1049 32 l 1
 1009 7 926 -26 859 -24 c 0
 804.015625 -22.3583984375 777 6 786 58 c 0
 797 119 873 261 880 426 c 0
 882 480 872 513 829 513 c 0
 725 514 593 299 578 199 c 1
 548 202 l 1
58 531 m 1
 54 571 l 1
 190 571 325 613 327 613 c 1
 342 594 l 1
 331 561 314 515 292 444 c 0
 277.397849288 396.874877246 256 335 239 287 c 1
 254 295 l 1
 239 198 232 125 235 -2 c 1
 192.163085938 -1.1259765625 127.69140625 -7.1298828125 81 -17.33984375 c 1
 69 -2 l 1
 106 76 166 196 185 288 c 0
 222.049413448 467.397159853 212 531 58 531 c 1
211 208 m 1
 284 451 434 613 561 611 c 0
 621 610 649 586 648 523 c 0
 648 493 639 465 633 438 c 1
 620 398 585 320 578 284 c 5
 574 252 580 261 579 231 c 0
 576 203 579 84 588 -2 c 1
 528 -3 472 -6 425 -11 c 1
 436 70 523 261 530 426 c 0
 532 480 521 513 478 513 c 0
 371 514 255 291 239 184 c 1
 211 208 l 1
EndSplineSet
Layer: 4
EndChar

StartChar: g
Encoding: 71 103 15
GlifName: g
Width: 653
VWidth: 153
Flags: HW
HStem: -283.494 74.5635<70.5275 258.087> 596 20G<340.646 452.47>
LayerCount: 5
Back
SplineSet
-74.228515625 -231 m 5
 -36.228515625 -77 l 5
 -3.07126598997 -155.439370026 66.5420412795 -211.518061405 188.661132812 -208.930664062 c 4
 280.982421875 -206.962884339 393.0234375 -173.499023438 399.971679688 -82 c 4
 408.036132812 18.111328125 27.5334258128 -33.1887460522 63.8857421875 121 c 4
 85.8502658675 214.162766547 219.447265625 254.444335938 301.78125 277 c 5
 336.248046875 250 l 5
 251.006835938 230.90625 173.850356997 209.383838435 157.653320312 147 c 4
 128.334924894 30.8364885861 531.159124309 127.979119684 506.922851562 -52 c 4
 491.119583787 -163.94539299 311.211902567 -285.866723757 106.897460938 -283.494140625 c 4
 41.8134765625 -282.723632812 -22.4228515625 -275.107421875 -63 -251.736328125 c 5
 -74.228515625 -231 l 5
94.771484375 377 m 4
 110.430664062 538.78125 273.771484375 616 407.520507812 616 c 4
 497.419921875 616 585.713867188 573.774414062 569.567382812 456 c 4
 550.099609375 314 405.9765625 250.8203125 278.56640625 241 c 4
 174.771484375 233 85.8681640625 285.015625 94.771484375 377 c 4
213.771484375 449 m 4
 184.331054688 360.108398438 235.459960938 278.498046875 324.3359375 290 c 4
 405.993164062 300.567382812 447.249023438 359.64453125 455.723632812 431 c 4
 464.9140625 508.389648438 426.798828125 580.8359375 345.053710938 569 c 4
 295.169921875 561.77734375 239.314453125 526.122070312 213.771484375 449 c 4
527.270507812 501 m 5
 573.087890625 511.841796875 638.3359375 563.752929688 728.048828125 626 c 5
 741.94921875 613 l 5
 732.416015625 565.985351562 724.374023438 529.12890625 719.048828125 494 c 5
 660.048828125 491.75 572.104492188 487 524.165039062 485 c 5
 527.270507812 501 l 5
EndSplineSet
Fore
SplineSet
-114.228515625 -231 m 1
 -76.228515625 -77 l 1
 -43.0712890625 -155.439453125 26.5419921875 -211.517578125 148.661132812 -208.930664062 c 0
 240.982421875 -206.962890625 353.0234375 -173.499023438 359.971679688 -82 c 0
 368.036132812 18.111328125 27.5334258128 -33.1887460522 63.8857421875 121 c 0
 85.8502658675 214.162766547 219.447265625 254.444335938 301.78125 277 c 1
 336.248046875 250 l 1
 251.006835938 230.90625 173.850356997 209.383838435 157.653320312 147 c 0
 128.334924894 30.8364885861 491.159179688 127.979492188 466.922851562 -52 c 0
 451.119140625 -163.9453125 271.211914062 -285.8671875 66.8974609375 -283.494140625 c 0
 1.8134765625 -282.723632812 -62.4228515625 -275.107421875 -103 -251.736328125 c 1
 -114.228515625 -231 l 1
94.771484375 377 m 0
 110.430664062 538.78125 273.771484375 616 407.520507812 616 c 0
 497.419921875 616 585.713867188 573.774414062 569.567382812 456 c 0
 550.099609375 314 405.9765625 250.8203125 278.56640625 241 c 0
 174.771484375 233 85.8681640625 285.015625 94.771484375 377 c 0
213.771484375 449 m 0
 184.331054688 360.108398438 235.459960938 278.498046875 324.3359375 290 c 0
 405.993164062 300.567382812 447.249023438 359.64453125 455.723632812 431 c 0
 464.9140625 508.389648438 426.798828125 580.8359375 345.053710938 569 c 0
 295.169921875 561.77734375 239.314453125 526.122070312 213.771484375 449 c 0
527.270507812 501 m 1
 573.087890625 511.841796875 638.3359375 563.752929688 728.048828125 626 c 1
 741.94921875 613 l 1
 732.416015625 565.985351562 724.374023438 529.12890625 719.048828125 494 c 1
 660.048828125 491.75 572.104492188 487 524.165039062 485 c 1
 527.270507812 501 l 1
EndSplineSet
Layer: 2
SplineSet
-157 -62 m 1
 -37 -36 l 1
 -23.203125 -160.42578125 62.9208984375 -238.692382812 173 -249.930664062 c 0
 264.10546875 -259.232421875 349.358398438 -209.717773438 372.061523438 -138 c 0
 398.9375 -53.099609375 353.920898438 40.2158203125 219 56.52734375 c 0
 172.002929688 62.208984375 106.71484375 51.8798828125 64 40 c 1
 43.482421875 71 l 1
 86.21484375 143.736328125 107.193359375 179.094726562 136 240 c 1
 174 226 l 1
 165 203 146 138 144 115 c 1
 386.296875 123.514648438 510.099609375 2.5439453125 499.874023438 -115 c 0
 486.2890625 -271.161132812 299.749023438 -312.278320312 155 -297.333984375 c 0
 -21.04296875 -279.159179688 -154.099609375 -190.96484375 -157 -62 c 1
-1 380 m 0
 18 521 173 611 315 611 c 0
 400 611 497 561 483 443 c 0
 464 291 297.845703125 215.53125 162 222 c 0
 57 227 -14 288 -1 380 c 0
110 444 m 0
 81.7861328125 346.118164062 136.415039062 262.380859375 235 269 c 0
 329.23046875 275.327148438 364.735351562 344.541992188 372 416 c 0
 378.90625 483.389648438 337.830078125 576.8359375 241 565 c 0
 187.887695312 558.76953125 134.4921875 522.869140625 110 444 c 0
447 520 m 1
 474.444335938 521.841796875 551.287109375 557.752929688 651 613 c 1
 666.900390625 598 l 1
 661.3671875 550.985351562 655.325195312 471.12890625 657 446 c 1
 601 468.75 495 488 444 488 c 1
 447 520 l 1
EndSplineSet
Layer: 3
SplineSet
-117 -72 m 1
 -17 4 l 1
 -2.3408203125 -100.872070312 49.64453125 -196.384765625 153 -230.930664062 c 0
 262.532226562 -267.540039062 349.358398438 -227.717773438 372.061523438 -176 c 0
 409.924804688 -94.0498046875 391.4921875 15.8134765625 189 24.52734375 c 0
 84.212890625 29.2734375 52.638671875 65.33984375 63.482421875 111 c 0
 70.576171875 140.868164062 107.193359375 189.094726562 156 240 c 1
 194 226 l 1
 145 163 144.223632812 116.444335938 214 110 c 0
 531.140625 80.708984375 531.099609375 -76.4560546875 489.874023438 -174 c 0
 445.975585938 -277.868164062 274.158203125 -313.997070312 174 -297.494140625 c 0
 13.12890625 -270.98828125 -84.306640625 -181.493164062 -117 -72 c 1
2 380 m 0
 21 521 173 611 315 611 c 0
 400 611 493 563 479 445 c 0
 460 293 297.845703125 215.53125 162 222 c 0
 57 227 -11 288 2 380 c 0
120 444 m 0
 95.5595703125 345.108398438 136.5234375 260.932617188 235 269 c 0
 312.23046875 275.327148438 353.788085938 344.64453125 362 416 c 0
 370.90625 493.389648438 327.830078125 576.8359375 241 565 c 0
 188.013671875 557.77734375 139.4921875 522.869140625 120 444 c 0
447 525 m 1
 474.444335938 526.841796875 553.287109375 555.752929688 653 611 c 1
 666.900390625 598 l 1
 657.3671875 550.985351562 649.325195312 507.12890625 644 472 c 1
 585 493.75 495 498 444 498 c 1
 447 525 l 1
EndSplineSet
Layer: 4
EndChar

StartChar: H
Encoding: 40 72 16
GlifName: H_
Width: 951
VWidth: 79
Flags: HW
HStem: 0 140<626.46 744.46> 1 48<302.924 313.598 781.647 792.46> 367 66<237.59 756.489> 739 61<169.59 235.696 646.783 712.058> 749 51<403.936 467.243 881.094 942.46>
LayerCount: 5
Back
Fore
SplineSet
159.58984375 739 m 1
 164.58984375 800 l 1
 276.58984375 792 355.58984375 795 462.243164062 800 c 1
 462.643554688 749 l 1
 448.34375 749.845703125 363.140625 730.571289062 345.881835938 661.598632812 c 0
 292.266601562 447.333984375 284.428046121 321.503509735 265.15234375 149.961914062 c 0
 254.794166966 57.7806726391 333.020507812 50.0595703125 348.939453125 51 c 5
 340.33984375 0 l 1
 114.58984375 0 l 1
 39.58984375 0 l 1
 50.58984375 61 l 1
 120.64453125 57.263671875 148.386629767 75.5377494349 163.34375 127.71875 c 0
 209 287 242 531 249.606445312 663.833007812 c 0
 252.075195312 706.952148438 236.143554688 742.9765625 159.58984375 739 c 1
226.58984375 360 m 1
 237.58984375 440 l 1
 590.69140625 441 l 1
 734.459960938 448 l 1
 721.459960938 363 l 1
 226.58984375 360 l 1
481.080078125 0 m 1
 491.693359375 58 l 1
 554.052734375 54.4599609375 585.664567048 73.1111367741 601.124023438 123.892578125 c 0
 661.434108527 322 669 460 696.548828125 679.845703125 c 0
 701.668945312 720.705078125 677.924804688 752.806640625 608.318359375 749 c 1
 611.783203125 800 l 1
 721.459960938 790 804.459960938 794 911.459960938 800 c 1
 907.459960938 759 l 1
 891.400390625 759.892578125 820 734 806.5078125 691.555664062 c 24
 739 479 716.685546875 196.59375 712.869140625 130.48828125 c 0
 708.11168389 48.082508147 780.079101562 49.0322265625 798.459960938 50 c 1
 791.459960938 0 l 1
 553.459960938 0 l 1
 481.080078125 0 l 1
EndSplineSet
Layer: 2
Layer: 3
SplineSet
20 0 m 1
 21 61 l 1
 96 57 132 89 147 137 c 1
 268 146 l 1
 249 51 325 50 343 51 c 1
 344 0 l 1
 20 0 l 1
95 0 m 1
 95 0 129 71 146 136 c 0
 189 297 236 583 259 768 c 1
 407 793 l 1
 347 593 275 208 268 145 c 0
 263 101 233 49 315 49 c 1
 290 1 l 1
 95 0 l 1
165 739 m 1
 170 800 l 1
 282 792 361 795 470 800 c 1
 471 749 l 1
 453 750 384 749 369 654 c 1
 245 663 l 1
 246 711 242 743 165 739 c 1
227 367 m 1
 238 433 l 1
 648 434 l 1
 793 441 l 1
 780 370 l 1
 227 367 l 1
515 0 m 1
 515 58 l 1
 590 54 633 92 645 140 c 1
 763 139 l 1
 744 49 810 49 829 50 c 1
 830 0 l 1
 515 0 l 1
592 0 m 1
 592 0 626 71 643 136 c 0
 686 297 730 583 753 768 c 1
 900 793 l 1
 840 593 772 208 764 145 c 0
 758 101 729 49 811 49 c 1
 786 1 l 1
 592 0 l 1
658 739 m 1
 661 800 l 1
 775 790 858 794 965 800 c 1
 961 749 l 1
 943 750 883 749 862 654 c 1
 740 663 l 1
 741 711 735 743 658 739 c 1
EndSplineSet
Layer: 4
EndChar

StartChar: A
Encoding: 33 65 17
GlifName: A_
Width: 836
VWidth: 79
Flags: HW
HStem: 0 55<246.206 330.364 722.227 786.345> 308 58<310.197 576.761> 311 63<348.278 603.835>
LayerCount: 5
Back
Fore
SplineSet
9.58984375 0 m 1x80
 20.58984375 61 l 1
 99.58984375 52 127.277148436 86.1757302715 155.483398438 136 c 0
 274.93359375 347 395.8125 593 470.490234375 778 c 1
 508.153320312 784 552.220703125 796 590.8984375 809 c 1
 601.236328125 599 635.147460938 418 692.344726562 150 c 0
 702.127929688 104.16015625 732.344726562 52 792.344726562 54 c 1
 782.344726562 0 l 1
 670.344726562 0 568.584960938 0 463.3046875 0 c 1
 474.921875 50 l 1
 519.666015625 59 570.552734375 75 565.537109375 134 c 0
 555.579101562 259 521.07421875 406 506.62890625 551 c 0
 506.100585938 590 501.983398438 645 501.4765625 686 c 1
 408.095703125 498 286.586914062 270 251.458984375 145 c 0
 223.650215804 46.0446643933 295.233398438 50 340.364257812 51 c 1
 330.764648438 0 l 1
 229.245117188 0 117.58984375 0 9.58984375 0 c 1x80
299.243164062 298 m 1xc0
 310.197265625 366 l 1xc0
 614.841796875 373 l 1
 603.834960938 300 l 1xa0
 299.243164062 298 l 1xc0
EndSplineSet
Layer: 2
Layer: 3
SplineSet
20 0 m 1
 21 61 l 1
 100 52 128 86 156 136 c 0
 291 377 396 583 484 768 c 1
 524 774 575 786 616 799 c 1
 640 589 678 418 731 150 c 0
 740 104 751 43 821 55 c 1
 821 0 l 1
 709 0 597 0 485 0 c 1
 486 64 l 1
 555 53 609 65 603 124 c 0
 591 249 542 396 525 541 c 0
 524 580 519 635 518 676 c 1
 421 468 284 210 258 145 c 0
 220 49 295 50 343 51 c 1
 344 0 l 1
 236 0 128 0 20 0 c 1
307 308 m 1
 318 366 l 1
 642 374 l 1
 631 311 l 1
 307 308 l 1
EndSplineSet
Layer: 4
EndChar

StartChar: B
Encoding: 34 66 18
GlifName: B_
Width: 659
VWidth: 79
Flags: HW
HStem: -6 54<101.068 388.645> -3 61<3.5488 81.364> 393 57<239.992 358.214> 412 25<422.036 450.009> 747 56<304.243 471.337>
LayerCount: 5
Back
Fore
SplineSet
-17.451171875 -3 m 1x48
 -6.451171875 49 l 1x48
 75.916015625 43 87.1298828125 88.0263671875 96.03515625 121 c 0
 139.534666619 262 161.689911533 424 176.315429688 568 c 0
 184.850585938 664 187.548828125 757 86.548828125 745 c 1
 96.548828125 798 l 1
 228.4609375 786 341.000976562 800 452.000976562 803 c 0
 557.243164062 805.844726562 659.369140625 738.005859375 637.263671875 618 c 0
 616.263671875 504 486.1171875 417 360.104492188 412 c 1
 440.008789062 427 l 1
 553.942946696 407 640.159889429 300 620.263671875 187 c 0
 586.263671875 4 351.662109375 -6 219.122070312 -6 c 0x98
 157.08203125 -6 53.5488281252 -5 -17.451171875 -3 c 1x48
197.44921875 116 m 0
 197.78594963 67.8708003165 235.334960938 56.6806640625 285.153320312 57 c 0
 441.383789062 58 504.263671875 102 520.263671875 196 c 0
 536.104050777 298 474.725312376 382 383.6640625 385 c 0xa8
 340.444335938 387 260.529296875 386 223.752929688 375 c 1
 196.111602463 270 196.904101212 193.9140625 197.44921875 116 c 0
238.646484375 450 m 1
 477.310546875 456 519.520934372 560.002761478 532.356445312 617 c 0
 545.868164062 677 526.101717234 738.089302367 433.46875 747 c 0
 381.490234375 752 319.670898438 740 294.143554688 726 c 1
 262.680664062 652 246.561523438 544 238.646484375 450 c 1
EndSplineSet
Layer: 2
Layer: 3
SplineSet
-6 -3 m 1
 5 58 l 1
 88 52 89 87 98 120 c 0
 147 311 177 424 189 568 c 0
 197 664 189 757 88 745 c 1
 89 798 l 1
 275 786 319 803 469 803 c 0
 581 803 655.106445312 738.005859375 633 618 c 4
 612 504 499 417 365 412 c 5
 471 437 l 1
 596 397 647 300 626 187 c 0
 592 4 382 -6 241 -6 c 0
 175 -6 65 -5 -6 -3 c 1
206 110 m 0
 203 52 247 48 300 48 c 0
 413 49 500 102 516 196 c 0
 533 298 473 390 369 393 c 0
 323 395 270 386 231 375 c 1
 218 270 210 188 206 110 c 0
246 450 m 1
 436 456 512 530 525 587 c 0
 549 677 517 745 418 747 c 0
 368 749 329 734 302 720 c 1
 280 646 264 544 246 450 c 1
EndSplineSet
Layer: 4
EndChar

StartChar: W
Encoding: 55 87 19
GlifName: W_
Width: 1270
VWidth: 79
Flags: HW
HStem: 736 64<56.5225 123.897> 745 55<509.282 568.754 949.603 1033.76>
LayerCount: 5
Back
Fore
SplineSet
55.5224609375 752 m 1x80
 56.5224609375 800 l 1x80
 167.96253071 796 288.420199197 793 369.5625 800 c 1x40
 367.9453125 752 l 1
 297.349090673 754.98245614 243.676496802 743.142870549 247.331054688 667 c 0
 254.597347324 544.494456763 277.112670811 366.860542879 293.239257812 225 c 0
 296.915808127 192 306.751987062 135 310.376953125 100 c 1
 387.271669662 299.18549646 568.250874771 614.861125148 591.408203125 655 c 1
 687.383789062 664 l 1
 537.266281249 430 420.325253086 188 340.423828125 8 c 1
 302.759765625 2 255.6328125 -10 216.955078125 -23 c 1
 201.527404592 181 192.070987775 391.891681259 146.522460938 650 c 0
 137.522460938 701 115.522460938 755.304347826 55.5224609375 752 c 1x80
509.282226562 800 m 1x40
 614.5625 800 719.842773438 800 825.122070312 800 c 1x40
 823.504882812 752 l 5x80
 758.76171875 756.521929825 712.904696433 744.096853686 712.890625 666 c 0
 712.868601982 543.771618625 724.759827728 366.660108254 741.279296875 225 c 0
 745.105745441 192.186892434 746.907226562 135 748.416992188 100 c 1
 860.66294275 301 1012.94573352 591.61283847 1028.50878906 655 c 4
 1051.05115759 746.813381472 994.733398438 753.114942529 949.602539062 752 c 1
 949.202148438 800 l 1
 1050.72265625 800 1152.37695312 800 1260.37695312 800 c 1
 1259.37695312 752 l 1
 1180.37695312 762.153846154 1156.69561164 718.108805401 1124.48339844 664 c 0
 985.177830103 430 869.230025673 188 778.462890625 8 c 1
 740.799804688 2 693.672851562 -10 654.995117188 -23 c 1
 640.077328499 181 632.831050055 390.733893697 592.295898438 650 c 0
 584.322265625 701 574.627929688 765.304347826 508.700195312 752 c 1
 509.282226562 800 l 1x40
EndSplineSet
Layer: 2
Layer: 3
SplineSet
52 736 m 1
 53 800 l 1
 168 796 300 793 389 800 c 1
 388 736 l 1
 319 747 265 735 271 676 c 0
 283 551 326 370 343 225 c 0
 345 192 350 135 352 100 c 1
 447 301 590 592 616 655 c 1
 718 664 l 1
 584 430 472 188 385 8 c 1
 345 2 295 -10 254 -23 c 1
 229 181 197 390 143 650 c 0
 134 696 122 748 52 736 c 1
527 800 m 1
 639 800 751 800 863 800 c 1
 862 736 l 1
 793 747 739 735 745 676 c 0
 757 551 792 370 809 225 c 0
 811 192 816 135 818 100 c 1
 913 301 1055 592 1081 655 c 0
 1119 751 1044 750 996 749 c 1
 995 800 l 1
 1103 800 1211 800 1319 800 c 1
 1318 739 l 1
 1239 748 1211 714 1183 664 c 0
 1049 430 938 188 851 8 c 1
 811 2 761 -10 720 -23 c 1
 695 181 671 390 617 650 c 0
 608 696 597 757 527 745 c 1
 527 800 l 1
EndSplineSet
Layer: 4
EndChar

StartChar: c
Encoding: 67 99 20
GlifName: c
Width: 567
VWidth: 153
Flags: HW
HStem: 520.924 91.0762<397.413 461.303>
LayerCount: 5
Back
SplineSet
49.7294921875 230 m 0
 79.41015625 404 218.6171875 598 461.6171875 598 c 0
 559.6171875 598 607.50390625 569 607.50390625 569 c 1
 602.803710938 531 590.4609375 461 575.525390625 416 c 1
 516.583984375 422 l 1
 503.166015625 465 491.04296875 504 448.038085938 538 c 5
 518.508789062 535 l 1
 485.047851562 470 474.33203125 534 382.15625 533 c 0
 302.979492188 532 219.10546875 476 190.48046875 325 c 0
 166.791992188 202 185.458984375 64 319.106445312 62 c 0
 383.9296875 61 447.337890625 86 490.509765625 121 c 1
 515.514648438 87 l 1
 452.229492188 23 371.529296875 -15 267.529296875 -15 c 0
 118.529296875 -15 22.3408203125 69 49.7294921875 230 c 0
EndSplineSet
Fore
SplineSet
55.388671875 220 m 0
 106.577564696 462.581863976 313.936523438 610.60546875 543.4453125 612 c 1
 552.4453125 594 l 1
 539.4453125 537 529.4453125 488 523.4453125 443 c 1
 488.149414062 491.93359375 449.901367188 518.639648438 382.82421875 520.923828125 c 0
 285.121097873 524.25091476 199.020507812 420.530273438 172.388671875 324 c 0
 144.259765625 222.044921875 137.609375 74.21875 272.040039062 56 c 0
 384.430677771 40.7682300519 463.4453125 119 465.4453125 119 c 1
 484.4453125 87 l 5
 452.4453125 51 355.38671875 -27.33984375 225.452148438 -26 c 0
 115.447265625 -24.865234375 19.1131546961 48.0919533712 55.388671875 220 c 0
EndSplineSet
Layer: 2
Layer: 3
SplineSet
56 230 m 0
 90 453 250 546 351 582 c 0
 438 612 531 614 569 612 c 5
 578 594 l 1
 560 514 555 484 549 439 c 1
 513.704101562 487.93359375 465.74609375 528.639648438 405 530.923828125 c 0
 301.0390625 534.831054688 214.631835938 461.530273438 184 352 c 0
 155.513671875 250.14453125 147.478360817 76.1550340684 301 56 c 0
 409.121014398 41.8053708891 500 119 502 119 c 1
 519 83 l 1
 487 47 389.941582683 -30.3398831686 263 -26 c 0
 146 -22 25.07421875 27.1611328125 56 230 c 0
EndSplineSet
Layer: 4
EndChar

StartChar: w
Encoding: 87 119 21
GlifName: w
Width: 960
VWidth: 79
Flags: W
HStem: 530 42<32.1143 142.091 527.754 605.827> 544 72<775.322 828.345>
VStem: 214.441 73.5234<58.8773 448.721> 543.441 73.5234<59.0029 350.173>
LayerCount: 5
Back
SplineSet
19 531 m 5xb0
 19 572 l 5
 102 571 184 590 242 614 c 5
 260.360351562 594 l 5
 266.05078125 528.57421875 284.840904754 408.985674236 302 297 c 4
 313 223 340 104 363 51 c 4
 370 34 334 78 334 78 c 5
 420 182 499 285 523 432 c 4
 532 485 506 495 428 494 c 5
 428 526 l 5
 461 550 522 567 551 566 c 4
 616 565 622 533 624 506 c 4
 637.297313785 326.486263907 514 204 349 -4 c 5
 319 -7 268 -12 232 -22 c 5
 239 185 210 417 143 496 c 4
 115 528 63 532 19 531 c 5xb0
524 449 m 1053
527 449 m 5
 623 521 l 5
 637.889736159 394.43724265 683.156738016 165.856212398 733 51 c 4
 740 34 704 78 704 78 c 5
 790 182 869 319 893 466 c 4
 902 519 866 545 788 544 c 5
 788 576 l 5
 821 600 902 617 931 616 c 4x70
 996 615 1007 583 1004 556 c 4
 985 377 884 204 719 -4 c 5
 689 -7 638 -12 602 -22 c 5
 608 159 581 321 530 422 c 4
 523 437 535 439 527 449 c 5
EndSplineSet
Fore
SplineSet
527.309570312 530 m 1xb0
 527.75390625 572 l 1xb0
 605.827148438 577 535.125976562 558 623.814453125 589 c 1
 637.666992188 571 l 1
 631.919921875 506.66796875 618.500976562 411.951171875 616.96484375 297 c 0
 616.244140625 243.083984375 620.563476562 104 641.622070312 51 c 0
 648.022460938 34 614.6484375 78 614.6484375 78 c 1
 696.587890625 182 813.850585938 325 837.850585938 472 c 4
 846.850585938 525 817.508789062 545 744.177734375 544 c 5
 738.876953125 576 l 5
 770.150390625 600 853.850585938 617 882.850585938 616 c 0x70
 947.850585938 615 958.850585938 583 955.850585938 556 c 0
 936.850585938 377 785.850585938 204 627.880859375 -4 c 1
 599.6484375 -7 551.65625 -12 517.709960938 -22 c 1
 534.216796875 79.18359375 539.57421875 179.830078125 543.44140625 269 c 0
 554.001953125 512.509765625 628.793945312 531.087890625 527.309570312 530 c 1xb0
32.1142578125 530 m 1
 26.1142578125 572 l 1xb0
 109.114257812 577 208.25 581 296.9375 612 c 1
 310.790039062 594 l 1
 305.04296875 529.66796875 292.337890625 411.90234375 287.96484375 297 c 0
 285.15234375 223.083984375 291.563476562 104 312.622070312 51 c 0
 319.022460938 34 285.6484375 78 285.6484375 78 c 1
 367.587890625 182 509.161132812 325 533.276367188 472 c 0
 542.296875 525 504.961914062 550 431.525390625 539 c 1
 427.1640625 571 l 1
 463.126953125 594 533.870117188 617 570.51953125 616 c 0x70
 631.588867188 614.333984375 641.610351562 583 638.504882812 556 c 0
 618.750976562 377 456.180664062 204 298.880859375 -4 c 1
 270.6484375 -7 222.65625 -12 188.709960938 -22 c 1
 205.216796875 79.18359375 210.57421875 179.830078125 214.44140625 269 c 0
 225.001953125 512.509765625 139.994140625 531.087890625 32.1142578125 530 c 1
EndSplineSet
Layer: 2
Layer: 3
SplineSet
549 530 m 1
 549 572 l 1
 632 577 557 558 651 589 c 1
 665.939453125 571 l 1
 660.549804688 506.66796875 647.34145895 411.950906239 647 297 c 0
 646.83984375 243.083984375 653 104 676 51 c 0
 683 34 647 78 647 78 c 1
 733 182 862 325 886 472 c 0
 895 525 865 545 787 544 c 1
 781 576 l 1
 814 600 895 617 924 616 c 0
 989 615 1000 583 997 556 c 0
 978 377 827 204 662 -4 c 1
 632 -7 581 -12 545 -22 c 1
 561.421875 79.18359375 565.98828125 179.830078125 569.098632812 269 c 0
 577.592773438 512.509765625 656.94921875 531.087890625 549 530 c 1
29 530 m 1
 23 572 l 1
 106 577 209 581 303 612 c 1
 317.939453125 594 l 1
 312.549804688 529.66796875 300.358398438 411.90234375 297 297 c 0
 294.83984375 223.083984375 303 104 326 51 c 0
 333 34 297 78 297 78 c 1
 383 182 532 325 556 472 c 0
 565 525 525 550 447 539 c 5
 442 571 l 5
 480 594 555 617 594 616 c 0
 658.986332334 614.333683786 670 583 667 556 c 0
 648 377 477 204 312 -4 c 1
 282 -7 231 -12 195 -22 c 1
 211.421875 79.18359375 215.98828125 179.830078125 219.098632812 269 c 0
 227.592773438 512.509765625 136.94921875 531.087890625 29 530 c 1
EndSplineSet
Layer: 4
EndChar

StartChar: V
Encoding: 54 86 22
GlifName: V_
Width: 832
VWidth: 79
Flags: HWO
HStem: 744 55<55.5557 125.39 511.536 595.694>
LayerCount: 5
Back
SplineSet
779.319335938 759.60546875 m 5
 683.118164062 756.4921875 670.75390625 709.79296875 641.333984375 638.686523438 c 4
 540.73828125 395.549804688 425.083007812 92.47265625 373.807617188 -17.900390625 c 13
 238.850585938 -35.2626953125 l 5
 195.05859375 118.126953125 99.2080078125 445.11328125 28.28125 640.72265625 c 5
 -1.1044921875 722.461914062 -47.619140625 750.809570312 -111.751953125 749.60546875 c 5
 -122.749023438 819.33984375 l 5
 33.9697265625 810.166015625 163.194335938 812.083984375 299.913085938 819.33984375 c 5
 313.16015625 755.104492188 l 5
 208.680664062 746.856445312 148.693359375 731.734375 169.314453125 642.375976562 c 5
 168.938476562 642.325195312 l 5
 205.0703125 507.569335938 243.123046875 375.205078125 288.350585938 244.821289062 c 5
 302.875 196.584960938 323.53515625 66.734375 320.7734375 74.982421875 c 5
 363.33203125 173.946289062 472.463867188 422.768554688 546.000976562 650.715820312 c 5
 568.381835938 730.470703125 498.267578125 756.823242188 405.391601562 752.731445312 c 5
 393.018554688 819.33984375 l 5
 525.91015625 811.728515625 631.3046875 813.844726562 764.196289062 819.33984375 c 5
 779.319335938 759.60546875 l 5
EndSplineSet
Fore
SplineSet
55.5556640625 799 m 1
 378.595703125 799 l 1
 376.978515625 735 l 1
 312.234375 746 261.34765625 734 266.36328125 675 c 0
 270.676308068 556 287.344711871 384 292.314453125 245 c 0
 295.662109375 206 295.9140625 141 296.419921875 100 c 1
 402.243376572 301 561.381524421 591 590.44140625 654 c 0
 627.176757812 750 556.666015625 749 511.536132812 748 c 1
 511.135742188 799 l 1
 822.309570312 799 l 1
 821.309570312 751 l 1
 742.309570312 761.56 714.309570312 721.666666667 686.416992188 663 c 0
 541.923404204 429 420.61356681 188 326.466796875 8 c 1
 288.803710938 2 241.676757812 -10 202.999023438 -23 c 1
 191.274926629 187 175.781847388 401 148.555664062 669 c 0
 137.555664062 705 125.555664062 754 55.5556640625 744 c 1
 55.5556640625 799 l 1
EndSplineSet
Layer: 2
Layer: 3
SplineSet
52 799 m 1
 163 794 305 793 388 799 c 1
 387 735 l 1
 318 746 264 734 270 675 c 0
 283 556 330 384 345 245 c 0
 349 206 350 141 351 100 c 1
 446 301 589 591 615 654 c 0
 653 750 578 749 530 748 c 1
 529 799 l 1
 639 795 748 790 853 799 c 1
 852 738 l 1
 773 747 745 713 717 663 c 0
 583 429 471 188 384 8 c 1
 344 2 294 -10 253 -23 c 1
 229 187 198 401 145 669 c 0
 134 705 122 754 52 744 c 1
 52 799 l 1
EndSplineSet
Layer: 4
EndChar

StartChar: C
Encoding: 35 67 23
GlifName: C_
Width: 674
VWidth: 79
Flags: HW
HStem: -17 98<232.311 412.952> 730 72<383.828 581.926>
VStem: 631.255 59<546 618.568>
LayerCount: 5
Back
Fore
SplineSet
37.8369140625 292 m 4
 71.6461427779 494.764730208 252.940454549 806.966817351 680 817.759765625 c 1
 697.254882812 789 l 1
 689.288085938 744.092773438 671.629882812 681.907226562 660.254882812 594 c 1
 632 669 590.857421875 724.048828125 482.721679688 719 c 0
 354.202148438 713 206.629882812 563 165.836914062 377 c 0
 129.41015625 210.909179688 169.25390625 82.849609375 308.576171875 67 c 0
 412.211914062 55.2099609375 506.287109375 89 572.254882812 127 c 1
 585.254882812 83 l 1
 500.109375 15 387.159179688 -22 253.678710938 -17 c 0
 109.343725484 -11.6761300223 2.90637497962 84.0349818638 37.8369140625 292 c 4
EndSplineSet
Layer: 2
Layer: 3
SplineSet
-7.951171875 299 m 0
 32.048828125 537 214.048828125 802 546.048828125 802 c 0
 707.048828125 802 770.048828125 766 770.048828125 766 c 1
 764.048828125 715 737.048828125 585 720.048828125 543 c 1
 661.048828125 546 l 1
 645.048828125 634 582.048828125 748 537.048828125 755 c 1
 555.048828125 776 729.048828125 732 659.048828125 637 c 1
 643.048828125 641 592.048828125 730 469.048828125 730 c 0
 311.048828125 730 179.048828125 589 141.048828125 393 c 0
 109.048828125 226 144.048828125 84 357.048828125 81 c 0
 446.048828125 80 535.048828125 118 594.048828125 166 c 1
 627.048828125 123 l 1
 540.048828125 35 430.048828125 -17 288.048828125 -17 c 0
 84.048828125 -17 -43.951171875 92 -7.951171875 299 c 0
EndSplineSet
Layer: 4
EndChar

StartChar: q
Encoding: 81 113 24
GlifName: q
Width: 640
VWidth: 79
Flags: W
HStem: -262 38<526.129 632.362> -17 93<189.361 286.045> 592 20G<460.297 596.607>
LayerCount: 5
Back
Fore
SplineSet
56.33203125 220 m 4
 88.33203125 425 241.33203125 645 580.829101562 612 c 1
 514.4765625 471 l 1
 514.4765625 471 465.530273438 552.875976562 358.258789062 543 c 0
 253.064453125 533.315429688 172.33203125 381 161.33203125 265 c 4
 151.33203125 161 167.56640625 78 232.405273438 76 c 4
 326.383789062 74 434.139648438 252 453.142578125 360 c 1
 470.325195312 296 l 1
 447.60546875 192 362.5234375 -13.0947265625 208.053710938 -17 c 4
 70.318359375 -20.482421875 36.0126953125 89.830078125 56.33203125 220 c 4
332.388671875 -303 m 1
 319.262695312 -288 l 1
 361.096679688 -152.594726562 396.456054688 -28.0458984375 424.040039062 97 c 0
 431.936523438 132.791992188 458.37890625 233 462.477539062 265 c 1
 444.998046875 301 l 1
 460.103515625 396 461.794921875 467 460.296875 592 c 1
 580.829101562 612 l 1
 596.607421875 593 l 1
 548.622070312 411 490.30859375 122.784179688 472.779296875 -94 c 0
 464.126953125 -201 518.467773438 -218 637.362304688 -224 c 1
 632.362304688 -262 l 1
 484.299804688 -266.34765625 394.466796875 -285.087890625 332.388671875 -303 c 1
EndSplineSet
Layer: 2
Layer: 3
SplineSet
57 228 m 0
 89 433 242 645 603 612 c 1
 534 471 l 1
 534 471 481.0078125 552.875976562 367 543 c 4
 255.200195312 533.315429688 180 379 169 263 c 0
 159 159 179 73 248 71 c 0
 348 69 451 252 470 360 c 1
 489 296 l 1
 466 192 347.993178962 -12.7631650678 205 -17 c 0
 70 -21 36.6808387759 97.8303734078 57 228 c 0
349 -303 m 1
 334.868164062 -288 l 1
 377.847050048 -152.594769782 414.0625 -28.0458984375 442 97 c 0
 449.997070312 132.791992188 477 233 481 265 c 1
 462 301 l 1
 477 396 478 467 475 592 c 1
 603 612 l 1
 620 593 l 1
 571 411 512.208146242 122.783955984 496 -94 c 0
 488 -201 546 -218 665 -224 c 1
 660 -262 l 1
 510.1953125 -266.34765625 414.83984375 -285.087890625 349 -303 c 1
EndSplineSet
Layer: 4
EndChar

StartChar: y
Encoding: 89 121 25
GlifName: y
Width: 662
VWidth: 79
Flags: W
HStem: -286 93<32.9913 143.024> 530 45<15.8154 144.084> 594 20G<222.66 280.122>
LayerCount: 5
Back
SplineSet
-83 -254 m 5
 -71 -206 -53 -113 -46 -68 c 5
 -11 -120 35 -225 136 -196 c 5
 211 -161 303 -44 329 8 c 5
 250 -5 l 5
 251 182 185 423 122 499 c 4
 94 533 39 533 -8 530 c 5
 -2 575 l 5
 85 580 136 584 233 614 c 5
 245.5625 605 l 5
 250.19921875 511.611328125 272.28515625 414.143554688 298 297 c 4
 311 236 338 147 367 84 c 5
 410 128 518 288 519 472 c 4
 519 525 500 545 422 544 c 5
 426 576 l 5
 462 600 536 617 567 616 c 4
 632 615 642 583 640 556 c 4
 631 454 547 218 424 26 c 4
 316 -144 203 -283 58 -286 c 4
 3 -287 -45 -280 -74 -265 c 5
 -83 -254 l 5
EndSplineSet
Fore
SplineSet
-79.1845703125 -254 m 1
 -67.1845703125 -206 -49.1845703125 -113 -42.1845703125 -68 c 1
 -21.3056640625 -128.546875 28.8056640625 -194.349609375 102.890625 -193 c 4
 210.9140625 -191.032226562 313.465820312 -33.1357421875 349.501953125 16 c 1
 366.338867188 8.1484375 l 1
 240.239257812 -5 l 1
 242.676757812 151.201171875 227.8046875 345.080078125 188.794921875 449 c 0
 162.112304688 520.077148438 107.096679688 535.826171875 15.8154296875 530 c 1
 9.8154296875 575 l 1
 96.8154296875 580 176.911132812 584 268.408203125 614 c 1
 280.122070312 605 l 1
 283.4921875 511.611328125 284.421875 414.143554688 307.354492188 297 c 0
 319.900390625 229.978515625 335.967773438 110.21875 364.805664062 41 c 1
 395.509765625 87.48046875 544.950195312 311.646484375 545.923828125 472 c 0
 546.245117188 524.999023438 528.05859375 545 454.727539062 544 c 1
 458.826171875 576 l 1
 492.919921875 600 562.923828125 617 593.923828125 616 c 0
 658.923828125 615 668.923828125 583 666.923828125 556 c 0
 657.923828125 454 553.923828125 228 432.43359375 36 c 0
 329.114257812 -134 193.118164062 -283 56.7861328125 -286 c 0
 5.076171875 -287 -41.1845703125 -280 -70.1845703125 -265 c 1
 -79.1845703125 -254 l 1
EndSplineSet
Layer: 2
Layer: 3
SplineSet
-83 -254 m 1
 -71 -206 -53 -113 -46 -68 c 1
 -25.1208791209 -128.546875 27.2030652637 -194.349322324 106 -193 c 4
 220.896667532 -191.032504196 328.21639917 -33.1358959425 366 16 c 1
 384 8.1484375 l 1
 250 -5 l 1
 250.834960938 151.201171875 232.83203125 345.080078125 190.162109375 449 c 0
 160.9765625 520.077148438 103.28125 535.826171875 12 530 c 1
 6 575 l 1
 93 580 176 584 273 614 c 1
 285.5625 605 l 1
 290.19921875 511.611328125 292.28515625 414.143554688 318 297 c 0
 332.101694915 229.978540773 350.542372881 110.21888412 382 41 c 1
 414.140625 87.4803921569 568.026041667 311.646098999 569 472 c 0
 569.32190573 524.999022413 550 545 472 544 c 1
 476 576 l 1
 512 600 586 617 617 616 c 0
 682 615 692 583 690 556 c 0
 681 454 577 228 454 36 c 0
 346 -134 203 -283 58 -286 c 0
 3 -287 -45 -280 -74 -265 c 1
 -83 -254 l 1
EndSplineSet
Layer: 4
EndChar

StartChar: l
Encoding: 76 108 26
GlifName: l
Width: 401
VWidth: 79
Flags: W
HStem: 787 40<48.2725 161.007> 851 20G<320.718 334.171>
VStem: 43.2725 321.179
LayerCount: 5
Back
SplineSet
58.9150390625 822 m 1
 194.694335938 825.5390625 343.189453125 875 345.20703125 875 c 1
 317.30078125 765.991210938 223.836914062 360.206054688 218.4453125 180.267578125 c 0
 214.84765625 60.2216796875 267.774414062 67.1220703125 369.639648438 79 c 1
 373.763671875 40 l 1
 354.383789062 33.08203125 239.842773438 -15.7138671875 170 -14.55859375 c 4
 120.331054688 -13.736328125 93.486328125 24.6513671875 93.318359375 70 c 0
 92.86328125 192.901367188 198.388671875 530.606445312 202.934570312 706 c 0
 204.006835938 747.356445312 156.805664062 759 45.158203125 761 c 1
 58.9150390625 822 l 1
EndSplineSet
Fore
SplineSet
48.2724609375 787 m 1
 43.2724609375 827 l 1
 177.373046875 827 319.778320312 871 321.658203125 871 c 1
 334.796875 850 l 1
 324.259765625 814.200195312 309.002929688 769.586914062 292.610351562 702 c 0
 273.935546875 625 232.297851562 421 223.203125 361 c 0
 214.150390625 305 194.409179688 216 198.315429688 141 c 0
 203.002929688 51 262.451171875 58 364.451171875 70 c 1
 359.451171875 31 l 1
 339.451171875 20 223.819335938 -25 157.08984375 -24 c 4
 100.696289062 -23.1552734375 75.16796875 15.2236328125 79.9580078125 60 c 0
 92.4765625 177 185.466796875 437 194.66015625 684 c 0
 197.860351562 769.98828125 161.91015625 787 48.2724609375 787 c 1
EndSplineSet
Layer: 2
Layer: 3
SplineSet
44 787 m 1
 39 827 l 1
 174 827 325 871 327 871 c 1
 341.213867188 850 l 1
 330.40625 814.200195312 314.677249246 769.586746944 298 702 c 0
 279 625 237 421 228 361 c 0
 219 305 199 216 204 141 c 0
 210 51 272 58 374 70 c 1
 369 31 l 1
 349 20 233 -25 162 -24 c 4
 101.998046875 -23.1552734375 74.4075675384 15.2237834997 79 60 c 0
 91 177 187 437 194 684 c 0
 196.436523438 769.98828125 158 787 44 787 c 1
EndSplineSet
Layer: 4
EndChar

StartChar: u
Encoding: 85 117 27
GlifName: u
Width: 690
VWidth: 79
Flags: W
HStem: -15 98<205.999 249.976> 531 41<29.9541 134.893> 592 20G<286.677 301.437 630.86 644.949>
VStem: 86.3955 111.006<89.7602 196.783>
LayerCount: 5
Back
Fore
SplineSet
25.9541015625 531 m 1
 29.9541015625 572 l 1
 157.463867188 571 285.737304688 612 287.6171875 612 c 1
 301.436523438 594 l 1
 295.50390625 574.655273438 286.694335938 553.045898438 277.286132812 524 c 0
 259.63671875 455 204.5546875 313 197.401367188 170 c 0
 194.950195312 116 204.940429688 83 245.361328125 83 c 0
 344.05078125 82 481.76953125 305 497.001953125 412 c 1
 522.127929688 388 l 1
 452.870117188 150 285.663085938 -17 166.303710938 -15 c 0
 109.915039062 -14 84.7890625 10 86.3955078125 73 c 0
 88.2763671875 162 133.578125 268 153.520507812 376 c 0
 156.53125 394 166.354492188 434 163.862304688 465 c 0
 159.669921875 513 109.954101562 531 25.9541015625 531 c 1
406.69140625 50 m 0
 424.426757812 127 456.155273438 194 479.900390625 306 c 0
 486.861328125 342 491.899414062 374 494.995117188 400 c 0
 503.318359375 476 498.578125 561 494.248046875 596 c 1
 550.711914062 602 629.860351562 612 631.860351562 612 c 1
 644.94921875 594 l 1
 610.870117188 510.913085938 536.287109375 290.004882812 522.408203125 148 c 0
 513.89453125 54 570.860351562 49 644.860351562 69 c 1
 645.860351562 30 l 1
 629.860351562 22 538.860351562 -36 474.412109375 -35 c 0
 418.0234375 -34 396.826171875 6 406.69140625 50 c 0
EndSplineSet
Layer: 2
Layer: 3
SplineSet
23 531 m 1
 27 572 l 1
 155 571 291 612 293 612 c 1
 307.903320312 594 l 1
 301.809570312 574.655273438 292.681640625 553.045898438 283 524 c 0
 265 455 208 313 202 170 c 0
 200 116 211 83 254 83 c 0
 359 82 503 305 518 412 c 1
 545 388 l 1
 474 150 298 -17 171 -15 c 0
 111 -14 84 10 85 73 c 0
 86 162 133 268 153 376 c 0
 156 394 166 434 163 465 c 0
 158 513 107 531 23 531 c 1
426 50 m 0
 444 127 477 194 501 306 c 0
 508 342 513 374 516 400 c 0
 524 476 518 561 513 596 c 1
 573 602 657 612 659 612 c 1
 672.088867188 594 l 1
 638.009765625 510.913085938 561.166006267 290.004781877 548 148 c 0
 540 54 598 49 672 69 c 1
 673 30 l 1
 657 22 566 -36 499 -35 c 0
 439 -34 416 6 426 50 c 0
EndSplineSet
Layer: 4
EndChar

StartChar: k
Encoding: 75 107 28
GlifName: k
Width: 630
VWidth: 79
Flags: HW
HStem: -17 108<450.575 533.694> 783 41<60.5312 158.852>
LayerCount: 5
Back
SplineSet
56.9150390625 824 m 5
 192.694335938 827.5390625 332.189453125 877 334.20703125 877 c 5
 324.420898438 838.772460938 294.358398438 730.05859375 275.791992188 642 c 4
 260.573242188 569.8203125 230.052734375 417.426757812 220.890625 361 c 4
 211.844726562 305.288085938 202.771484375 245.5078125 207.421875 170.99609375 c 4
 213.028320312 81.173828125 230.8515625 58.130859375 332.639648438 70 c 5
 336.763671875 31 l 5
 317.383789062 19.08203125 245.845703125 -24.521484375 176 -23.55859375 c 4
 116.331054688 -22.736328125 94.0400390625 15.76953125 97.318359375 61 c 4
 110.024414062 236.3203125 186.022460938 439.86328125 193.772460938 675 c 4
 196.185546875 748.206054688 160.560546875 760.124023438 43.158203125 763 c 5
 56.9150390625 824 l 5
350.883789062 234.34765625 m 5
 319.103515625 225.482421875 275.77734375 221 253.1328125 227 c 5
 256.345703125 232.168945312 253 243 258.064453125 259 c 5
 258.364257812 258.924804688 258.666015625 258.850585938 258.971679688 258.77734375 c 6
 259.064453125 259 l 5
 268.454101562 255.387695312 318.349609375 258.930664062 356.53125 278.875 c 4
 447.08203125 326.173828125 478.5859375 378.525390625 491.634765625 429 c 4
 501.578125 467.463867188 484.696289062 493.943359375 449 494.274414062 c 4
 323.62109375 495.4375 229.724609375 338.993164062 205.392578125 201 c 5
 185.73828125 234 l 5
 214.076171875 428 362.84375 611 507 611 c 4
 594 611 605.555664062 559.0703125 604.400390625 512 c 4
 601.661132812 400.405273438 527.286132812 302.526367188 417.129882812 251.205078125 c 5
 453.336914062 164.439453125 484.487304688 72.2255859375 599 67.2978515625 c 4
 616.203125 66.5576171875 645.1953125 70.4501953125 666.2265625 78 c 5
 678 50 l 5
 664.881835938 35 627 -20 532 -20 c 4
 399.014648438 -20 383.475585938 133.622070312 350.883789062 234.34765625 c 5
EndSplineSet
Fore
SplineSet
56.53125 783 m 1
 60.53125 824 l 1
 195.614257812 828 324.870117188 873 326.75 873 c 1
 336.79296875 850 l 1
 290.818359375 723.677734375 241.358398438 508.834960938 220.752929688 361 c 0
 199.256835938 206.754882812 194.676757812 78.248046875 205.70703125 5 c 1
 167.216796875 3.83203125 112.837890625 -4.6962890625 76.7685546875 -10 c 0
 61 10 l 0
 104.728515625 145 184.928710938 440 194.935546875 675 c 0
 197.587890625 748 173.486328125 780 56.53125 783 c 1
236.452148438 359 m 5
 322.278320312 386 412.008789062 491 434.581054688 581 c 0
 551.645507812 583.32421875 l 1
 560.456054688 565 l 0
 508.853515625 448 369.35546875 365 302.361328125 341 c 1
 320.434570312 280.532226562 403.147460938 128.376953125 463.090820312 91 c 0
 499.739257812 68.1484375 535.713867188 60.1962890625 589.456054688 80 c 1
 585.456054688 35 l 1
 567.341796875 19.6953125 504.516601562 -28.1474609375 431.213867188 -17 c 4
 383.058721119 -9.6768405802 363.679181504 41.2377978833 332.192382812 121 c 0
 313.848768923 167.467951632 268.125976562 276.48046875 236.452148438 359 c 5
EndSplineSet
Layer: 2
Layer: 3
SplineSet
53 783 m 1
 57 824 l 1
 193 828 330 873 332 873 c 1
 342.942382812 850 l 1
 295.455542025 723.677316598 245.255351371 508.835290286 225 361 c 0
 203.8671875 206.754882812 200.44140625 78.248046875 213 5 c 1
 172.06640625 3.83203125 114.3125 -4.6962890625 76 -10 c 0
 59 10 l 0
 104 145 186 440 194 675 c 0
 196 748 170 780 53 783 c 1
263 359 m 1
 354 386 427 491 450 581 c 0
 566 583.32421875 l 1
 575 565 l 0
 522 448 399 365 328 341 c 1
 347.907226562 280.532226562 412.022460938 126.5234375 470 81 c 0
 495.282995805 61.1480211483 545.2578125 56.1962890625 599 72 c 1
 592 34 l 1
 573.885742188 18.6953125 509.060546875 -29.1474609375 434 -17 c 0
 382.842773438 -8.720703125 353.76068134 30.0352014978 330.126953125 136 c 0
 319.838867188 182.127929688 293.369266155 276.480520799 263 359 c 1
EndSplineSet
Layer: 4
EndChar

StartChar: j
Encoding: 74 106 29
GlifName: j
Width: 386
VWidth: 79
Flags: W
HStem: 531 41<51.5752 165.164> 701 151<271.497 362.185>
VStem: 243.575 148<729.024 823.976>
LayerCount: 5
Back
SplineSet
99.8544921875 781.734375 m 4
 99.8544921875 823.528320312 133.403320312 852.086914062 174.846679688 852.086914062 c 4
 225.00390625 852.086914062 249.841796875 812.982421875 249.841796875 771.190429688 c 4
 249.841796875 729.396484375 216.29296875 700.8359375 174.846679688 700.8359375 c 4
 133.403320312 700.8359375 99.8544921875 739.940429688 99.8544921875 781.734375 c 4
99.8544921875 781.734375 m 4
 99.8544921875 823.528320312 133.403320312 852.086914062 174.846679688 852.086914062 c 4
 225.00390625 852.086914062 249.841796875 812.982421875 249.841796875 771.190429688 c 4
 249.841796875 729.396484375 216.29296875 700.8359375 174.846679688 700.8359375 c 4
 133.403320312 700.8359375 99.8544921875 739.940429688 99.8544921875 781.734375 c 4
-28 -79 m 5
 68 -103 147 -71 161 77 c 5
 261 72 l 5
 262.500976562 -104.223632812 196.19921875 -152.735351562 69 -154.159179688 c 4
 14.095703125 -154.7734375 -37.2060546875 -138.005859375 -51 -130 c 5
 -28 -79 l 5
31 584 m 5
 114 582 271 595 271 595 c 5
 261.327148438 539.604492188 259.629882812 147.107421875 261 60 c 5
 161 70 l 5
 176 270 157 386 150 448 c 4
 145 493 109 523 37 523 c 5
 31 584 l 5
EndSplineSet
Fore
SplineSet
-81.4248046875 -134 m 1
 -66.4248046875 -84 l 1
 -16.4248046875 -106 90.5751953125 -104 131.575195312 -9 c 0
 181.575195312 106 205.575195312 220 211.575195312 435 c 0
 213.575195312 508 148.575195312 528 51.5751953125 531 c 5
 48.5751953125 572 l 1
 184.575195312 576 345.575195312 607 347.575195312 607 c 1
 359.41993084 586.000004799 l 1
 307.131152348 446.481527872 264.595537625 238.868841195 245.575195312 81 c 0
 229.575195312 -51 219.575195312 -159 49.5751953125 -166 c 0
 -14.4248046875 -169 -64.4248046875 -140 -81.4248046875 -134 c 1
243.575195312 782 m 0
 250.575195312 824 289.575195312 852 330.575195312 852 c 0
 380.575195312 852 398.575195312 813 391.575195312 771 c 0
 384.575195312 729 344.575195312 701 303.575195312 701 c 0
 262.575195312 701 236.575195312 740 243.575195312 782 c 0
EndSplineSet
Layer: 2
Layer: 3
SplineSet
-63 -134 m 1
 -48 -84 l 1
 2 -106 109 -104 150 -9 c 0
 200 106 204 210 210 425 c 0
 212 498 170 500 73 503 c 1
 87 544 l 1
 223 548 364 597 366 597 c 1
 310 458 284 247 264 81 c 0
 248 -51 238 -159 68 -166 c 0
 4 -169 -46 -140 -63 -134 c 1
192 782 m 0
 199 824 238 852 279 852 c 0
 329 852 347 813 340 771 c 0
 333 729 293 701 252 701 c 0
 211 701 185 740 192 782 c 0
EndSplineSet
Layer: 4
EndChar

StartChar: comma
Encoding: 12 44 30
GlifName: comma
Width: 196
VWidth: 79
Flags: W
HStem: -213 322
VStem: -17.3877 248
LayerCount: 5
Back
Fore
SplineSet
122.612304688 109 m 5
 172.15625 99.1708984375 188.547851562 96.1005859375 230.612304688 88 c 1
 213.40625 14.392578125 86.642578125 -145.477539062 -1.3876953125 -213 c 5
 -17.3876953125 -180 l 5
 28.6640625 -117.276367188 102.166015625 -20.58203125 122.612304688 109 c 5
EndSplineSet
Layer: 2
Layer: 3
SplineSet
95 109 m 5
 144.543945312 99.1708984375 190.935573904 96.1002638056 233 88 c 1
 215.79379146 14.3923810387 159.030056882 -115.477353843 71 -183 c 1
 35 -140 l 5
 71.0517578125 -77.2763671875 94.5537109375 19.41796875 95 109 c 5
EndSplineSet
Layer: 4
EndChar

StartChar: acute
Encoding: 115 180 31
GlifName: acute
Width: 478
VWidth: 0
Flags: W
HStem: 1066 54<86.6832 136.702>
LayerCount: 5
Back
Fore
SplineSet
77.9794921875 1120 m 9
 87.9794921875 1066 l 17
 195.686523438 1081 366.788085938 1158 429.788085938 1204 c 9
 369.788085938 1298 l 17
 307.264648438 1232 169.979492188 1142 77.9794921875 1120 c 9
EndSplineSet
Layer: 2
Layer: 3
SplineSet
73 1120 m 9
 83 1066 l 17
 191 1081 368 1158 431 1204 c 9
 371 1298 l 17
 308 1232 165 1142 73 1120 c 9
EndSplineSet
Layer: 4
EndChar

StartChar: dieresis
Encoding: 103 168 32
GlifName: x
Width: 478
VWidth: 0
Flags: W
HStem: 1066 54<86.6832 136.702>
LayerCount: 5
Back
Fore
SplineSet
77.9794921875 1120 m 9
 87.9794921875 1066 l 17
 195.686523438 1081 366.788085938 1158 429.788085938 1204 c 9
 369.788085938 1298 l 17
 307.264648438 1232 169.979492188 1142 77.9794921875 1120 c 9
EndSplineSet
Layer: 2
Layer: 3
SplineSet
73 1120 m 9
 83 1066 l 17
 191 1081 368 1158 431 1204 c 9
 371 1298 l 17
 308 1232 165 1142 73 1120 c 9
EndSplineSet
Layer: 4
EndChar

StartChar: E
Encoding: 37 69 34
GlifName: E_
Width: 783
VWidth: 79
Flags: HW
HStem: 0 21G<19.5098 580.262> 26 18<246.67 284.08> 367 76<241.491 483.464> 733 62<163.51 234.842 376.554 581.109>
LayerCount: 5
Back
Fore
SplineSet
228.467773438 367 m 1
 241.491210938 433 l 1
 429.501953125 434 l 1
 568.26171875 451 l 1
 552.26171875 370 l 1
 435.373046875 377 345.98828125 369 228.467773438 367 c 1
9.509765625 0 m 1
 22.509765625 57 l 1
 113.694913808 54.9999342002 141.900589547 83.6651231176 155.764648438 132.99609375 c 0
 192.338426702 263.132585212 221.641036667 437.746991774 238.509765625 663 c 0
 245.053108655 715.598628357 234.159765625 750.368421053 122.509765625 746 c 1
 133.509765625 800 l 1
 216.208241968 794 369.747439166 795 455.775390625 795 c 0
 536.615234375 795 640.26171875 796 738.26171875 801 c 1
 738.26171875 801 731.26171875 744 727.26171875 720 c 0
 717.26171875 665.46969697 695.26171875 598 695.26171875 598 c 1
 634.26171875 596 l 1
 636.363590961 637.335664191 631.593404147 687.506585764 616.911132812 727.254882812 c 1
 558.532337532 731.355518791 501.565569219 733 428.799804688 733 c 0
 368.585450333 733 349.635412253 692.420645879 337.665039062 653 c 0
 286.295511329 458.651515152 252.957851657 195.992424242 255.258789062 145 c 0
 258.123506313 114.740226689 251.585210241 77.1744322256 301.756835938 73 c 0
 372.690848166 67.6884119089 456.332905087 75.1598879805 501.754882812 82.5537109375 c 1
 527.485289039 120.527148347 551.311817025 165.997472622 562.26171875 204 c 1
 625.26171875 212 l 1
 625.26171875 212 621.26171875 139 611.26171875 80 c 0
 607.26171875 56 590.26171875 0 590.26171875 0 c 1
 9.509765625 0 l 1
EndSplineSet
Layer: 2
Layer: 3
SplineSet
20 0 m 1
 23 61 l 1
 92 49 121 89 136 137 c 1
 260 135 l 1
 258 117 256 77 291 73 c 0
 379 64 486 79 524 86 c 1
 459 29 l 1
 499 68 548 145 565 204 c 1
 638 212 l 1
 638 212 634 139 624 80 c 24
 620 56 603 0 603 0 c 1
 20 0 l 1
89 30 m 1
 89 30 117 72 136 136 c 0
 169 265 218 489 239 663 c 0
 245 711 236 743 159 739 c 1
 164 800 l 1
 239 794 385 795 468 795 c 0
 554 795 663 796 761 801 c 1
 761 801 754 744 750 720 c 24
 740 661 718 588 718 588 c 1
 647 596 l 1
 650 655 639 732 603 771 c 1
 689 722 l 1
 609 730 539 733 440 733 c 0
 390 733 373 703 365 673 c 0
 310 471 269 198 262 145 c 0
 256 99 254 44 313 44 c 1
 294 26 l 1
 89 30 l 1
231 367 m 1
 244 443 l 1
 444 444 l 1
 591 461 l 1
 575 370 l 1
 451 377 356 369 231 367 c 1
EndSplineSet
Layer: 4
EndChar

StartChar: F
Encoding: 38 70 35
GlifName: F_
Width: 828
VWidth: 79
Flags: HW
HStem: 0 61<20.5898 102.704> 370 74<409.947 521.553> 377 66<238.609 526.685> 728 66<386.461 701.916> 739 61<169.59 237.681>
LayerCount: 5
Back
Fore
SplineSet
227.58984375 377 m 1xa0
 238.609375 438 l 1xa0
 471.173828125 439 l 1
 593.916015625 456 l 1
 577.916015625 370 l 1xc0
 467.34100919 377 345.839038136 379 227.58984375 377 c 1xa0
19.58984375 0 m 1
 30.58984375 61 l 1
 102.366454158 57.1084580289 137.059338788 87.8399436721 155.58984375 136 c 0
 198.672412557 270 231.970713649 482.04695919 254.58984375 663 c 0
 261.78984375 711 250.98984375 743 158.58984375 739 c 1
 169.58984375 800 l 1
 244.58984375 794 367.466796875 794 447.893554688 794 c 0
 526.267514417 794 643.838556826 796 763.916015625 801 c 1
 763.916015625 801 756.981934347 743.988920462 752.916015625 720 c 0
 742.916015625 665.46969697 720.916015625 598 720.916015625 598 c 1
 659.916015625 596 l 1
 661.932157678 635.651112919 657.625204644 683.43198497 643.995117188 722.344726562 c 1
 452.377929688 728 l 2
 383.079345637 730.301424311 357.147165433 698.451743947 346.750976562 643 c 0
 297.920297083 431.494208494 260.841202428 200.070590854 260.58984375 145 c 0
 260.175892238 61.4282766851 351.52057714 49.0802351526 387.939453125 51 c 1
 378.33984375 0 l 1
 94.58984375 0 l 1
 19.58984375 0 l 1
EndSplineSet
Layer: 2
Layer: 3
SplineSet
20 0 m 1
 21 61 l 1
 103 57 131 89 147 137 c 1
 271 146 l 1
 252 51 364 50 381 51 c 1
 382 0 l 1
 20 0 l 1
95 0 m 1
 95 0 127 72 146 136 c 0
 180 270 223 482 245 663 c 0
 251 711 242 743 165 739 c 1
 170 800 l 1
 245 794 371 794 454 794 c 0
 540 794 669 796 797 801 c 1
 797 801 790 744 786 720 c 24
 776 661 754 588 754 588 c 1
 683 596 l 1
 686 655 675 732 639 771 c 1
 715 721 l 1
 459 728 l 2
 401 729 381 705 371 663 c 0
 316 443 277 202 271 145 c 0
 266 101 274 49 353 49 c 1
 328 1 l 1
 95 0 l 1
228 377 m 1
 240 443 l 1
 480 444 l 1
 627 461 l 1
 611 370 l 1
 487 377 353 379 228 377 c 1
EndSplineSet
Layer: 4
EndChar

StartChar: P
Encoding: 48 80 36
GlifName: P_
Width: 735
VWidth: 79
Flags: HW
HStem: 0 61<270.161 349.079> 301 66<332.04 491.533> 746 56<368.553 549.941>
LayerCount: 5
Back
Fore
SplineSet
29.8212890625 0 m 1
 40.8212890625 47 l 5
 97.8212890628 46 132.821289062 63 143.821289062 113 c 4
 190.821289062 338.117647059 216.821289062 479.470588235 236.821289062 647 c 0
 243.821289062 699.579439252 235.821289062 750.345794393 142.821289062 744 c 1
 144.821289062 797 l 1
 330.821289062 785 402.0390625 802 543.0390625 802 c 0
 691.935546875 802 734.935546875 717 716.935546875 607 c 0
 688.935546875 438 553.896740845 325.986068695 395.798828125 301 c 0
 321.54274673 289.264439936 265.525390625 293.401367188 242 298.001953125 c 1
 226.033203125 301.124023438 274.821289062 334 274.821289062 334 c 1
 255.821289062 232.190045249 248.821289062 184.339366516 245.375976562 109 c 4
 241.94140625 51 299.259765625 47 349.079101562 47 c 5
 338.774414062 0 l 1
 274.84375 -1 103.821289062 0 29.8212890625 0 c 1
284.821289062 409 m 1
 311.806640625 383 381.796347038 358.187036703 439.997070312 367 c 0
 566.388671875 386.138671875 608.002929688 484 617.935546875 561 c 0
 632.639648438 674.990234375 571.225585938 744 486.046875 746 c 0
 442.817732923 747.015022219 391.021484375 738 367.426757812 729 c 1
 334.821289062 662 302.778320312 507 284.821289062 409 c 1
EndSplineSet
Layer: 2
Layer: 3
SplineSet
20 0 m 1
 21 61 l 1
 98 51 133 77 144 127 c 0
 191 342 217 467 237 627 c 0
 244 685 236 741 143 734 c 1
 145 797 l 1
 331 785 404 802 554 802 c 0
 709 802 752 717 734 607 c 0
 706 438 561 303 403 301 c 0
 352 300 286 314 286 314 c 1
 267 214 265 197 262 123 c 0
 259 65 303 61 356 61 c 1
 367 0 l 1
 299 -1 94 0 20 0 c 1
305 409 m 1
 334 383 376 366 428 367 c 0
 541 368 595 464 615 571 c 0
 636 684 574 744 494 746 c 0
 448 747 393 738 368 729 c 1
 346 652 323 507 305 409 c 1
EndSplineSet
Layer: 4
EndChar

StartChar: S
Encoding: 51 83 37
GlifName: S_
Width: 656
VWidth: 153
Flags: W
HStem: -14 71<218.961 378.604>
VStem: 458.418 93<133.362 228.343>
LayerCount: 5
Back
SplineSet
105.231445312 24 m 5
 108.166992188 69 124.272460938 149 149.849609375 226 c 5
 243.91015625 215 l 5
 237.331054688 155 241.280273438 98 271.521484375 54 c 5
 214.990234375 68 197.864257812 124 196.5625 179 c 5
 225.98046875 136 254.524414062 63.0537109375 352.521484375 54 c 4
 471.58203125 43 529.883789062 95.4609375 549.331054688 155 c 4
 605.834960938 328 246.833007812 345 248.685546875 554 c 4
 250.90234375 680 364.530273438 814 564.825195312 810 c 4
 684.47265625 808 758.830078125 776 758.830078125 776 c 5
 756.366210938 728 737.3203125 637 722.561523438 593 c 5
 632.501953125 604 l 5
 638.96484375 652 634.366210938 728 618.297851562 790 c 6
 659.204101562 625 l 5
 644.259765625 648 633.950195312 754 520.126953125 755 c 4
 439.302734375 756 390.018554688 692 386.8515625 623 c 4
 378.700195312 452 698.934570312 459 679.083984375 233 c 4
 665.634765625 83 557.178710938 -16 337.001953125 -17 c 4
 203.896484375 -17.6044921875 105.231445312 24 105.231445312 24 c 5
EndSplineSet
Fore
SplineSet
50.1279296875 17 m 1
 59.1279296875 60 69.1279296875 137 82.1279296875 211 c 1
 106.127929688 163 175.127929688 61 315.178710938 57 c 0
 396.9375 55 459.41796875 113 458.41796875 172 c 0
 456.41796875 303 170.127929688 353 195.127929688 550 c 0
 214.127929688 704 317.145507812 776 488.416015625 794 c 0
 551.41796875 800 634.41796875 798 634.41796875 798 c 1
 636.41796875 794 638.41796875 790 640.41796875 785 c 1
 628.41796875 732 614.41796875 669 604.41796875 599 c 1
 567.41796875 669 481.1171875 726 386.081054688 717 c 0
 304.216796875 709 288.373046875 633 299.0078125 572 c 0
 322.083007812 443 550.41796875 397 551.41796875 227 c 0
 552.41796875 67 403.41796875 -14 242.047851562 -14 c 0
 140.127929688 -14 82.1279296875 -2 60.1279296875 4 c 1
 53.1279296875 12 50.1279296875 17 50.1279296875 17 c 1
EndSplineSet
Layer: 2
Layer: 3
SplineSet
52 17 m 1
 61 60 71 137 84 211 c 1
 108 163 177 61 326 57 c 0
 413 55 476 113 475 172 c 0
 473 303 172 353 197 550 c 0
 216 704 320 776 502 794 c 0
 568 800 651 798 651 798 c 1
 653 794 655 790 657 785 c 1
 645 732 631 669 621 599 c 1
 584 669 495 726 394 717 c 0
 307 709 291 633 303 572 c 0
 329 443 567 397 568 227 c 0
 569 67 420 -14 249 -14 c 0
 142 -14 84 -2 62 4 c 1
 55 12 52 17 52 17 c 1
EndSplineSet
Layer: 4
EndChar

StartChar: U
Encoding: 53 85 38
GlifName: U_
Width: 822
VWidth: 79
Flags: HW
HStem: 780 20G<28.918 61.418>
LayerCount: 5
Back
Fore
SplineSet
25.91796875 749 m 5
 25.91796875 759.816901408 28.91796875 790.915492958 28.91796875 797 c 1
 369.07421875 798 l 1
 369.07421875 798 365.767578125 768.276923077 365.56640625 756 c 5
 256.293559596 751.236166706 234.500912244 687.437200788 209.495117188 612 c 0
 169.174610914 484 143.91796875 298 139.91796875 255 c 0
 127.627296647 138 176.576432559 54 312.407226562 65 c 0
 402.732421875 73 478.705078125 146 508.184570312 267 c 0
 538.184570312 389 567.184570312 515 578.184570312 641 c 4
 588.043384865 753.92823943 541.3671875 750.668850575 473.58203125 748 c 1
 473.750976562 758.816901408 477.998046875 789.915492958 478.092773438 796 c 1
 783.184570312 797 l 1
 783.184570312 797 780.184570312 767.276923077 780.184570312 755 c 1
 721.184570312 753.120915033 684.268750232 730.920032365 667.184570312 663 c 4
 626.184570312 500 610.184570312 347 582.184570312 240 c 0
 532.184570312 49 377.372070312 -14 256.111328125 -14 c 0
 148.01171875 -14 -6.08203125 30 29.91796875 235 c 0
 51.91796875 359 97.91796875 556 108.91796875 640 c 0
 117.91796875 726.95505618 100.91796875 751.785635603 25.91796875 749 c 5
EndSplineSet
Layer: 2
Layer: 3
SplineSet
21.2451171875 729 m 1
 21.2451171875 745 24.2451171875 791 24.2451171875 800 c 1
 89.2451171875 794 107.245117188 791 179.245117188 792 c 0
 220.245117188 792 310.245117188 793 372.245117188 801 c 1
 372.245117188 801 369.245117188 755 369.245117188 736 c 1
 270.245117188 750 232.245117188 679 215.245117188 612 c 0
 183.245117188 484 149.245117188 298 145.245117188 255 c 0
 134.245117188 138 184.245117188 54 320.245117188 65 c 0
 416.245117188 73 496.245117188 146 526.245117188 267 c 0
 556.245117188 389 572.245117188 515 596.245117188 641 c 0
 614.245117188 732 556.245117188 738 484.245117188 728 c 1
 484.245117188 744 488.245117188 790 488.245117188 799 c 1
 553.245117188 793 600.245117188 790 672.245117188 791 c 0
 713.245117188 791 739.245117188 792 801.245117188 800 c 1
 801.245117188 800 798.245117188 754 798.245117188 735 c 1
 749.245117188 742 697.245117188 717 685.245117188 663 c 0
 647.245117188 500 628.245117188 347 600.245117188 240 c 0
 550.245117188 49 390.245117188 -14 261.245117188 -14 c 0
 146.245117188 -14 -10.7548828125 30 25.2451171875 235 c 0
 47.2451171875 359 93.2451171875 556 104.245117188 640 c 0
 113.245117188 711 106.245117188 740 21.2451171875 729 c 1
EndSplineSet
Layer: 4
EndChar

StartChar: I
Encoding: 41 73 39
GlifName: I_
Width: 502
VWidth: 79
Flags: HW
HStem: 0 58<288.255 372.404> 780 20G<148.856 181.356>
LayerCount: 5
Back
Fore
SplineSet
32.8564453125 -1 m 1
 43.8564453125 55 l 1
 105.137470473 50 162.821826091 81 184.42578125 174 c 0
 213.754882812 284.530273438 244.142578125 479.490234375 265.0546875 643 c 0
 274.216796875 714.635742188 212.856445312 753 140.856445312 753 c 1
 148.856445312 800 l 1
 269.068604557 797.805769252 394.984600732 800.999816167 510.404296875 805 c 1
 510.404296875 805 506.404296875 774.617021277 501.404296875 754 c 1
 451.404296875 751 393.551971649 736.893141724 373.5078125 671 c 0
 343.276367188 571.6171875 286.416992188 287 283.193359375 160 c 0
 281.711719791 90.001953125 297.540840711 56 383.404296875 53 c 5
 372.404296875 0 l 5
 32.8564453125 -1 l 1
EndSplineSet
Layer: 2
Layer: 3
SplineSet
10 -1 m 1
 14 59 l 1
 84 44 156 79 176 162 c 4
 204 273 246.59375 479.490234375 267 643 c 0
 275.940429688 714.635742188 218 739 146 739 c 1
 146 755 149 791 149 800 c 1
 214 794 254 791 326 792 c 0
 367 792 457 793 519 801 c 1
 519 801 516 765 516 746 c 1
 466 753 397.947265625 718.841796875 380 665 c 0
 346 563 278 267 276 140 c 0
 274.897460938 70.001953125 329 51 382 58 c 1
 381 0 l 1
 10 -1 l 1
EndSplineSet
Layer: 4
EndChar

StartChar: O
Encoding: 47 79 40
GlifName: O_
Width: 778
VWidth: 153
Flags: HW
LayerCount: 5
Back
Fore
SplineSet
59.00390625 315 m 4
 90.5689058415 541.92659402 276.989257812 778.262695312 498.331054688 793 c 4
 633.5 802 773.94921875 747 759.94921875 488 c 4
 747.109375 250.454101562 565.063021371 -20.4642070262 296.307617188 -14 c 4
 130.00390625 -10 33.0791840507 128.622398678 59.00390625 315 c 4
216.00390625 475 m 4
 153.892578125 278.250976562 189.356445312 38 373.685546875 54 c 4
 506.728564834 65.5483028415 600.510742188 210.685546875 626.94921875 404 c 4
 652.37109375 589.883789062 589.158203125 756.7265625 435.196289062 725 c 4
 372.110351562 712 265.567382812 632 216.00390625 475 c 4
EndSplineSet
Layer: 2
Layer: 3
SplineSet
59.146484375 315 m 0
 108.146484375 606 319.146484375 804 555.146484375 803 c 0
 752.146484375 802 870.146484375 697 816.146484375 438 c 0
 768.146484375 205 614.146484375 -19 328.146484375 -14 c 0
 100.146484375 -10 27.146484375 121 59.146484375 315 c 0
208.146484375 411 m 0
 166.146484375 209 239.146484375 53 403.146484375 69 c 0
 544.146484375 84 656.146484375 232 691.146484375 404 c 0
 731.146484375 599 642.146484375 750 477.146484375 726 c 0
 410.146484375 716 259.146484375 659 208.146484375 411 c 0
EndSplineSet
Layer: 4
EndChar

StartChar: T
Encoding: 52 84 41
GlifName: T_
Width: 602
VWidth: 79
Flags: HW
HStem: 0 61<86.8916 157.258> 0 51<362.508 387.986> 746 13<262.398 290.599> 780 20G<91.1514 152.389 643.804 691.271>
VStem: 54.1514 79<613 686.5> 574.771 71<596 680.893>
LayerCount: 5
Back
Fore
SplineSet
54.1513671875 600 m 1x3c
 86.1513671872 734.945 82.1513671872 701.455 100.151367188 797 c 1
 204.626953125 798.5 269.454796417 799 380.385742188 799 c 0
 445.245117188 799 592.8359375 799.444444444 694.771484375 803 c 1
 687.771484375 776.971830986 646.771484375 608.718309859 645.771484375 605 c 1
 595.771484375 603 l 1
 599.477363717 662 589.228668763 739 553.263671875 778 c 1
 603.771484375 738 l 5
 524.521484375 743.653846154 447.388671875 745 368.428710938 745 c 0
 282.888671875 745 176.604492188 739 141.151367188 740 c 1
 196.567382812 767 l 1
 154.826171875 731 119.932617188 646 110.151367188 610 c 1
 54.1513671875 600 l 1x3c
66.5068359375 0 m 1
 86.8916015625 61 l 1
 154.835437534 57.1427330643 193.25584196 92.3430818156 208.60546875 140 c 0
 251.000976562 271.627906977 288.585224653 520.722609667 303.26171875 706 c 0
 306.769525023 750.282863997 310.598632812 763 282.3984375 763 c 1
 453.578125 787 l 1
 366.086914062 623.1856 305.2217763 212.63565398 309.020507812 155 c 0
 314.507575602 71.7483304504 348.620722115 49.2691134349 397.92578125 51 c 1
 387.986328125 0 l 1
 148.286132812 0 l 1
 66.5068359375 0 l 1
EndSplineSet
Layer: 2
Layer: 3
SplineSet
52 600 m 1
 84 737 80 703 98 800 c 1
 205 794 274 791 392 792 c 0
 461 792 618 793 721 801 c 1
 714 773 673 592 672 588 c 1
 601 596 l 1
 604 655 593 732 557 771 c 1
 630 702 l 1
 546 733 464 728 380 728 c 0
 289 728 176 722 139 723 c 1
 200 760 l 1
 156 724 141 649 131 613 c 1
 52 600 l 1
67 0 m 1
 88 61 l 1
 163 57 192 89 207 137 c 1
 334 146 l 1
 315 51 401 50 419 51 c 1
 409 0 l 1
 67 0 l 1
154 0 m 1
 154 0 190 72 206 136 c 0
 239 266 287 516 311 699 c 0
 317 743 297 746 267 746 c 1
 262 759 l 1
 325 757 470 780 470 780 c 1
 411 588 340 202 334 145 c 0
 329 101 309 49 391 49 c 1
 366 1 l 1
 154 0 l 1
EndSplineSet
Layer: 4
EndChar

StartChar: R
Encoding: 50 82 42
GlifName: R_
Width: 828
VWidth: 79
Flags: HW
HStem: 0 61<270.175 349.094 473.469 538.137 709.969 777.55> 746 56<368.568 549.887>
LayerCount: 5
Back
Fore
SplineSet
19.8212890625 0 m 1
 30.8212890625 51 l 1
 101.561126461 41 131.19824591 67.5754739698 143.821289062 117 c 0
 200.928815944 340.6 232.466414379 470.605542889 256.821289062 637 c 0
 265.310650765 695 255.608523105 751 142.821289062 744 c 1
 144.821289062 797 l 1
 330.821289062 785 402.053710938 802 543.053710938 802 c 0
 692.549804688 802 735.768685545 716.963959461 717.549804688 607 c 0
 689.549804688 438 549.535960551 333.849140368 400.830078125 331 c 0
 348.636832718 330 277.821289062 324 277.821289062 324 c 1
 266.009643455 219.024875622 266.764684461 190.512151522 261.389648438 113 c 0
 257.173059665 52.1935483871 307.912438045 48 369.09375 48 c 1
 358.788085938 0 l 1
 294.857421875 -1 93.8212890625 0 19.8212890625 0 c 1
296.821289062 419 m 1
 321.1061013 403 370.915943792 391.087306015 425.028320312 397 c 0
 519.913523147 407.367816092 579.426794326 459.747335333 598.549804688 561 c 0
 621.598799914 683.04 568.569479942 747.642285521 486.060546875 750 c 0
 442.831054688 751.235294118 391.036132812 740.117647059 367.44140625 729 c 1
 342.254796916 652 317.74054343 517 296.821289062 419 c 1
370.211914062 369 m 1
 389.721089481 362 449.230026853 377 474.462890625 387 c 5
 474.462890625 387 607.331667012 46.9601226994 777.549804688 48 c 1
 768.549804688 0 l 1
 655.549804688 5 577.549804688 3 463.46875 0 c 1
 470.311523438 44 l 1
 503.549804688 40 562.501454311 47.462310179 529.549804688 113 c 0
 513.659179688 144.604938272 439.25390625 317.378600823 370.211914062 369 c 1
EndSplineSet
Layer: 2
Layer: 3
SplineSet
20 0 m 1
 21 61 l 1
 98 51 133 77 144 127 c 0
 191 342 217 467 237 627 c 0
 244 685 236 741 143 734 c 1
 145 797 l 1
 331 785 404 802 554 802 c 0
 709 802 752 717 734 607 c 0
 706 438 566 333 408 331 c 0
 357 330 288 324 288 324 c 1
 269 224 265 197 262 123 c 0
 259 65 303 61 356 61 c 1
 367 0 l 1
 299 -1 94 0 20 0 c 1
307 419 m 1
 331 403 380 391 433 397 c 0
 528 408 585 464 605 571 c 0
 626 684 574 744 494 746 c 0
 448 747 393 738 368 729 c 1
 346 652 325 517 307 419 c 1
375 369 m 1
 403 362 488 377 524 387 c 1
 524 387 644 60 794 61 c 1
 795 0 l 1
 682 5 604 3 489 0 c 1
 485 57 l 1
 520 53 580 61 546 126 c 0
 530 156 449 320 375 369 c 1
EndSplineSet
Layer: 4
EndChar

StartChar: Q
Encoding: 49 81 43
GlifName: Q_
Width: 894
VWidth: 153
Flags: HW
HStem: -239 111<476.225 743.4>
LayerCount: 5
Back
Fore
SplineSet
285.422851562 -4 m 1
 358.422851562 5 l 1
 395.989257812 -96 489.671875 -126 595.87109375 -128 c 0
 712.115234375 -130 829.115234375 -86 829.115234375 -86 c 1
 794.115234375 -204 l 1
 727.115234375 -224 659.545898438 -240 553.336914062 -239 c 0
 322.422851562 -235 302.422851562 -74 285.422851562 -4 c 1
EndSplineSet
Refer: 40 79 N 1 0 0 1 0 0 2
Layer: 2
Layer: 3
SplineSet
297.344726562 -4 m 1
 370.344726562 5 l 1
 408.344726562 -96 508.344726562 -126 621.344726562 -128 c 0
 744.344726562 -130 861.344726562 -86 861.344726562 -86 c 1
 826.344726562 -204 l 1
 759.344726562 -224 690.344726562 -240 577.344726562 -239 c 0
 334.344726562 -235 314.344726562 -74 297.344726562 -4 c 1
EndSplineSet
Refer: 40 79 N 1 0 0.176327 1 -35.6556 0 2
Layer: 4
EndChar

StartChar: L
Encoding: 44 76 44
GlifName: L_
Width: 675
VWidth: 79
Flags: HW
HStem: 0 61<40.2002 101.776> 26 18<256.611 294.021> 733 59<389.034 483.851> 739 61<171.626 238.337>
LayerCount: 5
Back
Fore
SplineSet
19.2001953125 0 m 1
 40.2001953125 61 l 1
 115.200195312 57 134.200195312 89 149.45460445 136.995536682 c 0
 182.425992269 266.149954081 226.254114861 419.446761976 247.200195312 663 c 0
 251.727394151 715.640585385 243.900195312 750.368421053 159.200195312 746 c 1
 162.200195312 800 l 1
 498.626953125 802 l 1
 487.850585938 747 l 1
 398.021933944 747 384.986690374 728.020652541 363.24609375 673 c 0
 286.200195312 469.03030303 262.200195312 215.992424242 255.200195312 165 c 0
 249.685992615 126.594310114 244.474832325 78.3331453833 291.698242188 73 c 0
 365.731243885 65.3196730218 453.614440512 75.1174094829 501.891601562 82.505859375 c 5
 527.867713183 120.488934048 552.037696083 165.981506558 562.9921875 204 c 5
 635.9921875 212 l 5
 635.9921875 212 631.9921875 139 621.9921875 80 c 4
 617.9921875 56 600.9921875 0 600.9921875 0 c 5
 19.2001953125 0 l 1
EndSplineSet
Layer: 2
Layer: 3
SplineSet
20 0 m 1
 41 61 l 1
 116 57 135 89 150 137 c 1
 264 135 l 1
 262 117 260 77 295 73 c 0
 383 64 490 79 528 86 c 1
 463 29 l 1
 503 68 552 145 569 204 c 1
 642 212 l 1
 642 212 638 139 628 80 c 24
 624 56 607 0 607 0 c 1
 20 0 l 1
103 30 m 1
 103 30 131 72 150 136 c 0
 183 265 227 489 248 663 c 0
 254 711 245 743 168 739 c 1
 173 800 l 1
 248 794 304 792 387 792 c 0
 425 792 462 794 507 796 c 1
 492 732 l 1
 475 732 457 733 439 733 c 0
 389 733 381 693 375 673 c 0
 317 471 273 198 266 145 c 0
 260 99 258 44 317 44 c 1
 298 26 l 1
 103 30 l 1
EndSplineSet
Layer: 4
EndChar

StartChar: G
Encoding: 39 71 45
GlifName: G_
Width: 752
VWidth: 79
Flags: HW
HStem: -37 94<261.85 442.132> 314 74<374.392 579.302> 720 82<396.577 607.13>
VStem: 644.566 65<577 652.195>
LayerCount: 5
Back
Fore
SplineSet
50.8369140625 281 m 0
 74.435546875 484.150390625 278.600585938 785.946289062 703 786.759765625 c 1
 720.254882812 758 l 1
 712.288085938 713.092773438 694.629882812 650.907226562 683.254882812 563 c 1
 655 638 593.836769355 690.473279646 485.721679688 685 c 0
 367.202148438 679 206.629882812 543 168.836914062 367 c 0
 133.137794992 200.750955158 211.014518082 75.5768268069 350.576171875 62 c 4
 451.211914062 52.2099609375 554.287109375 109 610.254882812 157 c 1
 628.254882812 123 l 1
 543.109375 35 430.159179688 -17 296.678710938 -17 c 0
 154.918945312 -17 26.59375 72.2958984375 50.8369140625 281 c 0
501.916015625 55 m 1
 559.56640625 155 571.56640625 338 581.56640625 397 c 1
 658.56640625 397 l 1
 659.56640625 345 646.56640625 189 627.56640625 125 c 1
 501.916015625 55 l 1
359.234375 397 m 1
 656.56640625 397 l 1
 623.56640625 314 l 1
 569.56640625 342 530.4609375 352 359.391601562 353 c 1
 359.234375 397 l 1
EndSplineSet
Layer: 2
Layer: 3
SplineSet
25.447265625 299 m 0
 65.447265625 537 238.447265625 802 569.447265625 802 c 0
 690.447265625 802 763.447265625 767 763.447265625 767 c 1
 757.447265625 716 745.447265625 616 735.447265625 574 c 1
 670.447265625 577 l 1
 654.447265625 665 605.447265625 748 560.447265625 755 c 1
 578.447265625 776 755.447265625 747 685.447265625 652 c 1
 669.447265625 656 613.447265625 720 490.447265625 720 c 0
 340.447265625 720 210.447265625 592 172.447265625 396 c 0
 138.447265625 222 185.447265625 60 371.447265625 57 c 0
 480.447265625 55 551.447265625 97 605.447265625 149 c 1
 668.447265625 116 l 1
 575.447265625 1 427.447265625 -37 320.447265625 -37 c 0
 106.447265625 -37 -10.552734375 92 25.447265625 299 c 0
387.447265625 388 m 1
 697.447265625 388 l 1
 664.447265625 275 l 1
 610.447265625 303 570.447265625 313 388.447265625 314 c 1
 387.447265625 388 l 1
532.447265625 46 m 1
 590.447265625 146 602.447265625 329 612.447265625 388 c 1
 699.447265625 388 l 1
 700.447265625 336 687.447265625 180 668.447265625 116 c 1
 532.447265625 46 l 1
EndSplineSet
Layer: 4
EndChar

StartChar: D
Encoding: 36 68 46
GlifName: D_
Width: 826
VWidth: 79
Flags: HW
HStem: 0 75<304.854 483.017> 738 65<397.842 601.327>
LayerCount: 5
Back
Fore
SplineSet
30.548828125 0 m 1
 41.548828125 60 l 1
 118.548828125 50 161.170898438 96.5419921875 174.548828125 147 c 0
 234.201360128 347.795898438 256.344008848 511 267.548828125 628 c 0
 272.523927481 686.208662469 247.548828125 752 154.548828125 745 c 1
 165.548828125 798 l 1
 355.548828125 786 469.475585938 807.747070312 553.94140625 803 c 0
 731.861328125 793 837.58203125 661 791.58203125 413 c 0
 729.38137541 92 489.048891308 14 273.526367188 0 c 0
 209.681293495 -4.228515625 104.548828125 0 30.548828125 0 c 1
281.548828125 162 m 0
 278.690429688 99.7470703125 302.421175358 94.4741670554 352.259765625 95 c 0
 547.756652282 97 646.173839791 197.778320312 681.58203125 342 c 0
 735.110353057 566.854883791 680.3203125 714.583984375 513.353515625 732 c 0
 452.923828125 738.303710938 426.958984375 739 406.548828125 729 c 1
 343.505349864 593 291.331436821 358 281.548828125 162 c 0
EndSplineSet
Layer: 2
Layer: 3
SplineSet
52 0 m 1
 53 61 l 1
 130 51 165 77 176 127 c 0
 223 342 249 468 269 628 c 0
 276 686 269 742 176 735 c 1
 177 798 l 1
 367 786 517 803 607 803 c 0
 775 803 913 711 867 463 c 0
 806 142 617 4 339 0 c 0
 271 -1 126 0 52 0 c 1
297 142 m 0
 291 80 337 74 390 75 c 0
 581 77 700 196 737 372 c 0
 784 596 689 734 522 738 c 0
 468 739 427 729 398 719 c 1
 340 483 316 338 297 142 c 0
EndSplineSet
Layer: 4
EndChar

StartChar: J
Encoding: 42 74 47
GlifName: J_
Width: 579
VWidth: 79
Flags: HW
HStem: -227 1019<74.559 379.443> 780 20G<208.559 240.79>
LayerCount: 5
Back
Fore
SplineSet
-69.44140625 -193 m 1x80
 -33.44140625 -162 l 1
 174.629335868 -210.982300885 202.728108496 -27.8907680874 225.443359375 84 c 0
 248.454853628 207.164579606 298.665745137 468.025020614 302.443359375 653 c 0
 304.332125373 745.485476158 230.861486604 749 195.55859375 739 c 1
 195.55859375 752.746478873 208.55859375 792.267605634 208.55859375 800 c 1x40
 562.443359375 801 l 1
 559.443359375 746 l 1
 505.475105407 753 438.566831387 729.751065858 423.443359375 675 c 4
 358.443359375 405.031948882 345.680029525 208.848935769 309.443359375 -1 c 4
 289.949361044 -113.891024113 217.40126386 -227 34.55859375 -227 c 0
 -20.44140625 -227 -56.44140625 -201 -69.44140625 -193 c 1x80
EndSplineSet
Layer: 2
Layer: 3
SplineSet
-26 -193 m 1
 10 -142 l 1
 182 -187 201 -18 223 84 c 0
 249 205 281 460 310 643 c 0
 325 734 241 739 209 729 c 1
 209 745 212 791 212 800 c 1
 277 794 315 791 387 792 c 0
 428 792 508 793 570 801 c 1
 570 801 567 755 567 736 c 1
 517 743 454 720 441 665 c 0
 386 415 360 261 327 39 c 0
 308 -94 245 -226 78 -227 c 0
 23 -227 -13 -201 -26 -193 c 1
EndSplineSet
Layer: 4
EndChar

StartChar: K
Encoding: 43 75 48
GlifName: K_
Width: 822
VWidth: 79
Flags: HW
HStem: 0 61<677.651 740.037> 0 54<285.064 320.237 446.197 505.994> 389 69<403.924 437.152> 735 63<151.611 240.071 555.36 619.405 725.779 811.037>
LayerCount: 5
Back
Fore
SplineSet
294 469 m 1
 322 462 380 456 416 466 c 1
 416 466 605 50 755 51 c 1
 746 0 l 1
 633 5 555 3 440 0 c 1
 446 47 l 1
 481 43 521.385742188 44.0693359375 507 116 c 0
 501 146 353 390 294 469 c 1
384 458 m 1
 406 468 584 635 618 698 c 0
 631.135742188 722.33984375 627 755 548 752 c 1
 560 799 l 1
 828 802 l 1
 816 753 l 1
 776 754 745.467773438 724.31640625 709 694 c 0
 626 625 459 435 413 368 c 1
 384 458 l 1
13 0 m 1
 21 44 l 1
 94.1177929705 40.1003843749 135.062898027 67.1020734919 151 116 c 0
 195 251 242 509 251 699 c 0
 253.289302845 743.052759763 223.572815534 755 138 755 c 5
 142 804 l 5
 393 804 l 1
 290 551 259 188 252 125 c 0
 242.418945312 40.69140625 297.0859375 42.3935546875 326 44 c 1
 319 0 l 1
 90 0 l 1
 13 0 l 1
EndSplineSet
Layer: 2
Layer: 3
SplineSet
20 0 m 5
 21 64 l 5
 96 60 137 89 152 137 c 5
 262 146 l 5
 243 51 308 53 326 54 c 5
 326 0 l 5
 20 0 l 5
97 0 m 5
 97 0 132 72 151 136 c 4
 185 271 222 489 251 679 c 4
 254 723 226 735 148 735 c 5
 152 798 l 5
 235 796 403 810 403 810 c 5
 340 597 269 208 262 145 c 4
 257 101 215 52 297 52 c 5
 272 1 l 5
 97 0 l 5
268 489 m 5
 297 477 327 458 414 458 c 5
 436 468 574 629 628 692 c 4
 646 713 647 739 568 736 c 5
 570 799 l 5
 687 797 838 802 838 802 c 5
 836 737 l 5
 796 738 767 731 732 699 c 4
 659 630 482 416 446 389 c 5
 415 387 338 390 284 380 c 5
 268 489 l 5
324 469 m 5
 352 462 410 456 446 466 c 5
 446 466 615 60 765 61 c 5
 766 0 l 5
 653 5 575 3 460 0 c 5
 456 57 l 5
 491 53 551 61 517 126 c 4
 501 156 363 390 324 469 c 5
EndSplineSet
Layer: 4
EndChar

StartChar: Z
Encoding: 58 90 49
GlifName: Z_
Width: 827
VWidth: 79
Flags: W
HStem: 0 73<225.036 572.319> 733 63<317.093 596.507>
LayerCount: 5
Back
Fore
SplineSet
49.919921875 0 m 1
 52.919921875 14 63.919921875 46 69.919921875 71 c 1
 153.919921875 128 467.994140625 542 590.006835938 702 c 0
 603.357421875 720 610.075195312 733 563.075195312 733 c 0
 494.455078125 733 382.573242188 731 327.071289062 727 c 1
 298.448242188 687 286.639648438 637 274.919921875 596 c 1
 201.919921875 588 l 1
 201.919921875 588 205.919921875 661 215.919921875 720 c 0
 219.919921875 744 232.919921875 801 232.919921875 801 c 1
 279.919921875 803 383.26171875 796 464.1015625 796 c 0
 542.12109375 796 734.505859375 794 811.505859375 800 c 1
 788.505859375 739 l 1
 687.505859375 672 243.083007812 74 222.212890625 56 c 1
 193.696289062 115 l 1
 217.819335938 85 295.744140625 76 347.412109375 73 c 0
 418.799804688 68 528.853515625 75 574.505859375 82 c 1
 601.505859375 120 616.505859375 166 627.505859375 204 c 1
 700.505859375 212 l 1
 700.505859375 212 696.505859375 139 686.505859375 80 c 0
 682.505859375 56 665.505859375 0 665.505859375 0 c 1
 49.919921875 0 l 1
EndSplineSet
Layer: 2
Layer: 3
SplineSet
52 0 m 1
 55 14 66 46 72 71 c 1
 156 128 483 542 611 702 c 0
 625 720 632 733 582 733 c 0
 509 733 390 731 331 727 c 1
 301 687 289 637 277 596 c 1
 204 588 l 1
 204 588 208 661 218 720 c 0
 222 744 235 801 235 801 c 1
 282 803 390 796 476 796 c 0
 559 796 761 794 838 800 c 1
 815 739 l 1
 714 672 249 74 227 56 c 1
 196 115 l 1
 222 85 305 76 360 73 c 0
 436 68 553 75 601 82 c 1
 628 120 643 166 654 204 c 1
 727 212 l 1
 727 212 723 139 713 80 c 0
 709 56 692 0 692 0 c 1
 52 0 l 1
EndSplineSet
Layer: 4
EndChar

StartChar: Y
Encoding: 57 89 50
GlifName: Y_
Width: 756
VWidth: 79
Flags: W
HStem: -1 21G<128.927 423.752> 739 63<466.076 547.576> 744 58<57.4961 123.308 279.397 357.977 675.527 745.203>
LayerCount: 5
Back
Fore
SplineSet
55.49609375 744 m 1xa0
 57.49609375 802 l 1
 170.49609375 797 249.844726562 799 357.9765625 802 c 1xa0
 362.10546875 748 l 1
 289.662109375 742 257.51171875 724 272.919921875 670 c 0
 287.44140625 621 314.087890625 563 336.900390625 498 c 1
 341.23046875 463 352.001953125 415 352.001953125 415 c 1
 406.34375 487 465.364257812 557 538.88671875 665 c 0
 578.030273438 722 528.421875 742 463.530273438 739 c 1
 466.076171875 802 l 1xc0
 556.252929688 796 647.203125 798 745.203125 802 c 1
 746.203125 744 l 1
 686.203125 742 651.203125 710 614.203125 662 c 0
 495.833984375 505 422.470703125 412 373.684570312 332 c 1
 345.452148438 329 317.157226562 320 283.2109375 310 c 1
 250.450195312 412 218.280273438 481 155.3984375 668 c 0
 132.49609375 731 102.49609375 745 55.49609375 744 c 1xa0
127.640625 -1 m 1
 132.141601562 69 l 1
 197.783203125 54 225.456054688 93 241.045898438 145 c 0
 256.625 196 268.572265625 259 277.403320312 383 c 1
 393.150390625 395 l 1
 347.46875 253 344.69921875 169 347.022460938 122 c 0
 348.383789062 73 366.127929688 62 416.021484375 69 c 1
 423.751953125 0 l 1
 127.640625 -1 l 1
EndSplineSet
Layer: 2
Layer: 3
SplineSet
52 744 m 1
 54 802 l 1
 167 797 251 799 366 802 c 1
 371 748 l 1
 294 742 260 724 277 670 c 0
 293 621 322 563 347 498 c 1
 352 463 364 415 364 415 c 1
 421 487 483 557 560 665 c 0
 601 722 548 742 479 739 c 1
 481 802 l 1
 577 796 673 798 771 802 c 1
 772 744 l 1
 712 742 677 710 640 662 c 0
 516 505 439 412 388 332 c 1
 358 329 328 320 292 310 c 1
 256 412 221 481 152 668 c 0
 129 731 99 745 52 744 c 1
130 -1 m 1
 134 69 l 1
 204 54 233 93 249 145 c 0
 265 196 277 259 285 383 c 1
 408 395 l 1
 361 253 359 169 362 122 c 0
 364 73 383 62 436 69 c 1
 445 0 l 1
 130 -1 l 1
EndSplineSet
Layer: 4
EndChar

StartChar: X
Encoding: 56 88 51
GlifName: X_
Width: 928
VWidth: 79
Flags: W
HStem: -3 71<740.26 798.083> -3 65<59.25 138.83 292.13 353.658> 739 62<183.25 244.186 440.138 532.599 826.081 912.083>
LayerCount: 5
Back
Fore
SplineSet
50.25 -3 m 1x60
 59.25 62 l 1
 135.25 61 164.25 104 202.330078125 147 c 0
 249.922851562 203 369.950195312 353 431.938476562 437 c 1
 496.798828125 437 l 1
 553.907226562 504 629.974609375 586 669.065429688 638 c 0
 715.791992188 701 683.198242188 730 615.529296875 731 c 1
 620.029296875 801 l 1
 711.125 793 824.083007812 793 912.083007812 801 c 1
 912.083007812 739 l 1
 813.083007812 739 809.083007812 697 747.866210938 623 c 0
 685.961914062 547 597.473632812 446 550.86328125 394 c 1
 491.505859375 381 l 1
 430.721679688 322 365.881835938 235 314.359375 163 c 0
 280.97265625 117 269.956054688 53 353.658203125 57 c 1
 357.723632812 -3 l 1
 50.25 -3 l 1x60
181.25 734 m 1
 183.25 801 l 1
 306.893554688 790 438.514648438 792 532.598632812 800 c 1
 539.44140625 736 l 1
 443.551757812 735 399.095703125 709 421.971679688 650 c 0
 433.853515625 618 509.1875 453 515.629882812 440 c 1
 540.112304688 444 l 1
 587.05859375 350 666.836914062 72 798.083007812 68 c 1xa0
 801.083007812 -3 l 1
 441.383789062 -3 l 1
 442.060546875 61 l 1
 486.1875 56 569.911132812 62 534.203125 152 c 0
 510.376953125 210 465.533203125 325 434.1875 383 c 1
 406.926757812 383 l 1
 379.53125 459 328.793945312 550 298.641601562 632 c 0
 270.25 706 244.25 735 181.25 734 c 1
EndSplineSet
Layer: 2
Layer: 3
SplineSet
52 -3 m 1
 61 62 l 1
 137 61 166 104 205 147 c 0
 255 203 381 353 446 437 c 1
 515 437 l 1
 575 504 655 586 696 638 c 0
 745 701 710 730 638 731 c 1
 642 801 l 1
 739 793 859 793 947 801 c 1
 947 739 l 1
 848 739 844 697 780 623 c 0
 715 547 622 446 573 394 c 1
 510 381 l 1
 446 322 378 235 324 163 c 0
 289 117 278 53 367 57 c 1
 372 -3 l 1
 52 -3 l 1
183 734 m 1
 185 801 l 1
 309 790 449 792 549 800 c 1
 557 736 l 1
 455 735 408 709 433 650 c 0
 446 618 528 453 535 440 c 1
 561 444 l 1
 612 350 700 72 833 68 c 1
 836 -3 l 1
 461 -3 l 1
 461 61 l 1
 508 56 597 62 558 152 c 0
 532 210 483 325 449 383 c 1
 420 383 l 1
 390 459 335 550 302 632 c 0
 272 706 246 735 183 734 c 1
EndSplineSet
Layer: 4
EndChar

StartChar: N
Encoding: 46 78 52
GlifName: N_
Width: 992
VWidth: 79
Flags: HW
HStem: 0 69<275.334 360.42> 780 20G<158.526 207.026 680.433 710.999>
LayerCount: 5
Back
Fore
SplineSet
19.5263671875 0 m 1
 23.5263671875 39 l 1
 103.526367188 44 137.562509193 81.2973901333 165.190429688 162 c 0
 203.190429688 273 240.583984375 469 255.819335938 643 c 0
 263.864880343 734.88660469 220.526367188 749 148.526367188 749 c 1
 158.526367188 798 l 1
 421.916992188 798 l 1
 504.945587343 584.097796444 595.489257812 393.081054688 666.452148438 258 c 1
 676.52367564 222.536690848 685.802778493 135.578822545 694 106 c 1
 702.564453125 89.29296875 710.251953125 113.92578125 716.9609375 100 c 0
 720.030404317 99.2727272727 663.266470683 96.7272727273 666.3359375 96 c 1
 697.272460938 177 758.287109375 518.032226562 762.819335938 643 c 0
 765.411132812 714.450195312 740.6953125 744 662.909179688 749 c 1
 670.48046875 798 l 1
 987.3828125 798 l 1
 987.3828125 798 980.3828125 771 980.3828125 752 c 1
 930.3828125 759 885.680664062 719.321289062 868.3828125 665 c 0
 811.3828125 486 763.506835938 230 753.506835938 5 c 1
 725.4375 1 699.447265625 0 650.451171875 -11 c 1
 648.560546875 -12 l 1
 542.544921875 267.500976562 460.303710938 431.55859375 383.442382812 584 c 1
 380.588392929 591.754733845 351.900913079 714.159610038 349 722 c 5
 347.885742188 723.99609375 370.073242188 697.99609375 368.953125 700 c 5
 310.103677136 511.271719039 265.399279282 187.737523105 263.190429688 139 c 0
 261.509765625 69 318.196289062 35 368.08984375 42 c 1
 360.419921875 1 l 1
 19.5263671875 0 l 1
EndSplineSet
Layer: 2
Layer: 3
SplineSet
20 -1 m 1
 24 69 l 1
 94 54 146 79 166 162 c 0
 194 273 232 479 257 643 c 0
 272 734 228 739 156 729 c 1
 156 745 159 791 159 800 c 1
 256 791 317 790 432 794 c 1
 488 677 702 266 768 140 c 0
 772 132 700 104 704 96 c 1
 736 177 794 518 807 643 c 0
 816 734 776 739 704 729 c 1
 704 745 707 791 707 800 c 1
 772 794 792 791 864 792 c 0
 905 792 975 793 1037 801 c 1
 1037 801 1034 755 1034 736 c 1
 984 743 933 720 918 665 c 0
 871 486 827 215 797 0 c 1
 768 -4 751 -5 699 -16 c 1
 697 -17 l 1
 565 255 469 446 356 650 c 1
 312 468 266 186 264 139 c 0
 263 69 317 62 370 69 c 1
 369 0 l 1
 20 -1 l 1
EndSplineSet
Layer: 4
EndChar

StartChar: M
Encoding: 45 77 53
GlifName: M_
Width: 1132
VWidth: 79
Flags: HW
HStem: 0 69<273.016 372.818 937.777 1017.33> 780 20G<139.082 187.582 1086.85 1136.83>
LayerCount: 5
Back
Fore
SplineSet
10.08203125 -1 m 1
 18.08203125 40 l 1
 88.08203125 45 138.064453125 81.2265625 164.913085938 162 c 0
 201.806640625 273 239.706054688 479 255.541015625 643 c 0
 264.409179688 734.844726562 194.08203125 749 132.08203125 749 c 1
 139.08203125 794 l 1
 236.08203125 791 294.356445312 790 392.499023438 794 c 1
 416.060546875 711 489.1875 515 527.967773438 360 c 0
 542.373046875 300 537.102539062 214 551.741210938 176 c 1
 548.885742188 116 l 1
 523.161132812 112.96875 497.4140625 107.96875 462.18359375 95 c 1
 444.602539062 299 370.884765625 528 320.475585938 650 c 1
 317.560546875 641 353.345703125 682.122070312 350.798828125 673 c 0
 299.993164062 491 259.557617188 253 256.7890625 169 c 0
 254.482421875 99.0126953125 289.594726562 49 379.489257812 46 c 1
 372.818359375 0 l 1
 10.08203125 -1 l 1
484.385742188 150 m 1
 632.612304688 438 774.521484375 677 839.678710938 794 c 5
 935.856445312 794 1006.3671875 794 1107.328125 800 c 5
 1101.328125 749 l 5
 1023.328125 749 978.07421875 702.5703125 954.723632812 613 c 4
 911.96875 449 890.744140625 283 888.290039062 172 c 4
 886.44140625 88.38671875 937.328125 49 1013.328125 44 c 5
 1007.328125 -1 l 5
 624.858398438 0 l 5
 634.409179688 44 l 5
 702.274414062 47 749.153320312 74.9404296875 779.115234375 166 c 4
 803.682617188 240.6640625 854.349609375 488 875.604492188 720 c 5
 895.380859375 728 l 4
 766.061523438 576 658.760742188 365 549.826171875 116 c 1
 484.385742188 150 l 1
EndSplineSet
Layer: 2
Layer: 3
SplineSet
10 -1 m 1
 14 69 l 1
 84 54 138.347814356 81.2265103569 166 162 c 0
 204 273 242 479 257 643 c 0
 265.400421908 734.844612862 188 739 136 729 c 1
 136 745 139 791 139 800 c 1
 236 791 286 790 401 794 c 1
 427 711 507 515 550 360 c 0
 566 300 572 214 588 176 c 1
 575 116 l 5
 547.666666658 112.96863062 520.333007812 107.96875 483 95 c 5
 462 299 381 528 326 650 c 5
 323 641 360.606233457 682.121817098 358 673 c 0
 306 491 266 223 264 139 c 0
 262.333635533 69.0126923688 337 62 390 69 c 1
 389 0 l 1
 10 -1 l 1
506 150 m 1
 703 438 830 677 898 794 c 1
 1011 790 1086 791 1187 800 c 1
 1186 771 1185 745 1186 729 c 1
 1118 739 1049 704 1032 613 c 0
 999 449 977 303 965 192 c 0
 955 109 991 54 1067 69 c 1
 1067 -1 l 1
 655 0 l 1
 658 69 l 1
 709 62 807 96 830 166 c 0
 844 213 896 468 916 700 c 1
 907 690 966 739 958 728 c 0
 833 556 721 365 576 116 c 1
 506 150 l 1
EndSplineSet
Layer: 4
EndChar

StartChar: grave
Encoding: 64 96 54
GlifName: grave
Width: 486
VWidth: 0
Flags: W
HStem: 866 54<233.089 295.763>
LayerCount: 5
Back
Fore
SplineSet
232.088867188 920 m 9
 233.088867188 866 l 17
 344.088867188 881 526.997070312 958 597.997070312 1004 c 9
 554.997070312 1098 l 17
 480.173828125 1032 328.088867188 942 232.088867188 920 c 9
EndSplineSet
Layer: 2
Layer: 3
SplineSet
235 920 m 9
 236 866 l 17
 347 881 537 958 608 1004 c 9
 565 1098 l 17
 490 1032 331 942 235 920 c 9
EndSplineSet
Layer: 4
EndChar

StartChar: question
Encoding: 31 63 56
GlifName: question
Width: 549
VWidth: 153
Flags: HW
HStem: 749 46<246.96 410.084>
VStem: 91.7666 98.0645<184.929 257.813>
LayerCount: 5
Back
Fore
SplineSet
120.766601562 632 m 5
 131.861328125 681.672851562 138.271484375 735.216796875 139.766601562 785 c 5
 166 803.990234375 l 5
 225.6953125 809.198242188 321.24609375 806.8203125 370.23046875 797 c 4
 459.140471448 781.498046875 521.268891768 737.52734375 523.724609375 669 c 0
 527.927734375 511.778811204 362.755859375 480.962310649 272 380.662109375 c 0
 212.470703125 324.227539062 202.96484375 262.346679688 205.831054688 201 c 1
 93.7666015625 206 l 1
 102.766601562 281 146.041015625 330.418945312 196.766601562 374 c 0
 291.85546875 469.092207032 402.560546875 537.49653125 410.31640625 665 c 0
 415.268125144 720.037109375 388.934660682 752.262695312 316.465820312 756 c 4
 236.416992188 761.24609375 165.995117188 706.219726562 120.766601562 632 c 5
EndSplineSet
Refer: 10 46 N 1 0 0.176327 1 11 -3 2
Layer: 2
Layer: 3
SplineSet
149 580 m 1
 147 612 158 697 169 732 c 1
 228 765 321 801 408 801 c 0
 527 801 613 734 558 580 c 0
 502 425 374 365 281 334 c 1
 274 276 275 216 275 198 c 1
 162 196 l 1
 170 231 187 331 192 354 c 1
 246 368 393 392 437 532 c 1
 467 647 439 779 310 740 c 1
 257 698 196 617 166 577 c 1
 149 580 l 1
EndSplineSet
Refer: 10 46 N 1 0 0.176327 1 77 2 2
Layer: 4
EndChar

StartChar: quotesingle
Encoding: 7 39 57
GlifName: quotesingle
Width: 196
VWidth: 79
Flags: W
HStem: 565.35 322
VStem: -13.3877 248
LayerCount: 5
Back
Fore
Refer: 30 44 S 1 0 0 1 4 778.35 2
Layer: 2
Layer: 3
SplineSet
107 832 m 5
 235.26171875 797.5234375 l 1
 211.602185216 733.106388109 138.463565222 608.423148345 100 575 c 1
 36 596 l 1
 67.4730675007 653.91997674 103.025450469 779.787610619 107 832 c 5
EndSplineSet
Layer: 4
EndChar

StartChar: exclam
Encoding: 1 33 59
GlifName: exclam
Width: 325
VWidth: 153
Flags: W
VStem: 134.424 74<211 277.818>
LayerCount: 5
Back
Fore
SplineSet
134.423828125 206 m 1
 181.423828125 399 216.423828125 580 218.423828125 752 c 1
 249.423828125 776 308.423828125 793 342.423828125 791 c 1
 342.423828125 791 350.423828125 759 340.423828125 697 c 0
 312.423828125 531 266.423828125 414 208.423828125 211 c 1
 134.423828125 206 l 1
EndSplineSet
Refer: 10 46 N 1 0 0.176327 1 37 -10 2
Layer: 2
Layer: 3
SplineSet
138 206 m 1
 185 399 220 580 222 752 c 1
 253 776 312 793 346 791 c 1
 346 791 354 759 344 697 c 0
 316 531 270 414 212 211 c 1
 138 206 l 1
EndSplineSet
Refer: 10 46 N 1 0 0.176327 1 37 -10 2
Layer: 4
EndChar

StartChar: parenright
Encoding: 9 41 60
GlifName: parenright
Width: 368
VWidth: 153
Flags: W
LayerCount: 5
Back
Fore
SplineSet
32.9296875 -95 m 1
 136.9296875 37 229.9296875 241 260.9296875 402 c 0
 287.9296875 543 283.9296875 696 210.9296875 814 c 1
 281.9296875 865 l 1
 326.9296875 817 409.9296875 683 390.9296875 489 c 0
 368.9296875 262 244.9296875 54 91.9296875 -133 c 1
 32.9296875 -95 l 1
EndSplineSet
Layer: 2
Layer: 3
SplineSet
35 -95 m 1
 139 37 232 241 263 402 c 0
 290 543 286 696 213 814 c 1
 284 865 l 1
 329 817 412 683 393 489 c 0
 371 262 247 54 94 -133 c 1
 35 -95 l 1
EndSplineSet
Layer: 4
EndChar

StartChar: parenleft
Encoding: 8 40 61
GlifName: parenleft
Width: 369
VWidth: 153
Flags: W
LayerCount: 5
Back
Fore
SplineSet
118.85546875 235 m 0
 142.327148438 462 274.62109375 696 437.85546875 883 c 1
 482.85546875 849 l 1
 378.85546875 717 275.553710938 483.766601562 254.85546875 322 c 0
 238.09375 191 225.141601562 18 286.85546875 -110 c 1
 244.85546875 -164 l 5
 185.421875 -118 97.05859375 40.923828125 118.85546875 235 c 0
EndSplineSet
Layer: 2
Layer: 3
SplineSet
122 235 m 0
 145.471571906 462 277.765886288 696 441 883 c 1
 486 849 l 1
 382 717 278.698650632 483.767011044 258 322 c 0
 241.238095238 191 228.285714286 18 290 -110 c 1
 248 -164 l 5
 188.566037736 -118 100.202760816 40.9236501198 122 235 c 0
EndSplineSet
Layer: 4
EndChar

StartChar: hyphen
Encoding: 13 45 62
GlifName: hyphen
Width: 532
VWidth: 153
Flags: W
HStem: 328 85<62.4336 238.074 358.155 511.851>
LayerCount: 5
Back
Fore
SplineSet
45.43359375 328 m 1
 62.43359375 413 l 1
 248.258789062 403 352.598632812 403 523.463867188 413 c 1
 516.463867188 386 518.463867188 362 510.463867188 328 c 1
 45.43359375 328 l 1
EndSplineSet
Layer: 2
Layer: 3
SplineSet
97 328 m 1
 129 433 l 1
 320 423 431 423 605 433 c 1
 598 406 585 362 577 328 c 1
 97 328 l 1
EndSplineSet
Layer: 4
EndChar

StartChar: underscore
Encoding: 63 95 63
GlifName: underscore
Width: 646
VWidth: 153
Flags: W
HStem: 1 95<68.4473 271.749 430.431 597.977>
LayerCount: 5
Back
Fore
SplineSet
37.447265625 1 m 1
 68.447265625 96 l 1
 254.2265625 86 452.56640625 86 623.431640625 96 c 1
 616.432617188 69 604.431640625 35 596.432617188 1 c 1
 37.447265625 1 l 1
EndSplineSet
Layer: 2
Layer: 3
SplineSet
39 1 m 1
 70 96 l 1
 261 86 472 86 646 96 c 1
 639 69 627 35 619 1 c 1
 39 1 l 1
EndSplineSet
Layer: 4
EndChar

StartChar: emdash
Encoding: 213 8212 64
GlifName: emdash
Width: 644
VWidth: 153
Flags: W
HStem: 328 95<53.8633 259.075 417.855 599.719>
LayerCount: 5
Back
Fore
SplineSet
39.86328125 328 m 1
 53.86328125 423 l 1
 242.377929688 413 440.717773438 413 609.298828125 423 c 1
 607.298828125 396 601.298828125 362 599.298828125 328 c 1
 39.86328125 328 l 1
EndSplineSet
Layer: 2
Layer: 3
SplineSet
39 328 m 1
 53 423 l 1
 246 413 457 413 629 423 c 1
 627 396 621 362 619 328 c 1
 39 328 l 1
EndSplineSet
Layer: 4
EndChar

StartChar: r
Encoding: 82 114 66
GlifName: r
Width: 523
VWidth: 79
Flags: W
HStem: 519 41<63.7402 158.143> 592 20G<315.485 329.437 380.712 573.548>
LayerCount: 5
Back
Fore
SplineSet
49.740234375 519 m 1
 63.740234375 560 l 1
 198.416992188 564 314.544921875 612 316.424804688 612 c 1
 329.436523438 598 l 1
 318.747070312 565 298.491210938 513.681640625 276.107421875 444 c 4
 260.775390625 396.26953125 245.000976562 347 228.512695312 299 c 1
 250.090820312 295 l 1
 234.96484375 198 216.33203125 125 217.80859375 -2 c 1
 177.55078125 -1.1259765625 122.524414062 -7.1298828125 78.5263671875 -17.33984375 c 1
 66.740234375 -2 l 1
 103.013671875 76 162.563476562 196 179.516601562 288 c 0
 213.380859375 468 211.05859375 515 49.740234375 519 c 1
158.26171875 56 m 17
 231.341796875 211 200.876953125 530 560.547851562 615 c 1
 573.547851562 601 l 1
 556.547851562 536 547.547851562 498 537.547851562 436 c 1
 508.547851562 471 466.547851562 492 415.608398438 480 c 0
 297.645507812 451.115234375 200.375 216 203.76171875 3 c 9
 158.26171875 56 l 17
EndSplineSet
Layer: 2
Layer: 3
SplineSet
48 519 m 1
 62 560 l 1
 198 564 321 612 323 612 c 1
 337 598 l 1
 326 565 305.028320312 513.681640625 282 444 c 4
 266.2262409 396.270013704 250 347 233 299 c 1
 256 295 l 1
 241 198 222 125 225 -2 c 1
 182.163085938 -1.1259765625 123.69140625 -7.1298828125 77 -17.33984375 c 1
 65 -2 l 1
 102 76 164 196 181 288 c 0
 215 468 212 515 48 519 c 1
161 56 m 17
 237 211 201 530 576 615 c 1
 589 601 l 1
 572 536 563 498 553 436 c 1
 524 471 482 492 430 480 c 0
 304.833007812 451.115234375 204 216 210 3 c 9
 161 56 l 17
EndSplineSet
Layer: 4
EndChar

StartChar: f
Encoding: 70 102 67
GlifName: f
Width: 434
VWidth: 79
Flags: W
HStem: 499 67<287.457 383.902> 507 62<76.9736 170.287 309.595 415.188>
VStem: 195.625 91.832<569 639.589>
LayerCount: 5
Back
SplineSet
40 483 m 5x20
 40 551 l 5
 82.6171875 549.163085938 115.038085938 547.866210938 164.651367188 547.2578125 c 5
 230.915039062 775.401367188 369.958007812 836.302734375 496 857 c 4
 553.744140625 866.482421875 649 867 649 867 c 5
 654.669921875 847 l 5
 636.171875 788.333984375 618.434570312 704.227539062 613 668 c 5
 574 741 491.083007812 798.720703125 423 781 c 4
 353.547851562 762.922851562 303.723632812 673.508789062 283.483398438 549 c 5
 396 549 l 5
 396 481 l 5
 270.423828125 481 l 5
 252.891601562 384.638671875 217.080078125 218.284179688 188 94 c 4
 135.080078125 -132.169921875 35 -228 -79 -230 c 4
 -141.671875 -231.099609375 -205.829101562 -211.076171875 -231 -191.006835938 c 5
 -237 -174 l 5
 -175 -9 l 5
 -175 -9 -143.022460938 -167.39453125 -55 -168 c 4
 74.0009765625 -168.887695312 104 176 142 400 c 4
 153.610351562 468.440429688 111.565429688 492.619140625 40 483 c 5x20
EndSplineSet
Fore
SplineSet
66.9736328125 507 m 1x60
 76.9736328125 569 l 1
 119.590820312 567.163085938 146.01171875 567.608398438 195.625 569 c 1x60
 242.888671875 776.143554688 320.931640625 826.302734375 450.840820312 857 c 0
 505.497070312 869.880859375 601.415039062 867 601.415039062 867 c 1
 607.084960938 847 l 1
 588.586914062 788.333984375 570.849609375 734.227539062 565.415039062 698 c 1
 526.415039062 771 463.458007812 824.978515625 410.810546875 805 c 0
 344.416992188 779.8046875 307.376953125 650.508789062 287.45703125 566 c 1
 425.202148438 566 l 1
 415.188476562 508 l 1
 274.397460938 499 l 1xa0
 235.85546875 342.124023438 185.60546875 46.884765625 200.4921875 -102 c 5
 157.313476562 -103.41015625 109.244140625 -110.0625 63.9736328125 -117.05078125 c 5
 35.9736328125 -98 l 1
 64.974609375 -28.8876953125 140.326171875 188.698242188 178.973632812 422 c 0
 190.215820312 490.711914062 158.5390625 516.619140625 66.9736328125 507 c 1x60
EndSplineSet
Layer: 2
Layer: 3
SplineSet
66 507 m 5
 76 569 l 1
 118.6171875 567.163085938 141.038085938 567.608398438 190.651367188 569 c 1
 247.915039062 776.143554688 319.958007812 826.302734375 456 857 c 0
 513.08203125 869.880859375 609 867 609 867 c 1
 614.669921875 847 l 1
 596.171875 788.333984375 578.434570312 734.227539062 573 698 c 1
 534 771 469.783812771 824.978932625 414 805 c 0
 343.651367188 779.8046875 322.723632812 650.508789062 302.483398438 566 c 1
 432 566 l 1
 422 508 l 1
 289.423828125 499 l 1
 250.881835938 342.124023438 185.107421875 44.884765625 201 -104 c 1
 126.815429688 -106.41015625 138.74609375 -107.0625 63 -117.05078125 c 1
 35 -98 l 1
 64.0009765625 -28.8876953125 139.828125 188.698242188 178 422 c 4
 189.2421875 490.711914062 157.565429688 516.619140625 66 507 c 5
EndSplineSet
Layer: 4
EndChar

StartChar: x
Encoding: 88 120 68
GlifName: uni0078
Width: 711
VWidth: 79
Flags: W
HStem: -14.0099 81.202<420.536 581.477> -9.18202 119.792<122.395 211.029> 522 90.3545<534.129 637.15> 530.492 80.681<171.444 291.608>
LayerCount: 5
Back
SplineSet
708 537 m 1x00
 621.875 554.568359375 537 504 503.634765625 455 c 0
 452.749023438 380.270507812 430.958007812 331.96484375 405.298828125 265 c 0
 377.5234375 192.5078125 356.934570312 106.274414062 327.090820312 50 c 0
 295.122070312 -10.2822265625 249.047851562 -19.0400390625 194 -19.763671875 c 0
 134.740234375 -20.54296875 86.3916015625 8.3974609375 63.0908203125 30 c 1
 69 66 l 1
 179.352539062 54.3017578125 231.421875 72.685546875 269 124 c 0
 304.282226562 172.1796875 347.161132812 269.3671875 374.522460938 328 c 0
 420.581054688 426.69921875 431.005859375 497.157226562 478.647460938 559 c 0
 516.19140625 607.734375 565.598632812 610.296875 588 611 c 0
 638.80859375 612.594726562 692.624023438 592.4765625 721 572 c 1
 708 537 l 1x00
216 479 m 1049
704.924804688 10.564453125 m 1
 610.249023438 9.064453125 526.510742188 0.232421875 471.415039062 -13 c 1
 427.379882812 193.998046875 293.9296875 399.301757812 216 479 c 0
 181.895507812 513.87890625 111.546875 533.006835938 57.8642578125 530 c 1
 71.0908203125 573 l 1
 154.208984375 570 244.561523438 585 328.090820312 606 c 1
 360.5859375 472.755859375 404.069335938 390.356445312 461.67578125 282 c 0
 523.194335938 166.286132812 564.532226562 39.13671875 713.166992188 52 c 1
 711.443359375 40.3994140625 706.685546875 23.2314453125 704.924804688 10.564453125 c 1
EndSplineSet
Fore
SplineSet
56.349609375 19 m 5x60
 67.548828125 67 85.2236328125 109 95.9482421875 163 c 5
 113.589197892 131.474103592 148.322074496 110.609562569 185.224343209 110.609562569 c 4
 279.879172276 110.609562569 311.392578125 268.00390625 337.510742188 346 c 4
 362.065910016 336.694732375 l 5
 354.36328125 382.734375 l 5
 382.4765625 377 l 4
 435.23046875 512.213867188 499.762695312 612.354492188 619.763671875 612.354492188 c 4
 644.827148438 612.354492188 669.041992188 609 669.041992188 609 c 5
 675.254882812 600 l 5
 652.130859375 530 637.21875 451 636.256835938 440 c 5
 613.331054688 498 597.430664062 522 555.818359375 522 c 4
 487.895507812 522 407.84765625 364.174804688 392.828125 280 c 4
 350.603515625 254 l 4
 342.16796875 234 341.0390625 215.782226562 335.305664062 198 c 5
 295.497070312 78.49609375 232.326684201 -9.18201776162 131.826968176 -9.18201776162 c 4
 110.877883114 -9.18201776162 82.1890496415 -5.8036701882 60.9501953125 3 c 5
 56.349609375 19 l 5x60
126.943359375 563 m 1
 160.387875026 583.068978704 225.34106386 611.172608124 287.243101372 611.172608124 c 0
 333.824630392 611.172608124 360.783561293 594.573165508 373.879882812 533 c 0
 382.972536155 490.245427517 386.541723509 460.271108883 386.541723509 429.033453552 c 0
 386.541723509 406.10741458 380.028320312 357.483398438 378.590820312 342 c 0
 380.216796875 319 384.622070312 336.91796875 391.813476562 311 c 0
 408.338867188 245 442.869140625 146.192382812 480.038085938 107 c 0
 509.91202815 78.8416867259 539.303237478 67.1921011291 573.64566467 67.1921011291 c 0
 589.307635865 67.1921011291 605.999383392 69.6150338009 624.236328125 74 c 1
 615.736328125 34 l 1
 586.936047757 11.2594809164 525.925806518 -14.0099115029 470.695906888 -14.0099115029 c 0
 370.376887111 -14.0099115029 365.994838822 102.437934335 356.154296875 180 c 0
 350.330019142 225.906314348 342.56575941 240.277120548 339.697265625 266 c 0
 332.821289062 335 305.427734375 414.595703125 282.213867188 467 c 0
 263.115199433 507.115521356 233.516732282 530.491643336 172.79718216 530.491643336 c 0x90
 159.38791261 530.491643336 144.460866459 529.351588828 127.793945312 527 c 1
 126.943359375 563 l 1
EndSplineSet
Layer: 2
Layer: 3
SplineSet
57.5029296875 19 m 1
 68.7021484375 67 86.376953125 109 97.1015625 163 c 1
 116.126953125 129 155.032226562 107.400390625 196.802734375 111 c 0
 288.26171875 118.881835938 334.21875 265.05859375 360.76171875 342 c 0
 363.461914062 350 372.5 331.826171875 374.412109375 338 c 0
 377.19921875 347 384.249023438 359 392.561523438 374 c 1
 406.223632812 393 377.69921875 387 384.57421875 397 c 1
 448.247070312 519 504.848632812 605.51953125 619.383789062 612 c 0
 648.55078125 613.650390625 682.12109375 609 682.12109375 609 c 1
 688.333984375 600 l 1
 665.209960938 530 650.297851562 451 649.3359375 440 c 1
 626.41015625 498 610.509765625 522 566.509765625 522 c 4
 494.251953125 522 419.494140625 354.174804688 404.462890625 270 c 0
 402.00390625 256.018554688 381.58984375 253.146484375 375.837890625 240 c 0
 367.088867188 220 365.029296875 201.782226562 355.938476562 184 c 0
 294.44140625 66 239.643554688 -4.431640625 141.053710938 -9 c 0
 119.965820312 -10 86.228515625 -7 62.103515625 3 c 1
 57.5029296875 19 l 1
128.947265625 527 m 1
 128.096679688 563 l 1
 159.759765625 582 222.114257812 608.854492188 281.296875 611 c 0
 336.471679688 613 367.971679688 598.26171875 383.47265625 533 c 0
 392.97265625 493 396.260742188 462 397.8984375 435 c 1
 399.236328125 416 394.25 359.0078125 392.76171875 342 c 0
 394.75 319 397.107421875 336.91796875 405.049804688 311 c 0
 423.373046875 245 461.21875 146.192382812 501.202148438 107 c 0
 546.615234375 66 589.08984375 60 647.315429688 74 c 1
 638.815429688 34 l 1
 609.686523438 11 547.608398438 -14.5869140625 490.616210938 -14 c 0
 385.950195312 -13 382.426757812 103.59375 368.588867188 180 c 0
 365.901367188 195 372.467773438 211.677734375 367.962890625 230 c 0
 365.750976562 239 351.438476562 255.797851562 350.11328125 266 c 0
 342.021484375 335 311.984375 414.595703125 286.698242188 467 c 0
 261.342773438 515.974609375 221.084960938 540 128.947265625 527 c 1
EndSplineSet
Layer: 4
EndChar

StartChar: z
Encoding: 90 122 69
GlifName: uni007A_
Width: 558
VWidth: 153
Flags: W
LayerCount: 5
Back
Fore
SplineSet
104.940429688 587 m 1
 104.940429688 510.5234375 100.940429688 470.713867188 90.9404296875 411 c 1
 148.69140625 494.65625 196.600585938 512.047851562 238.280273438 515.174804688 c 0
 359.38671875 524.463867188 416.98828125 521.69140625 373.606445312 450 c 0
 275.821289062 295.774414062 47.3994140625 74.5400390625 15.9404296875 4 c 1
 31.9404296875 -13.77734375 l 1
 162.489257812 14.4921875 306.240234375 12.3818359375 465.927734375 -1 c 1
 479.927734375 12 l 1
 482.927734375 43 512.927734375 131 521.927734375 168 c 1
 453.927734375 99.7890625 394.268554688 85.7919921875 274.169921875 87 c 0
 229.79296875 87.4482421875 220.254882812 108.303710938 238.095703125 147 c 0
 266.369140625 203.321289062 315.421875 262.092773438 411.764648438 387 c 0
 427.587890625 407.515625 535.508789062 534.576171875 556.076171875 594 c 1
 534.927734375 613 l 1
 396.794921875 587.6484375 264.748046875 581.2109375 113.940429688 603 c 1
 104.940429688 587 l 1
EndSplineSet
Layer: 2
Layer: 3
SplineSet
105 587 m 1
 105 510.5234375 101 470.713867188 91 411 c 1
 148.750976562 494.65625 196.660120267 512.047375501 240 515.174804688 c 0
 368.731792302 524.464160518 430.041992188 521.69140625 384.697265625 450 c 0
 282.40625 295.774414062 47.45831908 74.5396614368 16 4 c 1
 32 -13.77734375 l 1
 165.006835938 14.4921875 317.95703125 12.3818359375 482 -1 c 1
 496 12 l 1
 499 43 529 131 538 168 c 1
 470 99.7890625 410.340820312 85.7919921875 283 87 c 0
 235.78515625 87.4482421875 225.403320312 108.303710938 243.947265625 147 c 0
 273.391601562 203.321289062 324.9140625 262.092773438 426 387 c 0
 442.602539062 407.515625 551.581054688 534.576171875 572.1484375 594 c 1
 551 613 l 1
 407.817382812 587.64827474 267.4140625 581.2109375 114 603 c 1
 105 587 l 1
EndSplineSet
Layer: 4
EndChar

StartChar: zero
Encoding: 16 48 77
GlifName: uni0030
Width: 696
VWidth: 153
Flags: HW
HStem: -5.24707 73.0781<290.541 425.285> 625.965 62.1865<281.1 409.946>
VStem: 58.0029 125.569<210.488 473.256> 504.521 124.741<203.321 497.116>
LayerCount: 5
Back
Fore
SplineSet
96.3291015625 312.139648438 m 0
 127.021484375 557.9765625 258.61328125 678.568359375 425.216796875 688.151367188 c 0
 557.922851562 694.520507812 702.116210938 600.80859375 673.557617188 360.750976562 c 0
 651.866210938 177.670898438 555.525390625 -0.9384765625 355.641601562 -5.2470703125 c 0
 170.864257812 -9.2421875 72.0712890625 118.194335938 96.3291015625 312.139648438 c 0
228.109375 362.72265625 m 0
 207.201171875 184.776367188 256.29296875 66.4130859375 372.680664062 67.8310546875 c 0
 465.466796875 69.5556640625 527.092773438 178.3671875 546.58984375 342.618164062 c 0
 567.305664062 515.715820312 521.15234375 626.806640625 421.306640625 625.96484375 c 4
 350.973632812 625.372070312 249.49609375 547.4765625 228.109375 362.72265625 c 0
EndSplineSet
Layer: 2
Layer: 3
Layer: 4
EndChar

StartChar: one
Encoding: 17 49 78
GlifName: uni0031
Width: 445
VWidth: 79
Flags: HW
HStem: 0 63<72 159.721 303.377 382> 583 61<60 144.864>
VStem: 174 104<0 85.766>
LayerCount: 5
Back
Fore
SplineSet
113.073242188 644 m 1
 213.35546875 642 383.334960938 695 383.334960938 695 c 1
 360.625976562 591.489257812 297.530273438 85.765625 278 0 c 1
 174 0 l 1
 213.083007812 196.138671875 243.015305111 447.241279772 245.375 508 c 0
 247.899414062 573 183.583007812 603 111.583007812 603 c 1
 113.073242188 644 l 1
82.490234375 52 m 1
 147.999023438 48 188.700195312 79 199.821289062 137 c 1
 302.540039062 151 l 1
 288.875976562 56 371.612304688 52 399.735351562 53 c 5
 392 0 l 1
 72 0 l 1
 82.490234375 52 l 1
EndSplineSet
Layer: 2
Layer: 3
Layer: 4
EndChar

StartChar: two
Encoding: 18 50 79
GlifName: uni0032
Width: 650
VWidth: 153
Flags: HW
HStem: 0 98.0107<184 496.392> 634 62<228.807 388.558>
VStem: 96 67<513 567.989> 435 135<437.521 586.052> 525 72<126.132 179.429>
LayerCount: 5
Back
Fore
SplineSet
170.477539062 631 m 1xf0
 227.004882812 660 349.155273438 694 422.458007812 696 c 0
 548.340820312 699.434570312 648.596679688 649.357421875 635.198242188 531 c 0xf0
 609.84765625 307.05859375 231.358398438 91.6962890625 159.3671875 60 c 1
 195.696289062 95.2607421875 l 1
 443.034179688 98.0107421875 l 1
 521.034179688 98.0107421875 536.41796875 150 547.03125 179.428710938 c 1
 620.083984375 188 l 1xe8
 588 0 l 1
 58 0 l 4
 50.6123046875 62 l 5
 137.35546875 105.818359375 308.559570312 219.91796875 377.239257812 287 c 0
 457.196289062 365.09765625 490.291992188 438.837890625 497.620117188 510 c 0
 504.978515625 581.45703125 481.41796875 636.12890625 399.845703125 634 c 0
 306.635742188 631.568359375 201.970619886 549.076560216 157.883789062 504 c 1
 165.658983764 571.000003351 173.241944514 631.000000802 170.477539062 631 c 1xf0
EndSplineSet
Layer: 2
Layer: 3
Layer: 4
EndChar

StartChar: three
Encoding: 19 51 80
GlifName: uni0033
Width: 601
VWidth: 153
Flags: HW
HStem: 275 65<194 270.984> 626 57<194.382 341.269>
VStem: 68 61<502 560.717> 389 124<443.362 583.97> 408 125<33.536 189.586>
LayerCount: 5
Back
Fore
SplineSet
141.372070312 622 m 1xf0
 192.073242188 644 279.56640625 680.25390625 368.862304688 683 c 0
 531.475585938 688 587.8828125 617.694335938 577.953125 529 c 0xf0
 565.799804688 420.447265625 454.491210938 326.846679688 322.401367188 308 c 1
 315.337890625 332 l 1
 465.8984375 334.393554688 560.61328125 254.40625 549.453125 134 c 0
 534.029296875 -32.40234375 376.684570312 -93.466796875 270.125 -113 c 0
 171.676757812 -131.045898438 68.853515625 -123.888671875 43.6162109375 -109 c 5
 55.5839923655 -80.336937031 77.8313096656 -18.6360790462 90.3154296875 27 c 5
 110.299804688 -23.0263671875 173.154296875 -66.5859375 270.000976562 -57 c 0
 371.118164062 -46.9912109375 412.80859375 30.1591796875 421.997070312 114 c 0xe8
 433.786132812 221.557617188 332.500976562 280.479492188 227.765625 275 c 1
 228.747070312 340 l 1
 366.6171875 358.325195312 441.306640625 426 451.497070312 509 c 0
 461.973632812 594.326171875 407.090835143 628.766902228 343.86328125 626 c 0
 253.233433401 622.033945447 174.586015435 549.753439909 128.287109375 491 c 1
 136.990234375 553.732421875 141.372070312 622 141.372070312 622 c 1xf0
EndSplineSet
Layer: 2
Layer: 3
Layer: 4
EndChar

StartChar: four
Encoding: 20 52 81
GlifName: uni0034
Width: 717
VWidth: 79
Flags: HW
HStem: 100 95<510.998 680>
LayerCount: 5
Back
Fore
SplineSet
466.376953125 394 m 9
 466.376953125 394 520.396484375 417.795898438 580.252929688 450 c 5
 521.510742188 161.8046875 504.516601562 64.859375 493.248046875 -112 c 1
 386.248046875 -112 l 1
 420.594726562 68.9462890625 450.126953125 229.84765625 466.376953125 394 c 9
119.294921875 149 m 1
 130.079101562 187.965820312 l 1
 258.59765625 185.998046875 608.037109375 191.107421875 704.311523438 198 c 13
 695.646484375 103 l 21
 83.2783203125 100 l 1
 58.0673828125 139 l 1
 196.599609375 294.509765625 334.2578125 517.298828125 386.178710938 653 c 1
 420.729492188 654.815429688 456.51953125 655.961914062 513.529296875 664 c 1
 466.51171875 546.94140625 264.162109375 244.427734375 119.294921875 149 c 1
EndSplineSet
Layer: 2
Layer: 3
Layer: 4
EndChar

StartChar: five
Encoding: 21 53 82
GlifName: uni0035
Width: 594
VWidth: 153
Flags: HW
HStem: 564 112<324.87 473> 572 98<174 434.269>
VStem: 413 120<36.7302 208.446>
LayerCount: 5
Back
Fore
SplineSet
124.518554688 330 m 1x60
 151.10546875 448.706054688 171.173828125 539.622070312 194.265625 670 c 1x60
 305.422851562 663.98828125 463.177734375 669.82421875 560.463867188 676 c 1
 541.268554688 556 l 1xa0
 414.392578125 563.736328125 383.608398438 564 243.250976562 564 c 1
 215.765625 401.630859375 l 5
 412.91015625 402.005859375 567.006835938 323.752929688 551.049804688 147 c 0
 535.78515625 -22.080078125 371.54296875 -104.45703125 264.020507812 -122 c 0
 179.6796875 -135.760742188 60.4853515625 -126.888671875 35.248046875 -112 c 1
 30.345703125 -73.81640625 45.3515625 -14.2958984375 79.2978515625 35 c 1
 99.2822265625 -15.0263671875 157.719726562 -72.0087890625 262.87890625 -58 c 0
 346.934570312 -46.802734375 401.721679688 13.1591796875 414.751953125 112 c 4
 433.771484375 256.270507812 334.573242188 342.71875 124.518554688 330 c 1x60
EndSplineSet
Layer: 2
Layer: 3
Layer: 4
EndChar

StartChar: six
Encoding: 22 54 83
GlifName: uni0036
Width: 658
VWidth: 153
Flags: HW
HStem: -13.9893 60.1377<283.762 418.785> 424.196 83.7139<276.474 420.689> 741 54.6719<417.331 531.709>
VStem: 495.13 112.426<152.762 348.618>
LayerCount: 5
Back
Fore
SplineSet
630.983398438 743 m 21
 375.759765625 745.53515625 237.495117188 492.340820312 226.790039062 277.728515625 c 0
 219.658203125 134.73828125 265.084960938 45.5869140625 356.258789062 46.1484375 c 0
 444.91015625 46.611328125 502.126953125 128.610351562 518.7890625 241.5546875 c 0
 537.981445312 371.654296875 474.337890625 421.510742188 405.607421875 424.196289062 c 0
 289.330078125 428.739257812 217.590820312 346.076171875 204.1328125 335 c 1
 206.544921875 335.498046875 185.455078125 371.251953125 187.67578125 372 c 1
 283.852539062 486.946289062 380.125 508.44921875 444.512695312 507.91015625 c 0
 544.247070312 507.075195312 665.50390625 434.206054688 638.568359375 252.581054688 c 0
 617.598632812 115.400390625 504.581054688 -16.080078125 324.483398438 -13.9892578125 c 0
 133.479492188 -11.2333984375 97.7099609375 168.609375 108.798828125 283 c 0
 138.096679688 586.403320312 332.154296875 743.340820312 522.6640625 787.263671875 c 0
 557.163085938 795.217773438 596.237304688 800.2578125 629.405273438 795.671875 c 1
 630.983398438 743 l 21
EndSplineSet
Layer: 2
Layer: 3
Layer: 4
EndChar

StartChar: seven
Encoding: 23 55 84
GlifName: uni0037
Width: 662
VWidth: 0
Flags: HW
HStem: 573 92<180.888 542> 581 20G<451.523 541.315> 652 20G<525.717 590.037>
LayerCount: 5
Back
Fore
SplineSet
161.651367188 660.5 m 1x80
 346.694335938 654.782226562 560.265625 666.469726562 655.510742188 672 c 1
 694.880859375 618 l 1
 531.134765625 456.462890625 316.534179688 126.818359375 225.283203125 -128 c 1
 191 -101 150.998389997 -85.2161579547 120.791015625 -75 c 5
 185.899414062 86.9560546875 418.899414062 451.646484375 613.395507812 601 c 5x60
 612.35546875 573 l 1
 323.479492188 573 l 1
 226.737181513 567.353278063 168.7109375 530.911132812 129.094726562 481.5 c 1
 140.927734375 542.708984375 153.275390625 580.061523438 161.651367188 660.5 c 1x80
EndSplineSet
Layer: 2
Layer: 3
Layer: 4
EndChar

StartChar: eight
Encoding: 24 56 85
GlifName: uni0038
Width: 626
VWidth: 153
Flags: HW
HStem: -24.9893 63.1377<217.751 378.227> 729 61.7139<224.772 371.07>
VStem: 31 119<105.176 260.817> 425 104<514.48 673.751> 438 118<100.287 251.968>
LayerCount: 5
Back
Fore
SplineSet
258.302734375 597 m 0xe8
 262.66796875 682.760742188 330.935546875 731.942382812 398.755859375 731 c 0
 478.741210938 729.922851562 516.938476562 671.887695312 508.1796875 596 c 0
 499.83984375 524.233398438 435.333007812 443.09765625 371.569335938 420 c 1
 395.885742188 390 l 1
 468.80859375 396.875976562 593.680664062 464.514648438 612.302734375 597 c 0xf0
 628.827148438 714.56640625 545.900390625 791.943359375 419.087890625 790.713867188 c 0
 292.362304688 789.434570312 157.081054688 708.654296875 146.741210938 568 c 0
 129.3203125 331.010742188 480.95703125 382.666015625 460.57421875 192 c 0
 452.202148438 113.67578125 409.270507812 39.7890625 313.68359375 38.1484375 c 0
 215.57421875 36.46484375 180.955078125 111.211914062 189.469726562 183 c 0
 197.23828125 248.495117188 239.012695312 315.018554688 330.974609375 350 c 0
 336.130859375 351.9609375 324.751953125 391.338867188 330.131835938 392 c 1
 180.268554688 383.083007812 82.408203125 280.234375 69.3642578125 174 c 0
 57.0859375 74 104.17578125 -26.43359375 297.931640625 -24.9892578125 c 4
 432.078125 -23.9580078125 567.021484375 53.3896484375 587.592773438 184 c 0
 629.178710938 446.525390625 248.854492188 411.416992188 258.302734375 597 c 0xe8
EndSplineSet
Layer: 2
Layer: 3
Layer: 4
EndChar

StartChar: nine
Encoding: 25 57 86
GlifName: uni0039
Width: 633
VWidth: 153
Flags: HW
LayerCount: 5
Back
Fore
SplineSet
114.141601562 -73 m 21
 154.0703125 -73.396484375 190.974609375 -67.705078125 224.864257812 -57 c 4
 407.59765625 0.7236328125 502.69140625 213.234375 511.720703125 394.271484375 c 0
 518.853515625 537.26171875 479.426757812 626.413085938 388.251953125 625.8515625 c 0
 299.6015625 625.388671875 242.383789062 543.389648438 225.721679688 430.4453125 c 0
 206.530273438 300.345703125 270.172851562 250.489257812 338.904296875 247.803710938 c 0
 455.181640625 243.260742188 526.920898438 325.923828125 540.377929688 337 c 1
 537.966796875 336.501953125 559.055664062 300.748046875 556.834960938 300 c 1
 460.658203125 185.053710938 364.385742188 163.55078125 299.998046875 164.08984375 c 0
 200.263671875 164.924804688 79.0068359375 237.793945312 105.942382812 419.418945312 c 0
 126.912109375 556.599609375 239.9296875 688.080078125 420.02734375 685.989257812 c 0
 611.032226562 683.233398438 646.80078125 503.390625 635.712890625 389 c 0
 606.4140625 85.5966796875 412.356445312 -71.3408203125 221.84765625 -115.263671875 c 0
 187.348632812 -123.217773438 148.274414062 -128.2578125 115.106445312 -123.671875 c 1
 114.141601562 -73 l 21
EndSplineSet
Layer: 2
Layer: 3
Layer: 4
EndChar

